<svg width="385" height="153" viewBox="0 0 385 153" fill="none" xmlns="http://www.w3.org/2000/svg">
<g clip-path="url(#clip0_70_230)">
<path d="M98.9432 62.0768C98.483 61.3474 97.9773 60.6477 97.4293 59.9817C99.1747 59.8362 100.911 59.5966 102.631 59.264C108.071 58.2309 112.883 55.0938 116.022 50.5344C119.069 46.2472 120.564 40.3693 120.564 32.5515C120.564 24.7337 119.186 18.8558 116.236 14.5298C114.013 11.222 110.897 8.61207 107.25 7.00305C108.049 10.4689 108.42 14.0194 108.356 17.5755C108.356 25.3351 106.881 31.2906 103.834 35.5778C100.695 40.1372 95.8824 43.2742 90.4424 44.3073C88.7224 44.6334 86.986 44.8665 85.2409 45.0057C85.789 45.6717 86.2946 46.3714 86.7548 47.1008C89.2584 50.9806 90.423 56.1601 90.423 63.2796C90.423 70.399 89.1613 75.4039 86.4442 79.3613C84.9748 81.5521 83.0679 83.4154 80.8435 84.8342C78.6191 86.2531 76.1253 87.1967 73.5185 87.6059C70.4876 88.073 67.4243 88.3001 64.3577 88.2849H43.8239V108.46C43.822 111.714 43.5167 114.962 42.9118 118.159C41.8742 123.595 38.7366 128.404 34.1781 131.545C29.8307 134.629 24.047 136.065 15.9926 136.065C11.063 136.258 6.14832 135.405 1.57227 133.562C2.68035 138.819 5.76499 143.451 10.1896 146.501C14.5371 149.605 20.2429 151.041 28.1808 151.041C36.1187 151.041 42.0188 149.605 46.3663 146.501C50.9324 143.368 54.0723 138.556 55.0999 133.116C55.7057 129.918 56.0113 126.671 56.0123 123.416V103.242H76.5655C79.6322 103.257 82.6952 103.03 85.7261 102.563C88.3331 102.161 90.8283 101.223 93.0534 99.8071C95.2785 98.3912 97.185 96.5286 98.652 94.3374C101.369 90.4576 102.631 85.2781 102.631 78.2362C102.631 71.1944 101.447 65.9954 98.9432 62.0768Z" fill="#5C2D15"/>
<path d="M216.964 63.9779C216.971 60.9379 217.146 57.9006 217.488 54.8798L201.03 20.8733C199.507 17.5923 197.358 14.6402 194.703 12.1826C193.335 10.9211 191.846 9.79702 190.258 8.82654L216.964 64.0361V63.9779Z" fill="#5C2D15"/>
<path d="M277.828 77.2857C279.381 78.9324 281.249 80.2516 283.32 81.1655C283.846 81.4008 284.384 81.608 284.931 81.7862C284.733 80.5807 284.636 79.3608 284.64 78.1392C284.598 75.4488 285.073 72.7753 286.038 70.2632C286.918 67.9338 288.236 65.7939 289.919 63.9585C291.446 62.3068 293.295 60.9863 295.353 60.0787C297.392 59.1679 299.603 58.7112 301.836 58.7402C303.362 58.7371 304.881 58.966 306.339 59.4191C306.106 58.091 305.735 56.7907 305.232 55.5393C304.283 53.1684 302.916 50.987 301.195 49.0989C299.673 47.4514 297.83 46.1313 295.78 45.2191C293.858 44.3324 291.764 43.8819 289.648 43.8999C287.414 43.8776 285.202 44.341 283.165 45.2579C281.103 46.1585 279.252 47.4801 277.731 49.1377C276.043 50.9626 274.725 53.097 273.849 55.423C272.883 57.9413 272.409 60.6215 272.452 63.3184C272.414 65.9725 272.895 68.6084 273.869 71.078C274.791 73.3751 276.134 75.4802 277.828 77.2857Z" fill="#5C2D15"/>
<path d="M362.137 63.2796C362.143 68.7411 361.544 74.1865 360.352 79.5165C359.925 81.4564 359.42 83.3964 358.838 85.3363L359.051 85.4914C365.34 89.5846 369.396 94.0658 371.376 99.0707C371.803 97.577 372.21 96.0639 372.54 94.5508C373.732 89.2142 374.331 83.7624 374.326 78.2944C374.387 68.2497 372.475 58.2907 368.697 48.9825C365.068 40.1083 359.756 32.0193 353.054 25.1605C352.355 24.4363 351.637 23.7379 350.9 23.0654C358.398 35.1495 362.296 49.1191 362.137 63.3378V63.2796Z" fill="#5C2D15"/>
<path d="M178.012 110.594H149.443L144.377 121.127C140.069 129.566 134.984 134.707 128.851 136.647C126.795 137.314 124.646 137.648 122.485 137.636C117.165 137.432 111.961 136.019 107.269 133.504C105.774 132.767 104.377 132.01 103.096 131.234C103.894 134.649 105.566 137.797 107.948 140.371C111.227 143.784 115.135 146.531 119.457 148.461C124.146 150.985 129.351 152.398 134.673 152.593C136.833 152.601 138.98 152.274 141.039 151.623C147.191 149.683 152.276 144.542 156.566 136.103L161.631 125.57H185.581C184.594 123.967 183.7 122.309 182.903 120.604L178.012 110.594Z" fill="#5C2D15"/>
<path d="M384.69 117.733C383.525 111.389 379.333 105.88 372.036 100.933C372.21 101.534 372.385 102.136 372.501 102.757C373.666 109.255 371.55 116.336 366 124.095C363.251 128.304 359.68 131.914 355.5 134.707C352.4 136.651 348.814 137.68 345.155 137.675C343.183 137.674 341.222 137.387 339.333 136.821C335.2 135.536 331.276 133.654 327.688 131.234L324.136 128.945C320.302 131.111 316.282 132.929 312.123 134.377C305.066 136.8 297.653 138.026 290.191 138.005C280.35 138.051 270.605 136.07 261.564 132.185C252.83 128.43 244.917 122.999 238.274 116.2C237.692 115.618 237.149 115.017 236.605 114.415C236.042 118.429 234.307 122.188 231.617 125.221C228.398 128.68 224.552 131.497 220.283 133.523L219.973 133.679C215.245 136.17 210.019 137.568 204.679 137.772C202.519 137.782 200.371 137.455 198.313 136.802C197.084 136.378 195.901 135.832 194.781 135.172L194.955 135.541C199.109 144.387 204.194 149.702 210.482 151.758C212.537 152.427 214.687 152.762 216.848 152.748C222.189 152.536 227.415 151.131 232.142 148.635L232.452 148.499C236.718 146.46 240.564 143.637 243.786 140.177C246.483 137.149 248.219 133.388 248.774 129.372C249.318 129.973 249.88 130.594 250.443 131.176C257.091 137.969 265.003 143.399 273.733 147.161C282.774 151.046 292.519 153.027 302.36 152.981C309.824 153.005 317.238 151.772 324.292 149.334C328.451 147.896 332.472 146.085 336.305 143.921L339.857 146.191C343.446 148.615 347.369 150.503 351.502 151.797C353.392 152.356 355.353 152.637 357.324 152.631C360.986 152.63 364.575 151.609 367.688 149.683C371.853 146.878 375.416 143.27 378.169 139.072C383.739 131.196 385.874 124.212 384.69 117.733Z" fill="#5C2D15"/>
<path d="M4.75487 122.078C6.98681 123.649 10.7521 124.445 16.0117 124.445C21.2713 124.445 25.2304 123.649 27.4429 122.078C28.4875 121.385 29.384 120.491 30.0803 119.449C30.7766 118.406 31.2591 117.236 31.4994 116.006C31.9681 113.518 32.202 110.992 32.1981 108.46V76.6455H64.3767C66.8198 76.6582 69.26 76.4766 71.6742 76.1023C72.7276 75.9444 73.7357 75.5654 74.6321 74.9904C75.5286 74.4153 76.2933 73.6571 76.8757 72.7657C78.1696 70.9034 78.8165 67.7413 78.8165 63.2796C78.8165 58.585 78.2149 55.2872 76.8757 53.3473C76.3277 52.4295 75.5879 51.6407 74.707 51.0347C73.8261 50.4287 72.8248 50.0199 71.7714 49.836C69.3632 49.4046 66.9203 49.1968 64.4739 49.2153H32.1203V33.5603H80.4856C83.0895 33.5705 85.6887 33.3367 88.2489 32.8619C89.476 32.6257 90.6437 32.1472 91.6835 31.4544C92.7232 30.7615 93.6142 29.8683 94.3042 28.8269C95.8957 26.596 96.672 22.852 96.672 17.5755C96.672 12.299 95.915 8.38036 94.4011 6.14948C93.7506 5.1213 92.9 4.23429 91.8998 3.54114C90.8996 2.84798 89.7701 2.36283 88.5787 2.11448C86.0599 1.62174 83.4984 1.3813 80.932 1.39672H16.5744C10.3379 1.39672 6.02944 2.54124 3.64871 4.83033C1.26797 7.11941 0.0644564 11.3096 0.0385788 17.4009V108.285C0.0373809 110.849 0.271466 113.407 0.737482 115.928C0.966632 117.168 1.43972 118.35 2.12936 119.406C2.81901 120.461 3.71137 121.37 4.75487 122.078Z" fill="#5C2D15"/>
<path d="M202.059 125.764C205.106 126.753 209.453 125.919 215.082 123.223C218.035 121.843 220.711 119.936 222.981 117.597C223.776 116.721 224.388 115.694 224.782 114.578C225.175 113.462 225.341 112.279 225.271 111.098C224.95 107.945 223.993 104.889 222.457 102.116L178.323 10.9411C177.433 9.01952 176.18 7.28732 174.635 5.83911C173.161 4.46931 171.46 3.36651 169.608 2.58009C167.762 1.8164 165.783 1.42731 163.786 1.43552C160.754 1.46377 157.793 2.35176 155.246 3.99621C152.564 5.61068 150.402 7.96037 149.016 10.7664L104.862 102.155C103.335 104.932 102.378 107.986 102.048 111.137C101.983 112.326 102.161 113.515 102.571 114.632C102.982 115.75 103.616 116.772 104.436 117.636C106.738 119.935 109.45 121.784 112.432 123.087C117.944 125.783 122.136 126.617 125.26 125.628C128.385 124.639 131.238 121.38 134.052 115.928L142.185 99.0513H185.251L193.403 115.754C196.12 121.431 199.005 124.768 202.059 125.764ZM155.343 71.5435L163.553 54.4918L171.879 71.5435H155.343Z" fill="#5C2D15"/>
<path d="M246.737 108.169C252.327 113.89 258.987 118.457 266.339 121.612C273.923 124.86 282.096 126.505 290.347 126.443C296.508 126.474 302.63 125.464 308.454 123.455C314.114 121.501 319.452 118.716 324.292 115.191L334.131 121.515C336.77 123.31 339.644 124.733 342.671 125.744C343.794 126.099 344.98 126.203 346.147 126.049C347.314 125.895 348.433 125.486 349.425 124.852C352.227 122.872 354.619 120.368 356.47 117.48C360.093 112.307 361.62 108.117 361.051 104.91C360.481 101.703 357.667 98.4694 352.608 95.2104L344.69 89.9338C346.559 85.8172 348.002 81.5207 348.998 77.1111C349.996 72.6077 350.498 68.0085 350.493 63.396C350.564 54.8738 348.948 46.4216 345.737 38.5265C342.694 31.023 338.218 24.1837 332.559 18.3903C326.962 12.6693 320.295 8.10183 312.938 4.94674C305.355 1.6973 297.18 0.0526703 288.93 0.116408C280.846 0.0589233 272.843 1.73933 265.465 5.04374C258.193 8.27104 251.645 12.9288 246.213 18.7394C240.649 24.6548 236.263 31.5739 233.287 39.1278C230.127 47.0694 228.539 55.5482 228.609 64.0943C228.559 72.396 230.203 80.6207 233.442 88.2655C236.593 95.6706 241.102 102.421 246.737 108.169ZM263.001 51.2134C264.404 47.5433 266.492 44.1728 269.153 41.2811C271.734 38.3908 274.886 36.0658 278.411 34.4527C281.951 32.8698 285.789 32.0628 289.667 32.086C293.457 32.0727 297.205 32.8801 300.652 34.4527C304.116 36.0502 307.225 38.326 309.794 41.1453C312.457 44.0535 314.574 47.4182 316.043 51.0776C317.585 54.9325 318.363 59.0504 318.333 63.202C318.361 67.3777 317.61 71.522 316.121 75.4234C314.775 79.0311 312.721 82.334 310.082 85.1387C307.443 87.9435 304.27 90.1936 300.749 91.7573C297.211 93.3469 293.372 94.1604 289.493 94.1434C285.694 94.1615 281.938 93.347 278.488 91.7573C275.037 90.1888 271.931 87.9538 269.347 85.1811C263.793 79.2175 260.743 71.3492 260.827 63.202C260.788 59.0856 261.525 54.9986 263.001 51.1552V51.2134Z" fill="#5C2D15"/>
</g>
<defs>
<clipPath id="clip0_70_230">
<rect width="385" height="153" fill="white"/>
</clipPath>
</defs>
</svg>
