<svg width="577" height="99" viewBox="0 0 577 99" fill="none" xmlns="http://www.w3.org/2000/svg">
<path d="M48.4001 3.23971C49.4927 3.23475 50.5838 3.32455 51.6608 3.50805C52.1855 3.60674 52.6851 3.80882 53.1301 4.10238C53.575 4.39595 53.9563 4.77506 54.2514 5.21735C54.9182 6.178 55.2516 7.83429 55.2516 10.1862C55.399 11.8841 55.0518 13.5882 54.2514 15.0955C53.9557 15.5495 53.5699 15.9387 53.1176 16.2394C52.6653 16.5402 52.156 16.7461 51.6208 16.8445C50.5277 17.0346 49.4198 17.1277 48.3101 17.1228H35.8175V58.3645C35.8226 59.6489 35.6987 60.9306 35.4474 62.1905C35.3284 62.794 35.0904 63.3682 34.7471 63.8798C34.4037 64.3915 33.9619 64.8306 33.447 65.1719C32.3401 65.9603 30.3931 66.3511 27.6058 66.3445C24.9386 66.3445 23.0348 65.9404 21.8945 65.1321C21.3698 64.7832 20.922 64.3319 20.5781 63.8058C20.2342 63.2796 20.0015 62.6895 19.8941 62.0713C19.683 60.8068 19.5793 59.527 19.5841 58.2452V17.1129H6.98153C5.90008 17.1119 4.82125 17.0054 3.76076 16.7948C2.68829 16.574 1.74669 15.942 1.14022 15.0359C0.440077 14.0421 0.140015 12.4222 0.140015 10.067C0.140015 7.71173 0.490088 6.16142 1.14022 5.19745C1.44431 4.74647 1.83815 4.36215 2.29745 4.06817C2.75674 3.7742 3.27181 3.5768 3.81082 3.48816C4.88847 3.31005 5.97905 3.22032 7.07151 3.21985L48.4001 3.23971Z" fill="#5C2D15"/>
<path d="M82.7474 67.3582C78.7965 67.4734 74.8688 66.7201 71.245 65.152C68.2958 63.8325 65.6889 61.861 63.6234 59.3881C61.7403 57.1034 60.299 54.4922 59.3725 51.6863C58.4939 49.1051 58.0346 46.4012 58.0121 43.6765C57.9165 39.2953 59.0119 34.9696 61.1828 31.1549C63.2699 27.5798 66.3131 24.6491 69.9747 22.6879C73.9304 20.5971 78.3575 19.5436 82.8373 19.6271C86.1346 19.5408 89.4122 20.1575 92.4493 21.4358C94.766 22.4256 96.8586 23.8682 98.6027 25.6779C100.347 27.4875 101.707 29.6273 102.601 31.9698C103.34 33.8363 103.739 35.8181 103.782 37.8231C103.782 41.2417 102.935 43.8521 101.241 45.6541C100.41 46.5421 99.397 47.2429 98.2704 47.7091C97.1437 48.1754 95.9296 48.3964 94.7098 48.3572H75.4057C75.6482 49.3114 76.1703 50.1727 76.9061 50.8317C77.7305 51.5655 78.7021 52.1175 79.7568 52.4515C80.955 52.8533 82.2129 53.0516 83.4775 53.0379C84.6586 53.0513 85.8389 52.9749 87.0083 52.8093C87.9158 52.6882 88.8121 52.4955 89.6888 52.2329C90.4389 51.9845 91.139 51.7459 91.7691 51.5074C92.3993 51.2689 92.9795 51.0702 93.4896 50.9211C93.9761 50.7739 94.4814 50.697 94.9899 50.6925C96.0862 50.6973 97.1469 51.0802 97.9905 51.7758C99.0269 52.6707 99.8589 53.7752 100.431 55.0155C100.823 55.7116 101.129 56.4524 101.341 57.2216C101.513 57.8538 101.603 58.5049 101.611 59.1595C101.621 60.03 101.425 60.8906 101.039 61.6724C100.653 62.4541 100.089 63.1353 99.3908 63.6613C97.4968 65.0463 95.3117 65.9874 92.9995 66.4141C89.6271 67.0998 86.1892 67.4164 82.7474 67.3582ZM75.4057 39.8902H85.5579C86.2237 39.948 86.8871 39.7566 87.4183 39.3536C87.6249 39.1394 87.7843 38.8846 87.8859 38.6057C87.9875 38.3267 88.0293 38.0297 88.0085 37.7337C88.0318 37.0112 87.79 36.3048 87.3283 35.7462C86.8335 35.1782 86.1893 34.7584 85.4679 34.5337C84.5601 34.2447 83.6103 34.107 82.6573 34.1263C81.3391 34.0985 80.0342 34.3919 78.8565 34.9809C77.8526 35.4782 76.9949 36.2244 76.366 37.1474C75.8055 37.9602 75.4739 38.9072 75.4057 39.8902Z" fill="#5C2D15"/>
<path d="M116.014 66.275C113.294 66.275 111.36 65.8708 110.213 65.0625C109.684 64.7067 109.234 64.2473 108.89 63.7124C108.546 63.1775 108.315 62.5785 108.213 61.952C107.999 60.671 107.892 59.3747 107.893 58.0763V28.4518C107.886 27.1838 108.01 25.9185 108.263 24.6755C108.388 24.0708 108.637 23.4983 108.995 22.9938C109.353 22.4894 109.812 22.0638 110.343 21.7438C111.49 21.0018 113.424 20.6275 116.144 20.6209C117.992 20.4999 119.841 20.8238 121.535 21.5649C122.509 22.0389 123.269 22.8578 123.666 23.8606C123.95 24.6545 124.089 25.4926 124.076 26.3351C124.006 26.8058 124.051 27.2862 124.206 27.7363L123.486 28.2729C123.45 27.2765 123.809 26.3059 124.486 25.5699C125.346 24.5907 126.359 23.7552 127.487 23.0954C128.743 22.3399 130.087 21.736 131.487 21.2966C132.779 20.8702 134.128 20.6423 135.488 20.6209C138.254 20.5562 140.996 21.1419 143.49 22.3302C145.769 23.4585 147.744 25.1109 149.251 27.15C150.845 29.3358 152.028 31.7902 152.742 34.3946C153.545 37.3285 153.938 40.3579 153.912 43.3982V58.1757C153.914 59.4726 153.793 60.7669 153.552 62.0415C153.441 62.6586 153.207 63.2474 152.864 63.7731C152.52 64.2988 152.074 64.7508 151.552 65.1023C150.431 65.8874 148.491 66.275 145.71 66.275C142.93 66.275 140.969 65.8675 139.819 65.0625C139.282 64.7061 138.821 64.2479 138.462 63.7142C138.103 63.1804 137.854 62.5816 137.729 61.952C137.487 60.6741 137.367 59.3765 137.369 58.0763V43.3982C137.403 42.184 137.139 40.9798 136.598 39.8902C136.108 38.9596 135.353 38.1925 134.428 37.684C133.347 37.1427 132.147 36.8796 130.937 36.9188C129.723 36.8902 128.521 37.1707 127.447 37.7337C126.475 38.2457 125.673 39.0255 125.136 39.9796C124.573 41.0306 124.29 42.2077 124.316 43.3982V58.1757C124.318 59.4726 124.197 60.7669 123.956 62.0415C123.845 62.6586 123.611 63.2474 123.268 63.7731C122.924 64.2988 122.478 64.7508 121.955 65.1023C120.735 65.8874 118.835 66.275 116.014 66.275Z" fill="#5C2D15"/>
<path d="M163.144 21.1575H173.746L186.249 20.7103C187.541 20.7069 188.831 20.8267 190.1 21.0681C190.726 21.1946 191.321 21.4433 191.849 21.7999C192.378 22.1564 192.831 22.6136 193.18 23.1451C194 24.2912 194.411 26.2423 194.411 28.9984C194.411 31.5127 194 33.3511 193.18 34.484C192.462 35.5633 191.363 36.3362 190.1 36.6505C188.809 36.9546 187.486 37.1047 186.159 37.0977L174.647 36.8294H162.774C160.72 36.7101 159.3 36.0476 158.513 34.8418C157.726 33.636 157.336 31.6485 157.343 28.8792C157.343 26.2953 157.826 24.3575 158.793 23.0656C159.305 22.4177 159.97 21.9049 160.729 21.5721C161.488 21.2394 162.317 21.0971 163.144 21.1575ZM183.848 66.3644C181.029 66.418 178.217 66.0529 175.507 65.2812C173.316 64.6601 171.311 63.5173 169.665 61.952C168.068 60.3677 166.883 58.4198 166.215 56.2776C165.417 53.6831 165.036 50.9801 165.084 48.2677V13.3166C165.075 12.0325 165.196 10.7507 165.445 9.49057C165.577 8.89401 165.831 8.33064 166.19 7.83505C166.55 7.33945 167.007 6.9221 167.535 6.60863C168.675 5.85336 170.616 5.48566 173.336 5.48566C176.057 5.48566 177.897 5.88317 179.037 6.69807C179.576 7.05324 180.038 7.51108 180.396 8.04504C180.755 8.57899 181.004 9.17844 181.128 9.80859C181.369 11.0831 181.49 12.3774 181.488 13.6744V47.4628C181.48 48.0225 181.527 48.5816 181.628 49.1323C181.69 49.4877 181.826 49.8262 182.028 50.1261C182.219 50.3664 182.471 50.5516 182.758 50.6627C183.135 50.8037 183.536 50.8679 183.938 50.8515C185.35 50.8378 186.76 50.9576 188.149 51.2093C188.737 51.3108 189.297 51.5306 189.796 51.8554C190.295 52.1801 190.722 52.6028 191.05 53.0975C191.717 54.1178 192.05 55.8304 192.05 58.2353C192.05 60.9285 191.63 62.8564 190.78 63.9992C190.411 64.5233 189.94 64.969 189.396 65.3103C188.852 65.6516 188.244 65.8816 187.609 65.9868C186.369 66.2184 185.11 66.3448 183.848 66.3644Z" fill="#5C2D15"/>
<path d="M234.859 66.1855C232.138 66.1855 230.138 65.735 228.858 64.8339C228.302 64.5342 227.838 64.0923 227.513 63.5541C227.187 63.0159 227.013 62.4009 227.007 61.7731H228.278C227.755 62.3958 227.16 62.9561 226.507 63.4426C225.441 64.2349 224.265 64.8708 223.017 65.3308C221.302 65.9436 219.487 66.2335 217.665 66.1855C214.946 66.1844 212.264 65.5514 209.834 64.337C207.289 63.0837 205.011 61.3563 203.122 59.2489C201.156 57.0863 199.577 54.6059 198.451 51.9148C197.308 49.1881 196.724 46.2625 196.731 43.3087C196.729 40.4037 197.314 37.5278 198.451 34.8517C199.583 32.1763 201.181 29.7204 203.172 27.5971C205.082 25.5298 207.352 23.8229 209.874 22.5587C212.289 21.3423 214.958 20.709 217.665 20.7103C219.446 20.6588 221.219 20.9664 222.876 21.6146C224.116 22.1117 225.277 22.7809 226.327 23.6022C227 24.1124 227.593 24.7185 228.088 25.4009H227.087C227.04 24.7023 227.188 24.0042 227.517 23.3847C227.845 22.7653 228.341 22.2487 228.948 21.8929C230.235 21.0448 232.235 20.6241 234.949 20.6308C237.663 20.6374 239.58 21.0415 240.7 21.8432C241.75 22.5805 242.468 23.697 242.701 24.9537C242.945 26.2313 243.069 27.5289 243.071 28.8294V58.0365C243.069 59.337 242.945 60.6346 242.701 61.9122C242.59 62.5293 242.356 63.1182 242.012 63.6439C241.669 64.1696 241.223 64.6216 240.7 64.9731C239.573 65.788 237.626 66.1921 234.859 66.1855ZM219.856 49.8875C220.966 49.9 222.056 49.5853 222.986 48.9832C223.924 48.3829 224.7 47.5641 225.247 46.5981C225.811 45.6176 226.108 44.5077 226.108 43.3783C226.108 42.2489 225.811 41.1391 225.247 40.1585C224.68 39.2043 223.887 38.4025 222.936 37.8231C221.959 37.217 220.827 36.9031 219.676 36.9188C218.509 36.9057 217.361 37.2191 216.365 37.8231C215.377 38.4068 214.552 39.2267 213.965 40.2082C213.357 41.1981 213.041 42.338 213.054 43.4976C213.067 44.6229 213.415 45.7193 214.055 46.6478C214.696 47.6076 215.551 48.4069 216.555 48.9832C217.552 49.5764 218.693 49.8889 219.856 49.8875Z" fill="#5C2D15"/>
<path d="M256.673 66.2749C253.953 66.2749 252.012 65.8675 250.872 65.0625C250.343 64.7067 249.893 64.2473 249.549 63.7124C249.205 63.1775 248.974 62.5785 248.872 61.952C248.658 60.671 248.551 59.3747 248.552 58.0763V28.4518C248.547 27.1844 248.668 25.9195 248.912 24.6754C249.039 24.0704 249.29 23.4978 249.65 22.9934C250.01 22.4891 250.47 22.0637 251.002 21.7438C252.156 21.0018 254.089 20.6275 256.803 20.6208C258.651 20.5007 260.5 20.8245 262.194 21.5649C263.168 22.0389 263.928 22.8578 264.325 23.8605C264.609 24.6545 264.748 25.4925 264.735 26.3351C264.662 26.8056 264.706 27.287 264.865 27.7363L264.145 28.2729C264.109 27.2765 264.468 26.3059 265.145 25.5698C266.003 24.588 267.017 23.7521 268.146 23.0953C269.403 22.3398 270.746 21.736 272.147 21.2966C273.438 20.8701 274.787 20.6422 276.147 20.6208C278.913 20.5562 281.655 21.1419 284.149 22.3301C286.428 23.4585 288.403 25.1108 289.91 27.15C291.504 29.3358 292.687 31.7902 293.401 34.3946C294.204 37.3284 294.598 40.3579 294.571 43.3982V58.1757C294.573 59.4726 294.453 60.7669 294.211 62.0414C294.1 62.6585 293.867 63.2474 293.523 63.7731C293.179 64.2988 292.733 64.7507 292.211 65.1022C291.091 65.8873 289.15 66.2749 286.37 66.2749C283.589 66.2749 281.619 65.8675 280.478 65.0625C279.94 64.7073 279.478 64.2495 279.119 63.7155C278.76 63.1816 278.512 62.5821 278.388 61.952C278.147 60.674 278.026 59.3765 278.028 58.0763V43.3982C278.062 42.184 277.798 40.9798 277.258 39.8901C276.767 38.9595 276.012 38.1924 275.087 37.684C274.006 37.1427 272.806 36.8796 271.596 36.9188C270.382 36.8901 269.18 37.1707 268.106 37.7337C267.134 38.2456 266.332 39.0255 265.795 39.9796C265.232 41.0306 264.949 42.2077 264.975 43.3982V58.1757C264.977 59.4726 264.857 60.7669 264.615 62.0414C264.504 62.6585 264.27 63.2474 263.927 63.7731C263.583 64.2988 263.137 64.7507 262.615 65.1022C261.448 65.884 259.467 66.2749 256.673 66.2749Z" fill="#5C2D15"/>
<path d="M318.876 64.993C316.216 64.9946 313.593 64.3786 311.215 63.1942C308.73 61.9616 306.501 60.276 304.644 58.2254C302.71 56.1208 301.163 53.6957 300.073 51.0602C298.952 48.3941 298.381 45.5321 298.392 42.643C298.391 39.8256 298.963 37.037 300.073 34.4443C301.17 31.8306 302.735 29.4365 304.693 27.3785C306.588 25.3511 308.826 23.6694 311.305 22.4097C313.645 21.2037 316.241 20.57 318.876 20.5613C321.177 20.4701 323.457 21.032 325.448 22.1811C327.207 23.3064 328.617 24.8962 329.519 26.7724C330.594 29.0067 331.313 31.3939 331.649 33.848C332.097 36.8416 332.311 39.8651 332.289 42.8914C332.348 46.8527 331.969 50.8084 331.159 54.6875C330.641 57.5719 329.244 60.2288 327.158 62.2999C325.185 64.0953 322.424 64.993 318.876 64.993ZM321.137 85.3455C318.949 85.3338 316.771 85.0466 314.656 84.4909C312.541 83.9474 310.492 83.1777 308.544 82.1952C306.887 81.3877 305.36 80.3394 304.013 79.0847C303.518 78.6818 303.109 78.1837 302.812 77.6202C302.515 77.0567 302.335 76.4394 302.283 75.8053C302.273 74.6573 302.505 73.52 302.963 72.4662C303.464 71.3716 304.139 70.3648 304.964 69.4848C305.762 68.6277 306.61 67.818 307.504 67.06C308.244 66.4555 309.177 66.1346 310.135 66.1557C310.978 66.1404 311.808 66.3571 312.535 66.7818C313.202 67.2124 313.912 67.6795 314.666 68.183C315.497 68.7501 316.394 69.2172 317.336 69.5743C318.617 70.0351 319.975 70.2509 321.337 70.2103C322.218 70.2158 323.089 70.015 323.878 69.624C324.65 69.2272 325.331 68.6756 325.878 68.0041C326.473 67.2721 326.945 66.4501 327.278 65.5694C327.649 64.6188 327.835 63.6073 327.828 62.588V25.4804C327.88 24.7067 328.111 23.9553 328.503 23.2848C328.895 22.6143 329.438 22.0427 330.089 21.6147C331.882 20.7154 333.886 20.3104 335.89 20.442C338.557 20.442 340.431 20.8329 341.511 21.6147C342.03 21.9513 342.475 22.389 342.819 22.9015C343.163 23.4139 343.399 23.9904 343.512 24.596C343.726 25.8602 343.833 27.14 343.832 28.422V63.0949C343.904 66.356 343.22 69.5899 341.831 72.5457C340.534 75.2077 338.699 77.5757 336.44 79.5021C334.262 81.3527 331.778 82.8152 329.099 83.8251C326.55 84.8116 323.842 85.3334 321.107 85.3654L321.137 85.3455ZM321.047 49.1422C322.156 49.1535 323.244 48.8427 324.178 48.2478C325.105 47.6516 325.879 46.8485 326.438 45.9025C327.005 44.9814 327.303 43.9215 327.298 42.8417C327.318 41.7036 327.02 40.5824 326.438 39.602C325.881 38.6508 325.085 37.8598 324.128 37.3064C323.14 36.7311 322.012 36.4355 320.867 36.4517C319.746 36.4429 318.645 36.7533 317.696 37.3461C316.745 37.9293 315.952 38.7344 315.386 39.6914C314.81 40.6416 314.512 41.7326 314.526 42.8417C314.526 43.9264 314.838 44.9885 315.426 45.9025C316.032 46.859 316.854 47.662 317.826 48.2478C318.785 48.8379 319.889 49.1543 321.017 49.1621L321.047 49.1422Z" fill="#5C2D15"/>
<path d="M379.749 66.3644C377.028 66.3644 375.088 65.9569 373.948 65.1519C373.412 64.7905 372.954 64.3267 372.6 63.7876C372.246 63.2484 372.004 62.6447 371.887 62.0116C371.647 60.7168 371.527 59.4028 371.527 58.0862V11.5278C371.526 10.2275 371.646 8.92997 371.887 7.65203C372.01 7.02272 372.258 6.42416 372.617 5.89163C372.976 5.35911 373.439 4.90341 373.978 4.55145C375.118 3.73656 377.088 3.32913 379.869 3.32913C382.65 3.32913 384.59 3.73656 385.71 4.55145C386.762 5.28266 387.481 6.39696 387.711 7.65203C387.955 8.96297 388.076 10.2938 388.071 11.6271V24.0493L403.844 6.16137C404.945 4.88857 406.266 3.8217 407.745 3.01111C408.889 2.4211 410.219 2.29292 411.456 2.65334C413.043 3.21155 414.473 4.13828 415.627 5.35641C418.107 7.57253 419.367 9.53028 419.427 11.2098C419.487 12.8892 418.497 14.8072 416.427 16.9637L398.663 34.9809L416.527 52.7198C418.761 54.9326 419.801 56.9202 419.647 58.6825C419.497 60.4613 418.187 62.3594 415.707 64.4066C414.35 65.5867 412.782 66.5036 411.086 67.1097C410.499 67.2909 409.882 67.3482 409.272 67.2781C408.662 67.2079 408.074 67.0117 407.545 66.7022C406.168 65.8057 404.946 64.6951 403.924 63.4128L388.061 45.5249V58.2253C388.063 59.5223 387.942 60.8165 387.701 62.0911C387.577 62.7201 387.33 63.3186 386.973 63.8524C386.616 64.3862 386.156 64.8447 385.62 65.2016C384.49 65.9867 382.52 66.3644 379.749 66.3644Z" fill="#5C2D15"/>
<path d="M461.496 66.1855C458.775 66.1855 456.775 65.735 455.495 64.8339C454.938 64.5359 454.473 64.0943 454.147 63.5557C453.821 63.0172 453.648 62.4014 453.644 61.7731H454.905C454.389 62.3987 453.797 62.9594 453.144 63.4426C452.078 64.2349 450.902 64.8708 449.654 65.3308C447.939 65.9436 446.124 66.2335 444.303 66.1855C441.579 66.1845 438.894 65.5515 436.461 64.337C433.921 63.0809 431.646 61.3539 429.759 59.2489C427.79 57.0889 426.21 54.6079 425.088 51.9148C423.941 49.1895 423.356 46.2629 423.368 43.3087C423.361 40.4032 423.946 37.5263 425.088 34.8517C426.221 32.1789 427.815 29.7236 429.8 27.5971C431.715 25.5318 433.988 23.8252 436.511 22.5587C438.925 21.3413 441.595 20.7079 444.303 20.7103C446.083 20.6596 447.856 20.9672 449.514 21.6146C450.753 22.1117 451.914 22.7809 452.964 23.6022C453.637 24.1124 454.23 24.7185 454.725 25.4009H453.724C453.672 24.7028 453.818 24.0041 454.145 23.3841C454.472 22.764 454.967 22.2475 455.575 21.8929C456.875 21.0448 458.876 20.6241 461.576 20.6308C464.297 20.6308 466.207 21.0382 467.327 21.8432C468.378 22.5805 469.096 23.697 469.328 24.9537C469.569 26.2316 469.69 27.5292 469.688 28.8294V58.0365C469.69 59.3367 469.569 60.6343 469.328 61.9122C469.217 62.5293 468.983 63.1182 468.639 63.6439C468.296 64.1696 467.85 64.6216 467.327 64.9731C466.217 65.7979 464.277 66.1855 461.496 66.1855ZM446.543 49.8875C447.65 49.9004 448.737 49.5856 449.664 48.9832C450.604 48.3832 451.383 47.5646 451.934 46.5981C452.498 45.6176 452.795 44.5077 452.795 43.3783C452.795 42.2489 452.498 41.1391 451.934 40.1585C451.362 39.2084 450.57 38.4078 449.624 37.8231C448.647 37.217 447.515 36.9031 446.363 36.9188C445.196 36.9057 444.049 37.2191 443.052 37.8231C442.064 38.4068 441.239 39.2267 440.652 40.2082C440.044 41.1981 439.728 42.338 439.742 43.4976C439.754 44.6229 440.102 45.7193 440.742 46.6478C441.381 47.6051 442.233 48.404 443.232 48.9832C444.234 49.5753 445.378 49.8878 446.543 49.8875Z" fill="#5C2D15"/>
<path d="M483.15 66.3644C480.44 66.3644 478.499 65.957 477.359 65.152C476.83 64.7962 476.38 64.3368 476.036 63.8019C475.692 63.267 475.461 62.668 475.359 62.0415C475.141 60.7644 475.034 59.471 475.039 58.1757V28.7202C475.033 27.4066 475.154 26.0955 475.399 24.8047C475.528 24.1938 475.78 23.615 476.139 23.1028C476.498 22.5906 476.957 22.1555 477.489 21.8234C478.629 21.0383 480.6 20.6507 483.38 20.6507C486.161 20.6507 488.072 21.1774 489.312 22.2308C490.552 23.2842 491.172 24.9736 491.172 27.3189L489.632 26.8618C490.422 25.732 491.316 24.6774 492.302 23.7115C493.26 22.822 494.346 22.0785 495.523 21.5053C496.88 20.8583 498.369 20.5351 499.874 20.5613C501.62 20.5438 503.36 20.7849 505.035 21.2768C506.591 21.7556 508.05 22.5023 509.346 23.483C510.67 24.5058 511.815 25.7379 512.737 27.1301C513.582 26.1734 514.491 25.2737 515.457 24.437C516.698 23.3508 518.085 22.4411 519.578 21.7339C521.263 20.9328 523.112 20.5314 524.979 20.5613C528.227 20.4675 531.418 21.4153 534.081 23.2643C536.728 25.2505 538.717 27.9776 539.792 31.0953C541.204 35.0867 541.881 39.2977 541.793 43.5274V58.2055C541.795 59.5025 541.674 60.7967 541.433 62.0713C541.309 62.7014 541.06 63.3009 540.701 63.8348C540.343 64.3688 539.881 64.8266 539.342 65.1818C538.202 65.9868 536.232 66.3942 533.451 66.3942C530.67 66.3942 528.8 65.9769 527.65 65.1321C527.122 64.7656 526.674 64.2981 526.33 63.7572C525.987 63.2163 525.755 62.6127 525.649 61.9819C525.431 60.7014 525.324 59.4048 525.329 58.1061V43.3982C525.362 42.1962 525.193 40.9972 524.829 39.8505C524.566 39.0182 524.062 38.2818 523.379 37.7337C522.685 37.2282 521.838 36.9723 520.978 37.0083C520.103 36.9655 519.234 37.1872 518.488 37.6443C517.808 38.1226 517.326 38.8283 517.127 39.6318C516.818 40.8864 516.68 42.1767 516.717 43.4678V58.1459C516.72 59.4428 516.599 60.7371 516.357 62.0117C516.233 62.6418 515.985 63.2413 515.626 63.7752C515.267 64.3092 514.805 64.767 514.267 65.1222C513.127 65.9272 511.156 66.3346 508.376 66.3346C505.595 66.3346 503.725 65.9172 502.575 65.0725C502.047 64.7059 501.598 64.2385 501.255 63.6976C500.911 63.1567 500.68 62.5531 500.574 61.9222C500.356 60.6418 500.249 59.3451 500.254 58.0465V43.3982C500.283 42.1836 500.131 40.9714 499.804 39.8008C499.579 38.961 499.084 38.2175 498.394 37.684C497.656 37.204 496.784 36.9675 495.903 37.0083C495.412 36.9692 494.917 37.0292 494.45 37.1846C493.982 37.34 493.551 37.5876 493.183 37.9126C492.557 38.5571 492.133 39.3685 491.962 40.248C491.743 41.2838 491.636 42.3398 491.642 43.3982V58.3049C491.644 59.6018 491.524 60.8961 491.282 62.1707C491.163 62.7958 490.916 63.39 490.556 63.9165C490.197 64.4429 489.732 64.8905 489.192 65.2315C487.911 65.9868 485.911 66.3644 483.15 66.3644Z" fill="#5C2D15"/>
<path d="M555.476 16.298C552.755 16.298 550.821 15.8938 549.675 15.0856C549.145 14.7297 548.695 14.2703 548.351 13.7355C548.007 13.2006 547.777 12.6015 547.674 11.975C547.464 10.6937 547.36 9.39747 547.364 8.0993C547.358 6.78573 547.479 5.47462 547.724 4.18382C547.853 3.57414 548.104 2.99627 548.461 2.48426C548.818 1.97225 549.275 1.53645 549.805 1.20249C550.958 0.420724 552.892 0.0298462 555.606 0.0298462C558.32 0.0298462 560.24 0.433983 561.367 1.24225C562.411 1.98541 563.127 3.09919 563.367 4.35278C563.847 6.91124 563.847 9.53581 563.367 12.0943C563.253 12.7101 563.017 13.2975 562.674 13.8227C562.331 14.348 561.887 14.8008 561.367 15.1551C560.22 15.917 558.256 16.298 555.476 16.298ZM555.476 66.3644C552.755 66.3644 550.821 65.9603 549.675 65.152C549.145 64.7962 548.695 64.3368 548.351 63.8019C548.007 63.267 547.777 62.668 547.674 62.0415C547.464 60.7635 547.36 59.4706 547.364 58.1757V28.8195C547.361 27.5324 547.481 26.2479 547.724 24.9836C547.986 23.7314 548.733 22.632 549.805 21.9227C550.958 21.1211 552.892 20.717 555.606 20.7103C558.32 20.7037 560.24 21.1078 561.367 21.9227C562.411 22.6659 563.127 23.7797 563.367 25.0333C563.612 26.3442 563.733 27.6751 563.727 29.0084V58.2751C563.729 59.572 563.609 60.8663 563.367 62.1409C563.253 62.7567 563.017 63.3441 562.674 63.8693C562.331 64.3946 561.887 64.8473 561.367 65.2017C560.22 65.9835 558.256 66.371 555.476 66.3644Z" fill="#5C2D15"/>
<path d="M13.4929 23.0755H6.89143C5.41351 23.0748 3.9394 22.9283 2.49061 22.6382C1.88179 22.5187 1.28566 22.3423 0.710205 22.1115C0.999939 23.5748 1.59258 24.9623 2.45056 26.186C3.94885 28.3138 6.21118 29.7898 8.77182 30.3102C10.221 30.5969 11.6952 30.74 13.1728 30.7375H13.4929V23.0755Z" fill="#5C2D15"/>
<path d="M65.4036 9.40115C64.269 7.80469 62.6962 6.56623 60.8727 5.8335C61.1643 7.26266 61.305 8.71812 61.2927 10.1763C61.2927 13.734 60.6026 16.457 59.1723 18.4843C58.4272 19.5931 57.4632 20.5401 56.3388 21.2678C55.2144 21.9955 53.953 22.4888 52.631 22.7177C51.2036 22.9594 49.758 23.0791 48.31 23.0755H41.8187V58.3546C41.8219 60.0225 41.6611 61.6867 41.3386 63.3235C40.8014 66.0728 39.1904 68.4989 36.8577 70.0712C34.6573 71.6115 31.7066 72.3271 27.5657 72.3271C25.063 72.4093 22.5704 71.9762 20.2443 71.055C20.7942 73.7491 22.3802 76.1236 24.6651 77.6736C26.8656 79.2338 29.8762 79.999 33.8471 79.999C37.9879 79.999 40.9385 79.2835 43.1389 77.7431C45.4698 76.1646 47.0801 73.7364 47.62 70.9855C47.943 69.3487 48.1038 67.6845 48.1 66.0166V30.7375H54.6014C56.0494 30.7415 57.4949 30.6218 58.9222 30.3798C60.2444 30.1548 61.5064 29.6642 62.6311 28.9379C63.7559 28.2117 64.7197 27.2652 65.4636 26.1562C66.8939 24.119 67.5841 21.406 67.5841 17.8383C67.5841 14.2706 66.8839 11.4682 65.4036 9.40115Z" fill="#5C2D15"/>
<path d="M186.979 8.69553C187.29 10.3339 187.447 11.9973 187.449 13.6644V14.7576C188.725 14.8071 189.996 14.9533 191.25 15.1948C191.887 15.3256 192.513 15.5084 193.12 15.7414C192.474 13.2058 190.924 10.9888 188.759 9.50049C188.185 9.10803 187.572 8.77503 186.929 8.50671C186.95 8.56858 186.966 8.63164 186.979 8.69553Z" fill="#5C2D15"/>
<path d="M321.027 42.4442H320.807C320.688 42.528 320.589 42.6365 320.517 42.7622C320.62 42.9141 320.757 43.04 320.917 43.1299H320.997C321.104 43.0437 321.196 42.9395 321.267 42.8219C321.273 42.7491 321.273 42.676 321.267 42.6032C321.199 42.534 321.117 42.4798 321.027 42.4442Z" fill="#5C2D15"/>
<path d="M297.152 27.2792L296.822 27.0109C296.892 27.15 296.982 27.2792 297.052 27.4283C297.082 27.3686 297.122 27.3289 297.152 27.2792Z" fill="#5C2D15"/>
<path d="M187.449 43.0305V45.1175C188.069 45.187 188.679 45.2864 189.249 45.3957C189.773 45.4971 190.288 45.64 190.79 45.823C190.71 44.9883 190.67 44.1634 190.67 43.3187C190.67 43.0902 190.67 42.8517 190.67 42.6132C189.608 42.8289 188.531 42.9684 187.449 43.0305Z" fill="#5C2D15"/>
<path d="M219.786 42.8815H219.696C219.556 42.8815 219.526 42.8815 219.496 42.8815C219.338 42.9678 219.207 43.0948 219.116 43.2492C219.107 43.2917 219.107 43.3358 219.116 43.3784C219.237 43.555 219.398 43.7013 219.586 43.8057C219.669 43.8524 219.761 43.8796 219.856 43.8852C219.952 43.7994 220.033 43.6987 220.096 43.587C220.14 43.5192 220.161 43.4391 220.156 43.3585C220.166 43.296 220.166 43.2322 220.156 43.1697C220.061 43.0427 219.933 42.9433 219.786 42.8815Z" fill="#5C2D15"/>
<path d="M355.734 31.2841C355.5 29.9151 354.995 28.6059 354.248 27.4323C353.501 26.2586 352.528 25.2439 351.383 24.4469C350.761 24.0051 350.089 23.635 349.383 23.3438C349.408 23.4321 349.428 23.5217 349.443 23.6121C349.716 25.211 349.853 26.83 349.853 28.4518V63.1247C349.919 67.103 349.098 71.0467 347.449 74.6722C345.799 78.2977 343.361 81.5152 340.311 84.0934C337.606 86.3984 334.515 88.2146 331.179 89.4597C327.959 90.6822 324.543 91.3151 321.097 91.3281C318.396 91.3193 315.707 90.9687 313.095 90.2846C310.549 89.6327 308.084 88.7029 305.744 87.512C304.739 87.0019 303.767 86.431 302.833 85.8027C303.397 87.8142 304.512 89.6307 306.054 91.0498C307.839 92.7131 309.861 94.1061 312.055 95.1839C314.395 96.3715 316.861 97.2981 319.407 97.9466C322.018 98.6338 324.707 98.9878 327.408 99C330.855 98.9871 334.271 98.3541 337.49 97.1317C340.824 95.8827 343.915 94.0668 346.622 91.7653C349.672 89.1871 352.11 85.9697 353.76 82.3442C355.41 78.7186 356.231 74.775 356.164 70.7966V36.1735C356.161 34.5345 356.017 32.8987 355.734 31.2841Z" fill="#5C2D15"/>
<path d="M131.777 63.0651C131.465 61.4269 131.308 59.7634 131.307 58.0962V43.3982C131.321 43.2328 131.321 43.0667 131.307 42.9013H130.907C130.711 42.8953 130.516 42.9187 130.327 42.9709C130.314 43.1197 130.314 43.2693 130.327 43.4181V58.1956C130.329 59.8624 130.175 61.5259 129.867 63.1644C129.608 64.5401 129.077 65.8513 128.307 67.0229C127.536 68.1944 126.54 69.2033 125.376 69.9917C123.166 71.532 120.215 72.2475 116.084 72.2475C111.953 72.2475 109.083 71.5122 106.802 69.932C105.814 69.2344 104.943 68.3859 104.222 67.4178C103.922 67.7159 103.592 68.0141 103.222 68.2923C100.621 70.2816 97.5907 71.6425 94.3697 72.2674C90.5617 73.058 86.6769 73.4247 82.7872 73.3606C77.9514 73.4749 73.1498 72.5282 68.7244 70.5879C66.4327 69.5191 64.2881 68.1631 62.343 66.5532C63.2024 68.0623 64.1859 69.4983 65.2836 70.8463C67.9193 74.0126 71.2434 76.5439 75.0057 78.25C79.4312 80.1902 84.2328 81.1369 89.0686 81.0226C92.9582 81.0867 96.843 80.72 100.651 79.9294C103.871 79.3025 106.901 77.9418 109.503 75.9543C109.843 75.6661 110.173 75.378 110.503 75.0699C111.224 76.038 112.095 76.8865 113.084 77.5841C115.324 79.1642 118.275 79.9096 122.366 79.9096C126.456 79.9096 129.457 79.194 131.657 77.6537C132.821 76.863 133.817 75.8522 134.588 74.6791C135.358 73.5059 135.889 72.1934 136.148 70.8165C136.208 70.5084 136.258 70.2004 136.298 69.8824C133.95 68.2873 132.326 65.8388 131.777 63.0651Z" fill="#5C2D15"/>
<path d="M296.252 75.8251C296.243 73.8481 296.652 71.8912 297.452 70.0811C298.227 68.3661 299.292 66.7963 300.603 65.4402C301.073 64.9333 301.523 64.4464 301.953 64.0588C301.363 63.5122 300.783 62.9259 300.222 62.3297C300.222 62.598 300.142 62.8762 300.092 63.1545C299.833 64.5301 299.303 65.8413 298.532 67.0129C297.761 68.1845 296.765 69.1934 295.602 69.9817C293.391 71.5221 290.44 72.2376 286.31 72.2376C283.734 72.3329 281.166 71.8964 278.768 70.9556C279.341 73.6507 280.934 76.024 283.219 77.5841C285.459 79.1642 288.43 79.9096 292.591 79.9096C294.089 79.9208 295.586 79.7978 297.062 79.5419C296.544 78.3694 296.268 77.1055 296.252 75.8251Z" fill="#5C2D15"/>
<path d="M272.437 63.0651C272.124 61.427 271.966 59.7634 271.967 58.0962V43.3982C271.98 43.2328 271.98 43.0667 271.967 42.9013H271.566C271.371 42.8953 271.175 42.9187 270.986 42.9709C270.968 43.1194 270.968 43.2696 270.986 43.4181V58.1956C270.991 59.863 270.833 61.527 270.516 63.1644C270.261 64.5402 269.733 65.8519 268.964 67.0238C268.195 68.1957 267.199 69.2044 266.035 69.9917C263.825 71.532 260.874 72.2475 256.743 72.2475C252.613 72.2475 249.742 71.5122 247.461 69.932C246.873 69.5159 246.324 69.0468 245.821 68.5308C245.322 69.0371 244.776 69.4962 244.191 69.9022C241.99 71.4426 239.03 72.1581 234.899 72.1581C231.981 72.2782 229.081 71.6629 226.467 70.3693C226.067 70.5482 225.657 70.7171 225.237 70.8861C222.819 71.7772 220.254 72.2087 217.675 72.1581C214.033 72.1576 210.44 71.3138 207.183 69.6936C203.963 68.1036 201.077 65.918 198.681 63.2539C198.371 62.9259 198.101 62.5682 197.811 62.2601C197.537 64.1848 196.807 66.0174 195.681 67.6066C194.861 68.7574 193.82 69.736 192.619 70.4863C191.417 71.2367 190.078 71.744 188.679 71.9792C187.096 72.2447 185.494 72.3777 183.888 72.3767C180.469 72.4295 177.061 71.9774 173.776 71.0351C171.607 70.3732 169.56 69.3664 167.715 68.0538C168.693 70.2314 170.07 72.2095 171.776 73.8873C174.11 76.1154 176.951 77.7516 180.057 78.6574C183.342 79.6033 186.75 80.0588 190.169 80.0089C191.775 80.0049 193.377 79.872 194.961 79.6114C196.36 79.3762 197.698 78.8689 198.9 78.1185C200.101 77.3682 201.142 76.3896 201.962 75.2388C203.088 73.6458 203.818 71.8101 204.092 69.8824C204.382 70.2302 204.653 70.588 204.963 70.8761C207.359 73.5403 210.244 75.7259 213.464 77.3158C216.723 78.9315 220.314 79.7751 223.957 79.7804C226.535 79.8261 229.099 79.3947 231.518 78.5083C231.938 78.3394 232.348 78.1605 232.748 77.9816C235.361 79.2786 238.262 79.8974 241.18 79.7804C245.311 79.7804 248.272 79.0648 250.472 77.5245C251.057 77.1184 251.603 76.6594 252.102 76.1531C252.608 76.6631 253.157 77.1286 253.743 77.5444C255.983 79.1245 258.934 79.8698 263.025 79.8698C267.116 79.8698 270.106 79.1543 272.317 77.6139C274.665 76.0194 276.28 73.5638 276.808 70.7867C276.868 70.4687 276.908 70.1606 276.958 69.8426C274.614 68.26 272.991 65.8259 272.437 63.0651Z" fill="#5C2D15"/>
<path d="M165.415 66.2054C163.14 63.952 161.445 61.1875 160.474 58.1458C160.253 57.48 160.063 56.7844 159.893 56.0788V58.1757C159.896 59.8426 159.742 61.5061 159.433 63.1446C158.906 65.9217 157.291 68.3773 154.942 69.9718C152.732 71.5122 149.781 72.2277 145.65 72.2277C143.074 72.3229 140.507 71.8864 138.109 70.9457C138.681 73.6408 140.275 76.014 142.56 77.5742C144.8 79.1543 147.781 79.8996 151.932 79.8996C156.083 79.8996 159.013 79.1841 161.224 77.6438C163.572 76.0492 165.187 73.5936 165.715 70.8165C165.959 69.5039 166.106 68.1753 166.155 66.8414C165.905 66.6625 165.655 66.4439 165.415 66.2054Z" fill="#5C2D15"/>
<path d="M425.439 10.9514C425.559 14.3302 424.048 17.6196 420.818 21.0184L407.135 34.9312L414.136 41.8877L417.847 38.1113C418.218 36.2103 418.784 34.3521 419.537 32.566C420.947 29.2681 422.927 26.241 425.389 23.622C427.253 21.628 429.379 19.8931 431.71 18.4643C431.51 15.1749 429.709 11.975 426.019 8.69553C425.559 8.25827 425.109 7.87069 424.658 7.50299C425.118 8.59875 425.382 9.76565 425.439 10.9514Z" fill="#5C2D15"/>
<path d="M446.453 42.8815H446.363C446.295 42.8607 446.221 42.8607 446.153 42.8815C445.998 42.9719 445.87 43.1024 445.783 43.2591C445.783 43.2591 445.783 43.3088 445.783 43.3783C445.908 43.5552 446.072 43.7014 446.263 43.8057C446.343 43.8513 446.432 43.8785 446.523 43.8852C446.625 43.8031 446.71 43.7018 446.773 43.587C446.817 43.5192 446.838 43.4391 446.833 43.3585C446.843 43.296 446.843 43.2322 446.833 43.1697C446.735 43.0413 446.604 42.9417 446.453 42.8815Z" fill="#5C2D15"/>
<path d="M572.779 26.2357C574.206 24.7559 575.165 22.894 575.54 20.8792C576.163 17.5955 576.163 14.2251 575.54 10.9415C575.011 8.19352 573.434 5.75475 571.139 4.13411C570.533 3.699 569.883 3.3292 569.199 3.03101L569.259 3.26953C569.881 6.55322 569.881 9.92361 569.259 13.2073C568.884 15.2221 567.924 17.084 566.498 18.5637C567.918 20.06 568.876 21.9293 569.259 23.95C569.575 25.6244 569.732 27.3246 569.729 29.0282V58.2949C569.728 59.9622 569.571 61.6257 569.259 63.2638C568.999 64.6395 568.469 65.9507 567.698 67.1222C566.928 68.2938 565.932 69.3027 564.768 70.091C562.567 71.6314 559.617 72.3469 555.476 72.3469C551.335 72.3469 548.474 71.6115 546.204 70.0314C545.575 69.5899 544.992 69.0872 544.463 68.5308C543.939 69.0872 543.359 69.5899 542.733 70.0314C540.493 71.6115 537.512 72.3469 533.361 72.3469C529.21 72.3469 526.23 71.5519 523.999 69.9221C522.738 69.0099 521.679 67.8496 520.889 66.5134C520.068 67.9051 518.956 69.105 517.628 70.0314C515.387 71.6115 512.407 72.3469 508.256 72.3469C504.105 72.3469 501.124 71.5519 498.894 69.9221C497.643 69.0211 496.591 67.8745 495.803 66.5532C494.97 67.9891 493.817 69.2163 492.433 70.1407C490.212 71.6513 487.262 72.3469 483.151 72.3469C479.04 72.3469 476.149 71.6115 473.879 70.0314C473.306 69.6256 472.77 69.17 472.278 68.67C471.818 69.1257 471.32 69.5413 470.788 69.9122C468.578 71.4525 465.627 72.168 461.496 72.168C458.575 72.2881 455.672 71.6728 453.054 70.3792C452.664 70.5581 452.254 70.7271 451.824 70.896C449.41 71.7873 446.848 72.2188 444.273 72.168C440.63 72.1675 437.038 71.3237 433.78 69.7035C430.559 68.1111 427.67 65.9259 425.269 63.2638C425.089 63.0651 424.918 62.8365 424.738 62.6278C423.537 65.1246 421.762 67.3065 419.557 68.9979L419.477 69.0575C417.509 70.7454 415.225 72.0319 412.756 72.8438C411.78 73.118 410.77 73.2585 409.755 73.2612C407.922 73.2665 406.121 72.7788 404.544 71.85C402.583 70.6377 400.844 69.1018 399.403 67.3085L393.922 61.1272C393.852 61.8129 393.752 62.4986 393.622 63.1744C393.079 65.9582 391.459 68.4198 389.111 70.0314C386.871 71.6115 383.9 72.3469 379.749 72.3469C377.205 72.4444 374.67 72.0076 372.308 71.0649C372.882 73.7565 374.471 76.1278 376.748 77.6934C378.989 79.2835 381.94 80.0189 386.03 80.0189C390.121 80.0189 393.152 79.2835 395.392 77.6934C397.745 76.0856 399.365 73.6223 399.903 70.8364C400.033 70.1606 400.133 69.4848 400.203 68.7892L405.685 74.9804C407.129 76.7711 408.867 78.3066 410.826 79.522C412.405 80.4463 414.204 80.9335 416.037 80.9332C417.052 80.9319 418.062 80.7881 419.037 80.5058C421.506 79.6979 423.79 78.4147 425.759 76.7295L425.839 76.6599C428.043 74.9718 429.817 72.7934 431.02 70.2997L431.55 70.9358C433.952 73.5979 436.84 75.7831 440.062 77.3754C443.321 78.9912 446.912 79.8347 450.554 79.84C453.129 79.8858 455.69 79.4545 458.105 78.568C458.535 78.399 458.946 78.2201 459.336 78.0413C461.952 79.3383 464.856 79.957 467.777 79.84C471.908 79.84 474.859 79.1245 477.069 77.5841C477.601 77.2133 478.1 76.7977 478.56 76.3419C479.049 76.8415 479.585 77.294 480.16 77.6934C482.401 79.2835 485.341 80.0189 489.432 80.0189C493.523 80.0189 496.493 79.3133 498.714 77.8028C500.098 76.882 501.251 75.6581 502.085 74.2252C502.875 75.5444 503.926 76.6905 505.175 77.594C507.406 79.2238 510.466 80.0189 514.537 80.0189C518.608 80.0189 521.669 79.2835 523.909 77.6934C525.237 76.7706 526.349 75.574 527.17 74.1854C527.963 75.5196 529.022 76.6793 530.28 77.594C532.511 79.2238 535.572 80.0189 539.642 80.0189C543.713 80.0189 546.774 79.2835 549.014 77.6934C549.07 77.2752 549.277 76.8912 549.596 76.613C549.915 76.3349 550.325 76.1815 550.75 76.1815C551.174 76.1815 551.584 76.3349 551.904 76.613C552.223 76.8912 552.43 77.2752 552.485 77.6934C554.716 79.2835 557.666 80.0189 561.757 80.0189C565.848 80.0189 568.849 79.3034 571.059 77.763C573.402 76.165 575.013 73.7104 575.54 70.9358C575.852 69.2976 576.009 67.6341 576.01 65.9669V36.6604C576.012 34.9568 575.855 33.2568 575.54 31.5822C575.154 29.5743 574.195 27.7187 572.779 26.2357Z" fill="#5C2D15"/>
<path d="M393.892 8.34774L395.022 7.06576C394.555 6.76183 394.063 6.49597 393.552 6.27075C393.552 6.35025 393.552 6.42975 393.552 6.50925C393.732 7.14527 393.822 7.75148 393.892 8.34774Z" fill="#5C2D15"/>
<path d="M48.4001 3.23971C49.4927 3.23475 50.5838 3.32455 51.6608 3.50805C52.1855 3.60674 52.6851 3.80882 53.1301 4.10238C53.575 4.39595 53.9563 4.77506 54.2514 5.21735C54.9182 6.178 55.2516 7.83429 55.2516 10.1862C55.399 11.8841 55.0518 13.5882 54.2514 15.0955C53.9557 15.5495 53.5699 15.9387 53.1176 16.2394C52.6653 16.5402 52.156 16.7461 51.6208 16.8445C50.5277 17.0346 49.4198 17.1277 48.3101 17.1228H35.8175V58.3645C35.8226 59.6489 35.6987 60.9306 35.4474 62.1905C35.3284 62.794 35.0904 63.3682 34.7471 63.8798C34.4037 64.3915 33.9619 64.8306 33.447 65.1719C32.3401 65.9603 30.3931 66.3511 27.6058 66.3445C24.9386 66.3445 23.0348 65.9404 21.8945 65.1321C21.3698 64.7832 20.922 64.3319 20.5781 63.8058C20.2342 63.2796 20.0015 62.6895 19.8941 62.0713C19.683 60.8068 19.5793 59.527 19.5841 58.2452V17.1129H6.98153C5.90008 17.1119 4.82125 17.0054 3.76076 16.7948C2.68829 16.574 1.74669 15.942 1.14022 15.0359C0.440077 14.0421 0.140015 12.4222 0.140015 10.067C0.140015 7.71173 0.490088 6.16142 1.14022 5.19745C1.44431 4.74647 1.83815 4.36215 2.29745 4.06817C2.75674 3.7742 3.27181 3.5768 3.81082 3.48816C4.88847 3.31005 5.97905 3.22032 7.07151 3.21985L48.4001 3.23971Z" fill="#5C2D15"/>
<path d="M82.7474 67.3582C78.7965 67.4734 74.8688 66.7201 71.245 65.152C68.2958 63.8325 65.6889 61.861 63.6234 59.3881C61.7403 57.1034 60.299 54.4922 59.3725 51.6863C58.4939 49.1051 58.0346 46.4012 58.0121 43.6765C57.9165 39.2953 59.0119 34.9696 61.1828 31.1549C63.2699 27.5798 66.3131 24.6491 69.9747 22.6879C73.9304 20.5971 78.3575 19.5436 82.8373 19.6271C86.1346 19.5408 89.4122 20.1575 92.4493 21.4358C94.766 22.4256 96.8586 23.8682 98.6027 25.6779C100.347 27.4875 101.707 29.6273 102.601 31.9698C103.34 33.8363 103.739 35.8181 103.782 37.8231C103.782 41.2417 102.935 43.8521 101.241 45.6541C100.41 46.5421 99.397 47.2429 98.2704 47.7091C97.1437 48.1754 95.9296 48.3964 94.7098 48.3572H75.4057C75.6482 49.3114 76.1703 50.1727 76.9061 50.8317C77.7305 51.5655 78.7021 52.1175 79.7568 52.4515C80.955 52.8533 82.2129 53.0516 83.4775 53.0379C84.6586 53.0513 85.8389 52.9749 87.0083 52.8093C87.9158 52.6882 88.8121 52.4955 89.6888 52.2329C90.4389 51.9845 91.139 51.7459 91.7691 51.5074C92.3993 51.2689 92.9795 51.0702 93.4896 50.9211C93.9761 50.7739 94.4814 50.697 94.9899 50.6925C96.0862 50.6973 97.1469 51.0802 97.9905 51.7758C99.0269 52.6707 99.8589 53.7752 100.431 55.0155C100.823 55.7116 101.129 56.4524 101.341 57.2216C101.513 57.8538 101.603 58.5049 101.611 59.1595C101.621 60.03 101.425 60.8906 101.039 61.6724C100.653 62.4541 100.089 63.1353 99.3908 63.6613C97.4968 65.0463 95.3117 65.9874 92.9995 66.4141C89.6271 67.0998 86.1892 67.4164 82.7474 67.3582ZM75.4057 39.8902H85.5579C86.2237 39.948 86.8871 39.7566 87.4183 39.3536C87.6249 39.1394 87.7843 38.8846 87.8859 38.6057C87.9875 38.3267 88.0293 38.0297 88.0085 37.7337C88.0318 37.0112 87.79 36.3048 87.3283 35.7462C86.8335 35.1782 86.1893 34.7584 85.4679 34.5337C84.5601 34.2447 83.6103 34.107 82.6573 34.1263C81.3391 34.0985 80.0342 34.3919 78.8565 34.9809C77.8526 35.4782 76.9949 36.2244 76.366 37.1474C75.8055 37.9602 75.4739 38.9072 75.4057 39.8902Z" fill="#5C2D15"/>
<path d="M116.014 66.275C113.294 66.275 111.36 65.8708 110.213 65.0625C109.684 64.7067 109.234 64.2473 108.89 63.7124C108.546 63.1775 108.315 62.5785 108.213 61.952C107.999 60.671 107.892 59.3747 107.893 58.0763V28.4518C107.886 27.1838 108.01 25.9185 108.263 24.6755C108.388 24.0708 108.637 23.4983 108.995 22.9938C109.353 22.4894 109.812 22.0638 110.343 21.7438C111.49 21.0018 113.424 20.6275 116.144 20.6209C117.992 20.4999 119.841 20.8238 121.535 21.5649C122.509 22.0389 123.269 22.8578 123.666 23.8606C123.95 24.6545 124.089 25.4926 124.076 26.3351C124.006 26.8058 124.051 27.2862 124.206 27.7363L123.486 28.2729C123.45 27.2765 123.809 26.3059 124.486 25.5699C125.346 24.5907 126.359 23.7552 127.487 23.0954C128.743 22.3399 130.087 21.736 131.487 21.2966C132.779 20.8702 134.128 20.6423 135.488 20.6209C138.254 20.5562 140.996 21.1419 143.49 22.3302C145.769 23.4585 147.744 25.1109 149.251 27.15C150.845 29.3358 152.028 31.7902 152.742 34.3946C153.545 37.3285 153.938 40.3579 153.912 43.3982V58.1757C153.914 59.4726 153.793 60.7669 153.552 62.0415C153.441 62.6586 153.207 63.2474 152.864 63.7731C152.52 64.2988 152.074 64.7508 151.552 65.1023C150.431 65.8874 148.491 66.275 145.71 66.275C142.93 66.275 140.969 65.8675 139.819 65.0625C139.282 64.7061 138.821 64.2479 138.462 63.7142C138.103 63.1804 137.854 62.5816 137.729 61.952C137.487 60.6741 137.367 59.3765 137.369 58.0763V43.3982C137.403 42.184 137.139 40.9798 136.598 39.8902C136.108 38.9596 135.353 38.1925 134.428 37.684C133.347 37.1427 132.147 36.8796 130.937 36.9188C129.723 36.8902 128.521 37.1707 127.447 37.7337C126.475 38.2457 125.673 39.0255 125.136 39.9796C124.573 41.0306 124.29 42.2077 124.316 43.3982V58.1757C124.318 59.4726 124.197 60.7669 123.956 62.0415C123.845 62.6586 123.611 63.2474 123.268 63.7731C122.924 64.2988 122.478 64.7508 121.955 65.1023C120.735 65.8874 118.835 66.275 116.014 66.275Z" fill="#5C2D15"/>
<path d="M163.144 21.1575H173.746L186.249 20.7103C187.541 20.7069 188.831 20.8267 190.1 21.0681C190.726 21.1946 191.321 21.4433 191.849 21.7999C192.378 22.1564 192.831 22.6136 193.18 23.1451C194 24.2912 194.411 26.2423 194.411 28.9984C194.411 31.5127 194 33.3511 193.18 34.484C192.462 35.5633 191.363 36.3362 190.1 36.6505C188.809 36.9546 187.486 37.1047 186.159 37.0977L174.647 36.8294H162.774C160.72 36.7101 159.3 36.0476 158.513 34.8418C157.726 33.636 157.336 31.6485 157.343 28.8792C157.343 26.2953 157.826 24.3575 158.793 23.0656C159.305 22.4177 159.97 21.9049 160.729 21.5721C161.488 21.2394 162.317 21.0971 163.144 21.1575ZM183.848 66.3644C181.029 66.418 178.217 66.0529 175.507 65.2812C173.316 64.6601 171.311 63.5173 169.665 61.952C168.068 60.3677 166.883 58.4198 166.215 56.2776C165.417 53.6831 165.036 50.9801 165.084 48.2677V13.3166C165.075 12.0325 165.196 10.7507 165.445 9.49057C165.577 8.89401 165.831 8.33064 166.19 7.83505C166.55 7.33945 167.007 6.9221 167.535 6.60863C168.675 5.85336 170.616 5.48566 173.336 5.48566C176.057 5.48566 177.897 5.88317 179.037 6.69807C179.576 7.05324 180.038 7.51108 180.396 8.04504C180.755 8.57899 181.004 9.17844 181.128 9.80859C181.369 11.0831 181.49 12.3774 181.488 13.6744V47.4628C181.48 48.0225 181.527 48.5816 181.628 49.1323C181.69 49.4877 181.826 49.8262 182.028 50.1261C182.219 50.3664 182.471 50.5516 182.758 50.6627C183.135 50.8037 183.536 50.8679 183.938 50.8515C185.35 50.8378 186.76 50.9576 188.149 51.2093C188.737 51.3108 189.297 51.5306 189.796 51.8554C190.295 52.1801 190.722 52.6028 191.05 53.0975C191.717 54.1178 192.05 55.8304 192.05 58.2353C192.05 60.9285 191.63 62.8564 190.78 63.9992C190.411 64.5233 189.94 64.969 189.396 65.3103C188.852 65.6516 188.244 65.8816 187.609 65.9868C186.369 66.2184 185.11 66.3448 183.848 66.3644Z" fill="#5C2D15"/>
<path d="M234.859 66.1855C232.138 66.1855 230.138 65.735 228.858 64.8339C228.302 64.5342 227.838 64.0923 227.513 63.5541C227.187 63.0159 227.013 62.4009 227.007 61.7731H228.278C227.755 62.3958 227.16 62.9561 226.507 63.4426C225.441 64.2349 224.265 64.8708 223.017 65.3308C221.302 65.9436 219.487 66.2335 217.665 66.1855C214.946 66.1844 212.264 65.5514 209.834 64.337C207.289 63.0837 205.011 61.3563 203.122 59.2489C201.156 57.0863 199.577 54.6059 198.451 51.9148C197.308 49.1881 196.724 46.2625 196.731 43.3087C196.729 40.4037 197.314 37.5278 198.451 34.8517C199.583 32.1763 201.181 29.7204 203.172 27.5971C205.082 25.5298 207.352 23.8229 209.874 22.5587C212.289 21.3423 214.958 20.709 217.665 20.7103C219.446 20.6588 221.219 20.9664 222.876 21.6146C224.116 22.1117 225.277 22.7809 226.327 23.6022C227 24.1124 227.593 24.7185 228.088 25.4009H227.087C227.04 24.7023 227.188 24.0042 227.517 23.3847C227.845 22.7653 228.341 22.2487 228.948 21.8929C230.235 21.0448 232.235 20.6241 234.949 20.6308C237.663 20.6374 239.58 21.0415 240.7 21.8432C241.75 22.5805 242.468 23.697 242.701 24.9537C242.945 26.2313 243.069 27.5289 243.071 28.8294V58.0365C243.069 59.337 242.945 60.6346 242.701 61.9122C242.59 62.5293 242.356 63.1182 242.012 63.6439C241.669 64.1696 241.223 64.6216 240.7 64.9731C239.573 65.788 237.626 66.1921 234.859 66.1855ZM219.856 49.8875C220.966 49.9 222.056 49.5853 222.986 48.9832C223.924 48.3829 224.7 47.5641 225.247 46.5981C225.811 45.6176 226.108 44.5077 226.108 43.3783C226.108 42.2489 225.811 41.1391 225.247 40.1585C224.68 39.2043 223.887 38.4025 222.936 37.8231C221.959 37.217 220.827 36.9031 219.676 36.9188C218.509 36.9057 217.361 37.2191 216.365 37.8231C215.377 38.4068 214.552 39.2267 213.965 40.2082C213.357 41.1981 213.041 42.338 213.054 43.4976C213.067 44.6229 213.415 45.7193 214.055 46.6478C214.696 47.6076 215.551 48.4069 216.555 48.9832C217.552 49.5764 218.693 49.8889 219.856 49.8875Z" fill="#5C2D15"/>
<path d="M256.673 66.2749C253.953 66.2749 252.012 65.8675 250.872 65.0625C250.343 64.7067 249.893 64.2473 249.549 63.7124C249.205 63.1775 248.974 62.5785 248.872 61.952C248.658 60.671 248.551 59.3747 248.552 58.0763V28.4518C248.547 27.1844 248.668 25.9195 248.912 24.6754C249.039 24.0704 249.29 23.4978 249.65 22.9934C250.01 22.4891 250.47 22.0637 251.002 21.7438C252.156 21.0018 254.089 20.6275 256.803 20.6208C258.651 20.5007 260.5 20.8245 262.194 21.5649C263.168 22.0389 263.928 22.8578 264.325 23.8605C264.609 24.6545 264.748 25.4925 264.735 26.3351C264.662 26.8056 264.706 27.287 264.865 27.7363L264.145 28.2729C264.109 27.2765 264.468 26.3059 265.145 25.5698C266.003 24.588 267.017 23.7521 268.146 23.0953C269.403 22.3398 270.746 21.736 272.147 21.2966C273.438 20.8701 274.787 20.6422 276.147 20.6208C278.913 20.5562 281.655 21.1419 284.149 22.3301C286.428 23.4585 288.403 25.1108 289.91 27.15C291.504 29.3358 292.687 31.7902 293.401 34.3946C294.204 37.3284 294.598 40.3579 294.571 43.3982V58.1757C294.573 59.4726 294.453 60.7669 294.211 62.0414C294.1 62.6585 293.867 63.2474 293.523 63.7731C293.179 64.2988 292.733 64.7507 292.211 65.1022C291.091 65.8873 289.15 66.2749 286.37 66.2749C283.589 66.2749 281.619 65.8675 280.478 65.0625C279.94 64.7073 279.478 64.2495 279.119 63.7155C278.76 63.1816 278.512 62.5821 278.388 61.952C278.147 60.674 278.026 59.3765 278.028 58.0763V43.3982C278.062 42.184 277.798 40.9798 277.258 39.8901C276.767 38.9595 276.012 38.1924 275.087 37.684C274.006 37.1427 272.806 36.8796 271.596 36.9188C270.382 36.8901 269.18 37.1707 268.106 37.7337C267.134 38.2456 266.332 39.0255 265.795 39.9796C265.232 41.0306 264.949 42.2077 264.975 43.3982V58.1757C264.977 59.4726 264.857 60.7669 264.615 62.0414C264.504 62.6585 264.27 63.2474 263.927 63.7731C263.583 64.2988 263.137 64.7507 262.615 65.1022C261.448 65.884 259.467 66.2749 256.673 66.2749Z" fill="#5C2D15"/>
<path d="M318.876 64.993C316.216 64.9946 313.593 64.3786 311.215 63.1942C308.73 61.9616 306.501 60.276 304.644 58.2254C302.71 56.1208 301.163 53.6957 300.073 51.0602C298.952 48.3941 298.381 45.5321 298.392 42.643C298.391 39.8256 298.963 37.037 300.073 34.4443C301.17 31.8306 302.735 29.4365 304.693 27.3785C306.588 25.3511 308.826 23.6694 311.305 22.4097C313.645 21.2037 316.241 20.57 318.876 20.5613C321.177 20.4701 323.457 21.032 325.448 22.1811C327.207 23.3064 328.617 24.8962 329.519 26.7724C330.594 29.0067 331.313 31.3939 331.649 33.848C332.097 36.8416 332.311 39.8651 332.289 42.8914C332.348 46.8527 331.969 50.8084 331.159 54.6875C330.641 57.5719 329.244 60.2288 327.158 62.2999C325.185 64.0953 322.424 64.993 318.876 64.993ZM321.137 85.3455C318.949 85.3338 316.771 85.0466 314.656 84.4909C312.541 83.9474 310.492 83.1777 308.544 82.1952C306.887 81.3877 305.36 80.3394 304.013 79.0847C303.518 78.6818 303.109 78.1837 302.812 77.6202C302.515 77.0567 302.335 76.4394 302.283 75.8053C302.273 74.6573 302.505 73.52 302.963 72.4662C303.464 71.3716 304.139 70.3648 304.964 69.4848C305.762 68.6277 306.61 67.818 307.504 67.06C308.244 66.4555 309.177 66.1346 310.135 66.1557C310.978 66.1404 311.808 66.3571 312.535 66.7818C313.202 67.2124 313.912 67.6795 314.666 68.183C315.497 68.7501 316.394 69.2172 317.336 69.5743C318.617 70.0351 319.975 70.2509 321.337 70.2103C322.218 70.2158 323.089 70.015 323.878 69.624C324.65 69.2272 325.331 68.6756 325.878 68.0041C326.473 67.2721 326.945 66.4501 327.278 65.5694C327.649 64.6188 327.835 63.6073 327.828 62.588V25.4804C327.88 24.7067 328.111 23.9553 328.503 23.2848C328.895 22.6143 329.438 22.0427 330.089 21.6147C331.882 20.7154 333.886 20.3104 335.89 20.442C338.557 20.442 340.431 20.8329 341.511 21.6147C342.03 21.9513 342.475 22.389 342.819 22.9015C343.163 23.4139 343.399 23.9904 343.512 24.596C343.726 25.8602 343.833 27.14 343.832 28.422V63.0949C343.904 66.356 343.22 69.5899 341.831 72.5457C340.534 75.2077 338.699 77.5757 336.44 79.5021C334.262 81.3527 331.778 82.8152 329.099 83.8251C326.55 84.8116 323.842 85.3334 321.107 85.3654L321.137 85.3455ZM321.047 49.1422C322.156 49.1535 323.244 48.8427 324.178 48.2478C325.105 47.6516 325.879 46.8485 326.438 45.9025C327.005 44.9814 327.303 43.9215 327.298 42.8417C327.318 41.7036 327.02 40.5824 326.438 39.602C325.881 38.6508 325.085 37.8598 324.128 37.3064C323.14 36.7311 322.012 36.4355 320.867 36.4517C319.746 36.4429 318.645 36.7533 317.696 37.3461C316.745 37.9293 315.952 38.7344 315.386 39.6914C314.81 40.6416 314.512 41.7326 314.526 42.8417C314.526 43.9264 314.838 44.9885 315.426 45.9025C316.032 46.859 316.854 47.662 317.826 48.2478C318.785 48.8379 319.889 49.1543 321.017 49.1621L321.047 49.1422Z" fill="#5C2D15"/>
<path d="M379.749 66.3644C377.028 66.3644 375.088 65.9569 373.948 65.1519C373.412 64.7905 372.954 64.3267 372.6 63.7876C372.246 63.2484 372.004 62.6447 371.887 62.0116C371.647 60.7168 371.527 59.4028 371.527 58.0862V11.5278C371.526 10.2275 371.646 8.92997 371.887 7.65203C372.01 7.02272 372.258 6.42416 372.617 5.89163C372.976 5.35911 373.439 4.90341 373.978 4.55145C375.118 3.73656 377.088 3.32913 379.869 3.32913C382.65 3.32913 384.59 3.73656 385.71 4.55145C386.762 5.28266 387.481 6.39696 387.711 7.65203C387.955 8.96297 388.076 10.2938 388.071 11.6271V24.0493L403.844 6.16137C404.945 4.88857 406.266 3.8217 407.745 3.01111C408.889 2.4211 410.219 2.29292 411.456 2.65334C413.043 3.21155 414.473 4.13828 415.627 5.35641C418.107 7.57253 419.367 9.53028 419.427 11.2098C419.487 12.8892 418.497 14.8072 416.427 16.9637L398.663 34.9809L416.527 52.7198C418.761 54.9326 419.801 56.9202 419.647 58.6825C419.497 60.4613 418.187 62.3594 415.707 64.4066C414.35 65.5867 412.782 66.5036 411.086 67.1097C410.499 67.2909 409.882 67.3482 409.272 67.2781C408.662 67.2079 408.074 67.0117 407.545 66.7022C406.168 65.8057 404.946 64.6951 403.924 63.4128L388.061 45.5249V58.2253C388.063 59.5223 387.942 60.8165 387.701 62.0911C387.577 62.7201 387.33 63.3186 386.973 63.8524C386.616 64.3862 386.156 64.8447 385.62 65.2016C384.49 65.9867 382.52 66.3644 379.749 66.3644Z" fill="#5C2D15"/>
<path d="M461.496 66.1855C458.775 66.1855 456.775 65.735 455.495 64.8339C454.938 64.5359 454.473 64.0943 454.147 63.5557C453.821 63.0172 453.648 62.4014 453.644 61.7731H454.905C454.389 62.3987 453.797 62.9594 453.144 63.4426C452.078 64.2349 450.902 64.8708 449.654 65.3308C447.939 65.9436 446.124 66.2335 444.303 66.1855C441.579 66.1845 438.894 65.5515 436.461 64.337C433.921 63.0809 431.646 61.3539 429.759 59.2489C427.79 57.0889 426.21 54.6079 425.088 51.9148C423.941 49.1895 423.356 46.2629 423.368 43.3087C423.361 40.4032 423.946 37.5263 425.088 34.8517C426.221 32.1789 427.815 29.7236 429.8 27.5971C431.715 25.5318 433.988 23.8252 436.511 22.5587C438.925 21.3413 441.595 20.7079 444.303 20.7103C446.083 20.6596 447.856 20.9672 449.514 21.6146C450.753 22.1117 451.914 22.7809 452.964 23.6022C453.637 24.1124 454.23 24.7185 454.725 25.4009H453.724C453.672 24.7028 453.818 24.0041 454.145 23.3841C454.472 22.764 454.967 22.2475 455.575 21.8929C456.875 21.0448 458.876 20.6241 461.576 20.6308C464.297 20.6308 466.207 21.0382 467.327 21.8432C468.378 22.5805 469.096 23.697 469.328 24.9537C469.569 26.2316 469.69 27.5292 469.688 28.8294V58.0365C469.69 59.3367 469.569 60.6343 469.328 61.9122C469.217 62.5293 468.983 63.1182 468.639 63.6439C468.296 64.1696 467.85 64.6216 467.327 64.9731C466.217 65.7979 464.277 66.1855 461.496 66.1855ZM446.543 49.8875C447.65 49.9004 448.737 49.5856 449.664 48.9832C450.604 48.3832 451.383 47.5646 451.934 46.5981C452.498 45.6176 452.795 44.5077 452.795 43.3783C452.795 42.2489 452.498 41.1391 451.934 40.1585C451.362 39.2084 450.57 38.4078 449.624 37.8231C448.647 37.217 447.515 36.9031 446.363 36.9188C445.196 36.9057 444.049 37.2191 443.052 37.8231C442.064 38.4068 441.239 39.2267 440.652 40.2082C440.044 41.1981 439.728 42.338 439.742 43.4976C439.754 44.6229 440.102 45.7193 440.742 46.6478C441.381 47.6051 442.233 48.404 443.232 48.9832C444.234 49.5753 445.378 49.8878 446.543 49.8875Z" fill="#5C2D15"/>
<path d="M483.15 66.3644C480.44 66.3644 478.499 65.957 477.359 65.152C476.83 64.7962 476.38 64.3368 476.036 63.8019C475.692 63.267 475.461 62.668 475.359 62.0415C475.141 60.7644 475.034 59.471 475.039 58.1757V28.7202C475.033 27.4066 475.154 26.0955 475.399 24.8047C475.528 24.1938 475.78 23.615 476.139 23.1028C476.498 22.5906 476.957 22.1555 477.489 21.8234C478.629 21.0383 480.6 20.6507 483.38 20.6507C486.161 20.6507 488.072 21.1774 489.312 22.2308C490.552 23.2842 491.172 24.9736 491.172 27.3189L489.632 26.8618C490.422 25.732 491.316 24.6774 492.302 23.7115C493.26 22.822 494.346 22.0785 495.523 21.5053C496.88 20.8583 498.369 20.5351 499.874 20.5613C501.62 20.5438 503.36 20.7849 505.035 21.2768C506.591 21.7556 508.05 22.5023 509.346 23.483C510.67 24.5058 511.815 25.7379 512.737 27.1301C513.582 26.1734 514.491 25.2737 515.457 24.437C516.698 23.3508 518.085 22.4411 519.578 21.7339C521.263 20.9328 523.112 20.5314 524.979 20.5613C528.227 20.4675 531.418 21.4153 534.081 23.2643C536.728 25.2505 538.717 27.9776 539.792 31.0953C541.204 35.0867 541.881 39.2977 541.793 43.5274V58.2055C541.795 59.5025 541.674 60.7967 541.433 62.0713C541.309 62.7014 541.06 63.3009 540.701 63.8348C540.343 64.3688 539.881 64.8266 539.342 65.1818C538.202 65.9868 536.232 66.3942 533.451 66.3942C530.67 66.3942 528.8 65.9769 527.65 65.1321C527.122 64.7656 526.674 64.2981 526.33 63.7572C525.987 63.2163 525.755 62.6127 525.649 61.9819C525.431 60.7014 525.324 59.4048 525.329 58.1061V43.3982C525.362 42.1962 525.193 40.9972 524.829 39.8505C524.566 39.0182 524.062 38.2818 523.379 37.7337C522.685 37.2282 521.838 36.9723 520.978 37.0083C520.103 36.9655 519.234 37.1872 518.488 37.6443C517.808 38.1226 517.326 38.8283 517.127 39.6318C516.818 40.8864 516.68 42.1767 516.717 43.4678V58.1459C516.72 59.4428 516.599 60.7371 516.357 62.0117C516.233 62.6418 515.985 63.2413 515.626 63.7752C515.267 64.3092 514.805 64.767 514.267 65.1222C513.127 65.9272 511.156 66.3346 508.376 66.3346C505.595 66.3346 503.725 65.9172 502.575 65.0725C502.047 64.7059 501.598 64.2385 501.255 63.6976C500.911 63.1567 500.68 62.5531 500.574 61.9222C500.356 60.6418 500.249 59.3451 500.254 58.0465V43.3982C500.283 42.1836 500.131 40.9714 499.804 39.8008C499.579 38.961 499.084 38.2175 498.394 37.684C497.656 37.204 496.784 36.9675 495.903 37.0083C495.412 36.9692 494.917 37.0292 494.45 37.1846C493.982 37.34 493.551 37.5876 493.183 37.9126C492.557 38.5571 492.133 39.3685 491.962 40.248C491.743 41.2838 491.636 42.3398 491.642 43.3982V58.3049C491.644 59.6018 491.524 60.8961 491.282 62.1707C491.163 62.7958 490.916 63.39 490.556 63.9165C490.197 64.4429 489.732 64.8905 489.192 65.2315C487.911 65.9868 485.911 66.3644 483.15 66.3644Z" fill="#5C2D15"/>
<path d="M555.476 16.298C552.755 16.298 550.821 15.8938 549.675 15.0856C549.145 14.7297 548.695 14.2703 548.351 13.7355C548.007 13.2006 547.777 12.6015 547.674 11.975C547.464 10.6937 547.36 9.39747 547.364 8.0993C547.358 6.78573 547.479 5.47462 547.724 4.18382C547.853 3.57414 548.104 2.99627 548.461 2.48426C548.818 1.97225 549.275 1.53645 549.805 1.20249C550.958 0.420724 552.892 0.0298462 555.606 0.0298462C558.32 0.0298462 560.24 0.433983 561.367 1.24225C562.411 1.98541 563.127 3.09919 563.367 4.35278C563.847 6.91124 563.847 9.53581 563.367 12.0943C563.253 12.7101 563.017 13.2975 562.674 13.8227C562.331 14.348 561.887 14.8008 561.367 15.1551C560.22 15.917 558.256 16.298 555.476 16.298ZM555.476 66.3644C552.755 66.3644 550.821 65.9603 549.675 65.152C549.145 64.7962 548.695 64.3368 548.351 63.8019C548.007 63.267 547.777 62.668 547.674 62.0415C547.464 60.7635 547.36 59.4706 547.364 58.1757V28.8195C547.361 27.5324 547.481 26.2479 547.724 24.9836C547.986 23.7314 548.733 22.632 549.805 21.9227C550.958 21.1211 552.892 20.717 555.606 20.7103C558.32 20.7037 560.24 21.1078 561.367 21.9227C562.411 22.6659 563.127 23.7797 563.367 25.0333C563.612 26.3442 563.733 27.6751 563.727 29.0084V58.2751C563.729 59.572 563.609 60.8663 563.367 62.1409C563.253 62.7567 563.017 63.3441 562.674 63.8693C562.331 64.3946 561.887 64.8473 561.367 65.2017C560.22 65.9835 558.256 66.371 555.476 66.3644Z" fill="#5C2D15"/>
</svg>
