<svg width="333" height="222" viewBox="0 0 333 222" fill="none" xmlns="http://www.w3.org/2000/svg">
<g clip-path="url(#clip0_63_9)">
<path d="M9.14826 74.0775C6.12846 74.0775 3.98567 73.6344 2.70892 72.7261C2.10738 72.3254 1.59294 71.808 1.19619 71.2047C0.799433 70.6014 0.528546 69.9245 0.399705 69.2144C0.133126 67.7747 -0.000643527 66.3137 4.17099e-05 64.8497V13.0497C-0.00271403 11.6039 0.131088 10.1611 0.399705 8.74044C0.53349 8.03805 0.806653 7.36943 1.20323 6.77396C1.59982 6.17849 2.11176 5.6682 2.70892 5.27307C3.98567 4.36468 6.16172 3.92157 9.24814 3.92157H29.2321C32.0501 3.96692 34.8398 4.49139 37.4811 5.47246C40.5347 6.56964 43.3773 8.18076 45.8855 10.2359C48.5803 12.4367 50.788 15.1715 52.3691 18.2674C54.1246 21.8222 54.9895 25.7491 54.8894 29.7108C54.9834 33.64 54.1185 37.5331 52.3691 41.0545C50.7958 44.1428 48.5864 46.8647 45.8855 49.0416C43.3675 51.0716 40.5269 52.6666 37.4811 53.7608C34.8055 54.743 31.9829 55.2673 29.1323 55.3117H18.4186V64.9494C18.4213 66.3952 18.2875 67.838 18.0189 69.2587C17.8809 69.9609 17.6047 70.6289 17.2064 71.224C16.8082 71.8192 16.2957 72.3297 15.6986 72.7261C14.4107 73.6344 12.2347 74.0775 9.14826 74.0775ZM18.4075 36.9446H29.2655C30.3031 36.9087 31.3259 36.6873 32.2852 36.291C33.4714 35.8336 34.5138 35.0688 35.305 34.0755C36.2482 32.797 36.7118 31.2289 36.6151 29.6443C36.6331 28.3199 36.2834 27.0163 35.6048 25.8779C34.9569 24.795 34.0389 23.8981 32.9402 23.2746C31.7883 22.6302 30.4861 22.3015 29.1656 22.3219H18.4186L18.4075 36.9446Z" fill="#5C2D15"/>
<path d="M68.3786 74.1883C65.3588 74.1883 63.2124 73.7341 61.9393 72.8258C61.3466 72.4247 60.8435 71.9058 60.4614 71.3014C60.0793 70.6971 59.8265 70.0205 59.7189 69.3141C59.4871 67.8708 59.3721 66.4112 59.3748 64.9494V32.2698C59.3679 30.8055 59.5018 29.3439 59.7744 27.9051C59.9166 27.225 60.1943 26.5804 60.591 26.0095C60.9877 25.4386 61.4952 24.9531 62.0836 24.5818C63.3604 23.7177 65.5032 23.2746 68.523 23.2746C71.5428 23.2746 73.5745 23.6845 74.8069 24.4821C75.8454 25.0706 76.6344 26.0154 77.0273 27.1407C77.2525 27.8602 77.3904 28.6041 77.4381 29.3563L75.8282 28.7581C76.7829 27.6541 77.8426 26.6449 78.9924 25.7449C80.1326 24.881 81.3834 24.1731 82.7116 23.6401C84.2622 23.0128 85.9237 22.7038 87.5967 22.7318C88.339 22.7455 89.0801 22.7973 89.8171 22.8869C90.7983 22.9992 91.7703 23.1806 92.7259 23.4297C93.7503 23.696 94.7329 24.1024 95.6458 24.6371C96.5359 25.1622 97.295 25.8819 97.8662 26.742C98.4583 27.707 98.7553 28.8235 98.721 29.9545C98.7974 32.9529 98.028 35.9123 96.5005 38.4955C95.9611 39.5401 95.1473 40.4187 94.146 41.0372C93.1448 41.6558 91.9937 41.9911 90.8162 42.0072C89.9022 42.0443 88.9873 41.9586 88.0962 41.7524C87.7045 41.6391 87.3307 41.4713 86.986 41.2539C86.7268 41.0705 86.4561 40.904 86.1755 40.7554C85.6504 40.5473 85.0849 40.4602 84.5213 40.5006C83.5879 40.4925 82.6579 40.6117 81.7569 40.8551C80.9553 41.0864 80.2028 41.4618 79.5364 41.9629C78.932 42.3954 78.4345 42.96 78.082 43.6135C77.7508 44.2499 77.5794 44.9569 77.5824 45.674V65.2485C77.5844 66.6979 77.4506 68.1444 77.1828 69.5689C77.0449 70.2638 76.7685 70.9239 76.3699 71.51C75.9713 72.0962 75.4585 72.5964 74.8623 72.9809C73.6633 73.7452 71.4873 74.1883 68.3786 74.1883Z" fill="#5C2D15"/>
<path d="M127.953 75.0856C124.747 75.0624 121.575 74.4308 118.605 73.2246C115.414 71.9741 112.468 70.1743 109.901 67.9072C107.241 65.5903 105.084 62.7555 103.562 59.5767C101.951 56.1744 101.142 52.4495 101.197 48.6872C101.17 45.1328 101.888 41.6122 103.306 38.3515C104.686 35.1873 106.648 32.3091 109.091 29.8659C111.527 27.4398 114.391 25.4832 117.539 24.0943C120.758 22.6831 124.238 21.9659 127.753 21.9895C132.487 21.928 137.147 23.1576 141.231 25.5455C145.213 27.8756 148.537 31.1766 150.89 35.1389C153.321 39.2013 154.573 43.8568 154.51 48.5875C154.584 52.4704 153.759 56.3181 152.101 59.8315C150.57 63.0053 148.414 65.8386 145.761 68.162C143.23 70.3879 140.314 72.137 137.157 73.3243C134.222 74.4649 131.103 75.0618 127.953 75.0856ZM127.753 56.7186C128.948 56.6768 130.124 56.4217 131.228 55.9653C132.578 55.4349 133.76 54.5508 134.648 53.4063C135.683 51.9816 136.197 50.2452 136.102 48.4878C136.13 46.974 135.746 45.4811 134.992 44.1674C134.295 42.9653 133.266 41.9886 132.028 41.3536C130.651 40.6647 129.126 40.3224 127.587 40.3566C126.177 40.3402 124.788 40.7038 123.568 41.409C122.356 42.1086 121.349 43.1132 120.648 44.3225C119.891 45.6151 119.507 47.0909 119.538 48.5875C119.449 50.3065 119.946 52.005 120.948 53.4063C121.801 54.5484 122.954 55.4338 124.278 55.9653C125.379 56.4308 126.558 56.6863 127.753 56.7186Z" fill="#5C2D15"/>
<path d="M180.666 73.9779C177.649 73.9752 174.673 73.2737 171.973 71.9285C169.158 70.5364 166.631 68.6272 164.524 66.3009C162.328 63.9004 160.573 61.133 159.339 58.1255C158.074 55.0692 157.425 51.7943 157.429 48.4878C157.433 45.2787 158.082 42.1029 159.339 39.1491C160.593 36.1687 162.367 33.4343 164.579 31.0734C166.716 28.7499 169.255 26.8287 172.073 25.4015C174.728 24.0237 177.674 23.2984 180.666 23.2857C183.588 23.2106 186.476 23.9223 189.026 25.3461C191.372 26.7186 193.367 28.6145 194.855 30.885C196.45 33.3524 197.624 36.0662 198.33 38.9165C199.104 41.9715 199.525 45.1047 199.585 48.2551C199.662 51.4464 199.323 54.6341 198.574 57.7377C197.896 60.6504 196.741 63.4315 195.155 65.9686C193.681 68.3468 191.665 70.3435 189.271 71.7955C186.66 73.3039 183.682 74.0595 180.666 73.9779ZM183.087 55.9099C184.331 55.9178 185.552 55.572 186.606 54.9129C187.675 54.2418 188.572 53.3315 189.226 52.2542C189.884 51.1803 190.229 49.9455 190.225 48.6872C190.244 47.419 189.913 46.17 189.271 45.0758C188.642 44.0089 187.761 43.1115 186.706 42.4614C185.586 41.7839 184.296 41.4381 182.987 41.4644C181.698 41.4468 180.429 41.7759 179.312 42.4171C178.219 43.0329 177.314 43.9325 176.692 45.0204C176.054 46.1369 175.725 47.4022 175.737 48.6872C175.737 49.9465 176.087 51.1812 176.747 52.2542C177.419 53.3518 178.354 54.2654 179.467 54.9129C180.561 55.5666 181.812 55.9112 183.087 55.9099ZM199.585 74.0776C197.502 74.2076 195.42 73.7953 193.545 72.8812C192.861 72.4566 192.269 71.8998 191.804 71.2434C191.338 70.5871 191.009 69.8444 190.836 69.0593V9.33862C190.833 7.89497 190.914 6.45237 191.08 5.01827C191.159 4.32889 191.384 3.66411 191.74 3.06815C192.096 2.4722 192.575 1.95874 193.145 1.56199C194.352 0.653606 196.465 0.199402 199.485 0.199402C202.571 0.199402 204.725 0.642541 205.968 1.50661C207.119 2.27843 207.918 3.47311 208.189 4.82997C208.462 6.26878 208.595 7.73035 208.589 9.19464V64.9494C208.591 66.3952 208.458 67.838 208.189 69.2587C207.935 70.6609 207.137 71.9067 205.968 72.7261C204.725 73.6344 202.605 74.0776 199.585 74.0776Z" fill="#5C2D15"/>
<path d="M237.51 73.9779C234.405 74.0039 231.333 73.3536 228.506 72.0725C225.724 70.8113 223.239 68.9808 221.212 66.6997C219.102 64.3389 217.463 61.598 216.382 58.624C215.217 55.407 214.638 52.0079 214.673 48.5875V32.2698C214.666 30.8055 214.8 29.3439 215.072 27.9051C215.214 27.2115 215.491 26.5528 215.89 25.9671C216.288 25.3814 216.799 24.8805 217.393 24.4931C218.658 23.5848 220.812 23.1306 223.832 23.1306C226.852 23.1306 229.072 23.5848 230.316 24.4931C231.483 25.3082 232.281 26.5504 232.536 27.9494C232.808 29.4108 232.942 30.8943 232.936 32.3806V48.6428C232.895 49.9965 233.189 51.3394 233.791 52.5533C234.349 53.6184 235.231 54.4794 236.311 55.0126C237.513 55.6077 238.844 55.9005 240.185 55.8656C241.515 55.8973 242.829 55.5884 244.005 54.9683C245.058 54.3784 245.927 53.5077 246.514 52.4536C247.148 51.2853 247.462 49.9709 247.424 48.6428V32.1258C247.417 30.6615 247.551 29.1999 247.824 27.7611C247.968 27.0806 248.248 26.4359 248.647 25.8651C249.045 25.2943 249.554 24.8089 250.144 24.4377C251.41 23.5737 253.564 23.1306 256.583 23.1306C259.603 23.1306 261.824 23.5848 263.067 24.4931C264.235 25.3082 265.033 26.5504 265.288 27.9494C265.555 29.374 265.689 30.8204 265.687 32.2698V65.2928C265.693 66.7094 265.559 68.123 265.288 69.5135C265.144 70.1931 264.866 70.8373 264.47 71.408C264.073 71.9788 263.566 72.4646 262.978 72.8368C261.702 73.7009 259.548 74.133 256.539 74.133C254.779 74.2083 253.02 73.9528 251.354 73.3796C250.298 73.02 249.371 72.3572 248.69 71.4743C248.186 70.7963 247.859 70.0048 247.735 69.1701C247.642 68.5204 247.59 67.8655 247.58 67.2093L249.289 67.7189C248.334 68.8663 247.275 69.9231 246.125 70.8761C244.986 71.7772 243.732 72.5223 242.395 73.0916C240.846 73.7223 239.182 74.0241 237.51 73.9779Z" fill="#5C2D15"/>
<path d="M315.37 57.6159C317.857 59.8314 319.182 61.9251 319.344 63.897C319.507 65.8689 318.397 68.1251 316.014 70.6656C314.697 72.1708 313.107 73.4147 311.328 74.3323C310.723 74.6114 310.064 74.7559 309.397 74.7559C308.73 74.7559 308.071 74.6114 307.465 74.3323C305.808 73.5074 304.282 72.4436 302.935 71.1751L290.556 59.6321V65.171C290.558 66.6204 290.424 68.0668 290.157 69.4913C290.031 70.1782 289.77 70.8334 289.389 71.4191C289.007 72.0047 288.514 72.5092 287.936 72.9033C286.693 73.7674 284.528 74.2105 281.453 74.2105C278.377 74.2105 276.279 73.7563 275.013 72.8479C274.426 72.4535 273.926 71.9434 273.545 71.3489C273.163 70.7545 272.907 70.0884 272.793 69.3916C272.556 67.9636 272.437 66.5186 272.438 65.0712V9.13922C272.431 7.67493 272.565 6.21336 272.837 4.77455C272.98 4.07982 273.258 3.4199 273.656 2.83254C274.054 2.24519 274.564 1.74191 275.157 1.3515C276.423 0.454193 278.577 0 281.597 0C284.617 0 286.737 0.454193 287.981 1.3515C289.146 2.1734 289.943 3.41799 290.201 4.81887C290.473 6.2802 290.607 7.76374 290.601 9.25001V36.9446L299.149 28.6141C300.45 27.2881 301.986 26.2139 303.679 25.4458C305.007 24.8831 306.5 24.8475 307.853 25.3461C309.547 26.0797 311.045 27.1989 312.228 28.6141C314.848 31.4168 316.103 33.6988 316.003 35.438C315.903 37.1772 314.648 39.2488 312.228 41.6638L304.079 48.7868L315.37 57.6159Z" fill="#5C2D15"/>
<path d="M15.6764 205.317C11.2355 205.317 8.14904 204.652 6.29497 203.345C5.42738 202.755 4.68618 201.998 4.11437 201.12C3.54256 200.241 3.15156 199.258 2.9643 198.227C2.57387 196.126 2.37701 193.994 2.37599 191.857V116.262C2.37442 114.151 2.57132 112.044 2.9643 109.97C3.15997 108.952 3.5549 107.983 4.12643 107.118C4.69796 106.254 5.43486 105.51 6.29497 104.929C8.15274 103.607 11.3281 102.95 15.8208 102.957C20.3135 102.965 23.4628 103.622 25.2688 104.929C27.0015 106.106 28.1985 107.917 28.5994 109.97C28.9964 112.092 29.1933 114.247 29.1877 116.406V136.59L54.7228 107.488C56.4999 105.423 58.6316 103.69 61.0179 102.37C62.8717 101.404 65.029 101.194 67.0353 101.783C69.6014 102.707 71.9109 104.226 73.7743 106.214C77.7859 109.826 79.8362 112.994 79.925 115.719C80.0138 118.444 78.404 121.565 75.0955 125.08L46.363 154.325L75.2288 183.128C78.8407 186.739 80.5244 189.981 80.2802 192.854C80.0359 195.727 77.9117 198.821 73.9075 202.137C71.7247 204.079 69.188 205.583 66.4357 206.569C65.4901 206.866 64.4923 206.962 63.5072 206.849C62.5221 206.737 61.5717 206.418 60.7181 205.915C58.4825 204.47 56.5018 202.665 54.8561 200.575L29.21 171.474V192.012C29.211 194.12 29.0139 196.223 28.6215 198.293C28.4284 199.313 28.0346 200.285 27.4629 201.152C26.8912 202.019 26.153 202.764 25.2908 203.345C23.3369 204.652 20.1617 205.317 15.6764 205.317Z" fill="#5C2D15"/>
<path d="M147.859 205.018C143.463 205.018 140.214 204.279 138.112 202.802C136.013 201.34 135.003 199.689 135.103 197.839H137.212C136.376 198.854 135.418 199.762 134.359 200.542C132.632 201.83 130.729 202.863 128.708 203.611C125.94 204.604 123.011 205.073 120.071 204.996C115.669 204.995 111.328 203.971 107.392 202.004C103.283 199.962 99.602 197.157 96.5449 193.74C93.3643 190.227 90.8107 186.195 88.9953 181.821C87.1452 177.4 86.2014 172.654 86.2197 167.863C86.2058 163.14 87.1499 158.464 88.9953 154.115C90.8223 149.772 93.4044 145.785 96.6225 142.339C99.7116 138.978 103.387 136.204 107.469 134.153C111.375 132.178 115.692 131.149 120.071 131.151C122.949 131.071 125.814 131.568 128.497 132.613C130.493 133.417 132.362 134.502 134.048 135.837C135.146 136.661 136.112 137.647 136.913 138.761H135.303C135.222 137.626 135.46 136.491 135.989 135.484C136.519 134.476 137.319 133.635 138.3 133.056C140.395 131.69 143.644 131.007 148.048 131.007C152.489 131.007 155.542 131.671 157.352 132.978C159.087 134.157 160.284 135.973 160.682 138.03C161.075 140.101 161.272 142.204 161.271 144.311V191.835C161.272 193.946 161.075 196.053 160.682 198.127C160.492 199.137 160.098 200.099 159.526 200.953C158.953 201.808 158.214 202.539 157.352 203.101C155.516 204.379 152.352 205.018 147.859 205.018ZM123.679 178.553C125.47 178.571 127.227 178.063 128.73 177.09C130.247 176.112 131.504 174.782 132.394 173.213C133.317 171.641 133.8 169.851 133.793 168.029C133.821 166.18 133.337 164.359 132.394 162.767C131.474 161.214 130.19 159.906 128.653 158.956C127.069 157.979 125.24 157.472 123.379 157.494C121.498 157.48 119.649 157.986 118.039 158.956C116.444 159.91 115.11 161.242 114.153 162.833C113.176 164.442 112.668 166.291 112.688 168.173C112.679 169.993 113.212 171.774 114.22 173.291C115.251 174.85 116.631 176.151 118.25 177.09C119.893 178.06 121.77 178.565 123.679 178.553Z" fill="#5C2D15"/>
<path d="M182.876 205.317C178.435 205.317 175.36 204.652 173.506 203.345C172.63 202.779 171.883 202.037 171.309 201.168C170.736 200.298 170.35 199.32 170.175 198.293C169.827 196.218 169.652 194.117 169.653 192.012V144.156C169.645 142.023 169.842 139.893 170.242 137.797C170.438 136.8 170.835 135.852 171.407 135.011C171.979 134.169 172.716 133.452 173.572 132.901C175.43 131.631 178.605 130.995 183.098 130.995C187.591 130.995 190.788 131.848 192.69 133.554C194.696 135.26 195.699 138.015 195.699 141.819L193.212 141.087C194.491 139.253 195.937 137.54 197.531 135.969C199.072 134.517 200.828 133.31 202.738 132.391C204.926 131.331 207.334 130.804 209.765 130.851C212.595 130.821 215.414 131.217 218.125 132.026C220.641 132.795 222.998 134.007 225.087 135.604C227.255 137.257 229.131 139.26 230.638 141.531C232.007 139.947 233.492 138.466 235.079 137.099C237.082 135.321 239.324 133.829 241.74 132.668C244.466 131.402 247.449 130.784 250.455 130.863C255.712 130.72 260.876 132.274 265.177 135.294C269.452 138.524 272.668 142.951 274.414 148.011C276.665 154.497 277.733 161.333 277.567 168.195V192.012C277.568 194.12 277.371 196.223 276.978 198.293C276.784 199.313 276.39 200.284 275.818 201.151C275.246 202.018 274.509 202.763 273.648 203.345C271.794 204.652 268.618 205.317 264.122 205.317C259.626 205.317 256.606 204.63 254.741 203.267C253.87 202.68 253.127 201.924 252.555 201.045C251.983 200.166 251.594 199.181 251.41 198.149C251.065 196.07 250.894 193.965 250.899 191.857V168.029C250.955 166.07 250.685 164.116 250.1 162.246C249.667 160.897 248.849 159.703 247.746 158.812C246.62 158.005 245.257 157.595 243.871 157.649C242.457 157.585 241.055 157.939 239.841 158.668C238.719 159.468 237.929 160.65 237.621 161.991C237.116 164.023 236.892 166.114 236.955 168.206V192.012C236.961 194.12 236.764 196.223 236.366 198.293C236.173 199.313 235.779 200.285 235.208 201.152C234.636 202.019 233.898 202.764 233.036 203.345C231.182 204.652 228.006 205.317 223.51 205.317C219.014 205.317 215.983 204.63 214.129 203.267C213.258 202.68 212.515 201.924 211.943 201.045C211.371 200.166 210.982 199.181 210.798 198.149C210.453 196.07 210.282 193.965 210.287 191.857V168.029C210.335 166.054 210.088 164.082 209.555 162.18C209.199 160.814 208.398 159.606 207.279 158.746C206.086 157.961 204.675 157.573 203.248 157.638C202.448 157.571 201.642 157.666 200.879 157.917C200.116 158.168 199.411 158.571 198.808 159.1C197.793 160.148 197.106 161.468 196.831 162.9C196.477 164.582 196.305 166.298 196.321 168.018V192.145C196.322 194.253 196.125 196.356 195.732 198.426C195.544 199.437 195.151 200.4 194.579 201.255C194.006 202.11 193.265 202.84 192.402 203.4C190.503 204.674 187.372 205.317 182.876 205.317Z" fill="#5C2D15"/>
<path d="M299.827 124.016C295.43 124.016 292.303 123.355 290.445 122.034C289.573 121.467 288.826 120.727 288.253 119.86C287.68 118.992 287.293 118.017 287.115 116.993C286.77 114.914 286.599 112.809 286.604 110.701C286.591 108.567 286.788 106.437 287.192 104.342C287.389 103.344 287.785 102.396 288.357 101.555C288.93 100.714 289.666 99.9963 290.523 99.4458C292.377 98.183 295.508 97.5404 299.904 97.5404C304.301 97.5404 307.398 98.2051 309.208 99.5233C310.068 100.104 310.805 100.848 311.377 101.713C311.948 102.577 312.343 103.546 312.539 104.564C313.323 108.718 313.323 112.983 312.539 117.137C312.348 118.147 311.954 119.109 311.382 119.963C310.81 120.818 310.07 121.549 309.208 122.111C307.465 123.374 304.323 124.016 299.827 124.016ZM299.827 205.317C295.386 205.317 292.299 204.652 290.445 203.345C289.573 202.775 288.828 202.033 288.255 201.164C287.682 200.295 287.294 199.318 287.115 198.293C286.77 196.217 286.599 194.117 286.604 192.012V144.378C286.595 142.292 286.792 140.21 287.192 138.163C287.391 137.157 287.788 136.2 288.359 135.349C288.931 134.497 289.666 133.766 290.523 133.2C292.373 131.878 295.5 131.217 299.904 131.217C304.308 131.217 307.409 131.878 309.208 133.2C310.068 133.78 310.805 134.524 311.377 135.389C311.948 136.254 312.343 137.223 312.539 138.24C312.936 140.363 313.133 142.518 313.127 144.677V192.201C313.155 194.291 312.988 196.379 312.627 198.437C312.437 199.448 312.043 200.409 311.471 201.264C310.899 202.118 310.159 202.849 309.297 203.411C307.465 204.674 304.323 205.317 299.827 205.317Z" fill="#5C2D15"/>
<path d="M239.675 49.1303C239.86 49.1449 240.045 49.1449 240.23 49.1303C240.417 49.1385 240.604 49.1199 240.785 49.0749C240.785 49.0749 240.785 48.8755 240.785 48.5542V32.1258C240.785 30.6053 240.9 29.087 241.129 27.5838C240.478 27.1158 239.778 26.7185 239.042 26.3985C239.042 26.4872 239.042 26.5758 239.042 26.6644C239.393 28.5309 239.567 30.4261 239.564 32.3251V48.5874C239.586 48.7711 239.623 48.9526 239.675 49.1303Z" fill="#5C2D15"/>
<path d="M183.198 48.1111H182.987C182.754 48.1111 182.676 48.1111 182.632 48.1775C182.558 48.2117 182.499 48.2705 182.465 48.3437C182.41 48.4495 182.387 48.5687 182.398 48.6872V48.809C182.495 48.9653 182.634 49.0918 182.798 49.1746C182.867 49.2312 182.953 49.2625 183.042 49.2632C183.23 49.1519 183.384 48.9909 183.486 48.7979V48.6872C183.497 48.6137 183.497 48.5391 183.486 48.4656C183.416 48.3287 183.318 48.208 183.198 48.1111Z" fill="#5C2D15"/>
<path d="M214.772 3.60031C215.13 5.45843 215.305 7.34692 215.294 9.23893V18.0015C217.488 17.0437 219.85 16.5279 222.244 16.4838C222.188 15.0258 222.021 13.5742 221.745 12.1413C221.14 9.07715 219.354 6.37226 216.771 4.60839C216.135 4.17434 215.458 3.80331 214.75 3.50061C214.753 3.53466 214.761 3.56816 214.772 3.60031Z" fill="#5C2D15"/>
<path d="M322.619 35.8147C322.42 39.271 320.554 42.7272 316.913 46.3608L316.591 46.6599L314.504 48.4877L319.511 52.376C319.63 52.466 319.745 52.5622 319.855 52.6641C320.945 53.6273 321.945 54.6878 322.841 55.8323L323.563 55.2009C323.678 55.1101 323.786 55.01 323.885 54.9018C327.527 51.2683 329.436 47.8231 329.592 44.3668C329.88 39.4925 326.572 35.3383 324.041 32.6575C323.221 31.7602 322.334 30.927 321.387 30.165C322.27 31.9141 322.694 33.8578 322.619 35.8147Z" fill="#5C2D15"/>
<path d="M296.662 3.57814C297.013 5.44465 297.188 7.33985 297.184 9.2389V21.5132C298.393 20.6144 299.709 19.8701 301.103 19.2976C302.085 18.9058 303.11 18.6343 304.156 18.4889V17.791C304.159 15.892 303.985 13.9969 303.635 12.1302C303.054 9.06749 301.307 6.34806 298.761 4.5419C298.088 4.06043 297.366 3.65193 296.607 3.32333C296.618 3.40088 296.651 3.46736 296.662 3.57814Z" fill="#5C2D15"/>
<path d="M94.5354 48.6871C94.5354 48.4877 94.5354 48.2883 94.5354 48.0889C93.3635 48.4322 92.1486 48.6075 90.9272 48.6096C89.3391 48.6622 87.752 48.4755 86.2197 48.0557C85.5621 47.8569 84.9231 47.6011 84.3102 47.2913V65.1488C84.3096 67.0073 84.1349 68.8617 83.7884 70.6877C83.4938 72.2399 82.8912 73.7176 82.0161 75.034C81.141 76.3505 80.011 77.4791 78.6925 78.3536C76.2167 80.0374 72.9526 80.8239 68.3896 80.8239C65.5866 80.9124 62.795 80.4299 60.1851 79.406C60.7992 82.3988 62.5445 85.0409 65.0589 86.7838C67.5125 88.5231 70.8876 89.365 75.3618 89.365C79.836 89.365 83.1333 88.5895 85.6646 86.8946C86.984 86.0237 88.1149 84.8975 88.9902 83.5827C89.8656 82.2678 90.4676 80.791 90.7606 79.2398C91.1066 77.4137 91.2813 75.5594 91.2824 73.7009V55.8434C91.8958 56.1494 92.5347 56.4014 93.1919 56.5967C93.9656 56.8315 94.762 56.9837 95.5678 57.0509C94.8694 54.318 94.5225 51.5075 94.5354 48.6871Z" fill="#5C2D15"/>
<path d="M52.6912 64.9494V51.8776C51.8661 52.7159 50.9912 53.5039 50.0711 54.2371C46.9754 56.7299 43.4811 58.6847 39.7348 60.0198C36.347 61.258 32.7733 61.9135 29.1656 61.9584H25.08V64.9494C25.0789 66.8079 24.9042 68.6622 24.5582 70.4883C23.9669 73.5934 22.1716 76.3402 19.5622 78.132C17.0753 79.8934 13.7668 80.7132 9.15941 80.7132C6.34075 80.8196 3.5309 80.3366 0.9104 79.2952C1.54729 82.2902 3.30667 84.9293 5.82874 86.673C8.31564 88.4455 11.5907 89.2653 16.1315 89.2653C20.6723 89.2653 24.0475 88.4455 26.5344 86.6841C29.142 84.8906 30.9369 82.1446 31.5304 79.0404C31.8758 77.2142 32.0504 75.3599 32.0522 73.5015V70.5216H36.1822C39.7898 70.4767 43.3637 69.8212 46.7515 68.5829C48.8415 67.8354 50.8533 66.8856 52.7578 65.747C52.7134 65.5033 52.6912 65.2153 52.6912 64.9494Z" fill="#5C2D15"/>
<path d="M332.956 71.8841C332.645 68.162 330.557 64.5728 326.783 61.2051L326.438 60.9281L325.173 59.9422C325.586 61.016 325.848 62.142 325.95 63.2877C326.283 67.2204 324.54 71.2305 320.776 75.1964C318.855 77.3555 316.528 79.117 313.926 80.3808C312.476 81.0251 310.907 81.3609 309.319 81.3668C307.718 81.3622 306.136 81.0186 304.678 80.3587C302.398 79.2638 300.298 77.8295 298.45 76.1048L295.696 73.5458C294.787 75.4483 293.394 77.0794 291.655 78.2761C289.202 79.9931 285.926 80.7907 281.341 80.7907C276.756 80.7907 273.492 79.9377 271.038 78.1985C270.281 77.6588 269.585 77.0385 268.962 76.3485C268.296 77.0552 267.551 77.6833 266.742 78.2207C264.277 79.9045 261.035 80.68 256.55 80.68C253.929 80.7662 251.316 80.3449 248.856 79.4392C248.085 79.1349 247.342 78.7643 246.636 78.3314C246.133 78.5899 245.622 78.8336 245.104 79.0626C242.681 80.0974 240.067 80.6144 237.432 80.5802C233.371 80.6032 229.352 79.7492 225.653 78.0767C222.046 76.4286 218.822 74.0522 216.182 71.0976C215.716 70.588 215.294 69.9898 214.861 69.4913C214.861 69.8126 214.761 70.1338 214.706 70.4662C214.11 73.5259 212.362 76.2415 209.821 78.0545C207.356 79.8491 204.07 80.68 199.507 80.68C196.314 80.8193 193.14 80.1323 190.292 78.6859C187.225 79.9852 183.92 80.6305 180.589 80.5802C176.547 80.5782 172.56 79.6417 168.942 77.844C165.391 76.0787 162.199 73.671 159.528 70.7431C158.236 69.3259 157.066 67.8029 156.03 66.1901C154.382 68.7749 152.371 71.1102 150.057 73.1249C146.93 75.8726 143.33 78.0342 139.433 79.5057C135.746 80.9342 131.83 81.6849 127.875 81.7213C123.834 81.6968 119.834 80.9112 116.085 79.406C112.208 77.8711 108.622 75.6869 105.482 72.9476C107.295 76.1523 109.637 79.0286 112.41 81.4554C115.557 84.2154 119.159 86.4117 123.057 87.947C126.805 89.4558 130.806 90.2451 134.847 90.2733C138.802 90.2316 142.717 89.4812 146.405 88.0578C150.3 86.5819 153.899 84.4208 157.03 81.677C159.338 79.6573 161.349 77.3226 163.003 74.7422C164.039 76.3577 165.213 77.881 166.511 79.2952C169.175 82.2228 172.365 84.6274 175.915 86.385C179.53 88.1911 183.518 89.1317 187.561 89.1323C190.893 89.1787 194.198 88.5297 197.264 87.2269C200.109 88.6825 203.285 89.3735 206.479 89.2321C211.053 89.2321 214.328 88.4012 216.793 86.5955C219.343 84.7914 221.094 82.0717 221.678 79.0072C221.678 78.6859 221.789 78.3647 221.833 78.0323C222.266 78.5862 222.688 79.1401 223.155 79.6497C225.794 82.601 229.019 84.9737 232.625 86.6177C236.322 88.298 240.342 89.1561 244.404 89.1323C247.04 89.1665 249.653 88.6495 252.076 87.6147C252.598 87.382 253.108 87.1383 253.608 86.8725C254.314 87.3068 255.057 87.6775 255.828 87.9803C258.286 88.8815 260.894 89.3027 263.511 89.221C267.952 89.221 271.283 88.4344 273.703 86.7506C274.509 86.2136 275.254 85.5895 275.923 84.8895C276.546 85.5795 277.242 86.1999 278 86.7395C280.453 88.4788 283.817 89.3207 288.302 89.3207C292.788 89.3207 296.163 88.5231 298.616 86.806C300.36 85.6148 301.755 83.9822 302.658 82.0757L305.411 84.6347C307.258 86.3606 309.358 87.7951 311.639 88.8886C313.095 89.5547 314.678 89.8986 316.28 89.8967C317.866 89.8895 319.434 89.5577 320.887 88.9219C323.489 87.658 325.816 85.8965 327.737 83.7374C331.501 79.8269 333.289 75.8168 332.956 71.8841Z" fill="#5C2D15"/>
<path d="M58.3199 15.1988C58.8244 16.1831 59.2694 17.1967 59.6522 18.2341C60.1371 17.9905 60.6378 17.7795 61.151 17.6027C60.128 16.3872 59.0146 15.2504 57.8203 14.2018C57.9535 14.5452 58.1422 14.8665 58.3199 15.1988Z" fill="#5C2D15"/>
<path d="M128.975 47.2359C128.556 47.0651 128.105 46.9857 127.654 47.0033C127.422 46.9872 127.191 47.0372 126.987 47.1473C126.755 47.282 126.563 47.4773 126.432 47.7123C126.302 47.9848 126.245 48.2863 126.266 48.5874C126.26 48.8664 126.286 49.1451 126.343 49.4183C126.462 49.5675 126.609 49.6917 126.776 49.7838C127.095 49.9247 127.431 50.0216 127.776 50.0719C128.157 50.0142 128.53 49.9101 128.886 49.7617C129.096 49.6737 129.28 49.5324 129.419 49.3518C129.48 49.0681 129.506 48.7778 129.497 48.4877C129.521 48.1598 129.471 47.8305 129.352 47.5239C129.252 47.4353 129.197 47.3578 128.975 47.2359Z" fill="#5C2D15"/>
<path d="M29.6095 29.0018C29.4681 28.9474 29.3166 28.9247 29.1655 28.9353H25.0798V30.2979H29.2654C29.2654 30.2979 29.4652 30.2979 29.9093 30.0874C29.9171 29.9361 29.9171 29.7845 29.9093 29.6332C29.9302 29.5272 29.9302 29.418 29.9093 29.312C29.8428 29.1809 29.7384 29.0728 29.6095 29.0018Z" fill="#5C2D15"/>
<path d="M86.5195 115.442C86.686 120.062 84.51 124.692 79.8582 129.6L55.6665 154.237L63.4381 161.991L86.8415 138.152C91.4822 133.255 93.6583 128.625 93.5028 123.994C93.3474 119.364 90.6274 114.744 85.2317 109.859L84.9651 109.626C85.899 111.43 86.4293 113.414 86.5195 115.442Z" fill="#5C2D15"/>
<path d="M279.976 144.067C279.976 143.358 279.976 142.649 280.054 141.952C279.383 141.239 278.675 140.563 277.933 139.924C278.696 141.264 279.378 142.647 279.976 144.067Z" fill="#5C2D15"/>
<path d="M35.0719 108.707C35.5438 111.239 35.778 113.809 35.7713 116.384V118.865L40.6564 113.326C39.569 111.269 38.0185 109.49 36.1266 108.131C35.6662 107.8 35.1841 107.5 34.6833 107.234C34.8399 107.717 34.9696 108.209 35.0719 108.707Z" fill="#5C2D15"/>
<path d="M121.669 171.363C122.29 171.732 123.001 171.92 123.723 171.906C124.234 171.922 124.737 171.783 125.166 171.507C125.793 171.106 126.309 170.553 126.665 169.901C127.007 169.337 127.184 168.688 127.176 168.029C127.204 167.373 127.042 166.723 126.71 166.157C126.335 165.515 125.804 164.978 125.166 164.595C124.644 164.274 124.037 164.116 123.423 164.14C122.754 164.122 122.094 164.299 121.525 164.65C120.853 165.049 120.292 165.608 119.893 166.278C119.548 166.849 119.374 167.507 119.393 168.173C119.384 168.698 119.539 169.213 119.837 169.646C120.308 170.351 120.935 170.938 121.669 171.363Z" fill="#5C2D15"/>
<path d="M204.225 199.235C203.822 196.796 203.621 194.329 203.626 191.857V168.029C203.653 166.887 203.548 165.746 203.315 164.628C203.115 165.75 203.019 166.889 203.026 168.029V192.156C203.031 194.68 202.793 197.199 202.316 199.678C201.961 201.547 201.234 203.326 200.178 204.909C199.121 206.493 197.757 207.848 196.165 208.895C193.101 210.989 188.882 211.964 182.843 211.964C176.803 211.964 172.651 210.856 169.609 208.762C167.857 207.53 166.389 205.94 165.301 204.098C164.228 205.852 162.798 207.361 161.104 208.529C158.074 210.645 153.855 211.631 147.782 211.631C141.986 211.631 137.579 210.523 134.315 208.308C133.231 208.856 132.119 209.348 130.984 209.781C127.432 211.085 123.666 211.713 119.882 211.631C114.457 211.625 109.106 210.367 104.25 207.953C99.389 205.539 95.0332 202.223 91.4158 198.183C89.7075 196.295 88.1554 194.272 86.775 192.134C86.775 192.533 86.775 192.943 86.775 193.342C86.3642 198.116 83.4444 202.636 78.0154 207.178L77.9265 207.255C75.0528 209.723 71.7223 211.605 68.1233 212.794C66.8176 213.174 65.4645 213.368 64.1043 213.37C61.6819 213.372 59.3038 212.721 57.2209 211.487C54.3414 209.683 51.7889 207.406 49.6715 204.752L35.727 188.933V191.935C35.7493 194.486 35.53 197.035 35.072 199.545C34.341 203.295 32.1644 206.608 29.0102 208.773C25.9238 210.989 21.6717 211.975 15.6876 211.975C10.6028 211.975 6.68367 211.188 3.75269 209.582C4.70597 212.732 6.70214 215.465 9.41479 217.336C12.4568 219.552 16.7866 220.538 22.6597 220.538C28.6993 220.538 32.9514 219.53 35.9823 217.336C39.1358 215.176 41.3128 211.866 42.0442 208.119C42.5116 205.636 42.7457 203.114 42.7437 200.587V197.596L56.688 213.415C58.8055 216.069 61.3581 218.346 64.2376 220.15C66.3205 221.384 68.6984 222.035 71.1209 222.033C72.4807 222.026 73.833 221.832 75.1399 221.457C78.7362 220.262 82.0657 218.38 84.9432 215.918L85.032 215.852C90.5165 211.31 93.3809 206.779 93.7917 202.005C93.7917 201.606 93.7917 201.207 93.7917 200.808C95.1722 202.943 96.7241 204.962 98.4323 206.846C102.047 210.889 106.403 214.206 111.267 216.616C116.12 219.038 121.472 220.301 126.898 220.305C130.683 220.387 134.448 219.759 138.001 218.455C139.189 217.979 140.221 217.491 141.331 216.982C144.595 219.197 149.003 220.305 154.798 220.305C160.827 220.305 165.046 219.319 168.121 217.192C169.817 216.027 171.247 214.517 172.318 212.761C173.402 214.606 174.871 216.196 176.625 217.425C179.667 219.64 183.997 220.626 189.87 220.626C195.743 220.626 200.084 219.663 203.193 217.569C204.783 216.52 206.147 215.165 207.203 213.582C208.26 211.999 208.987 210.22 209.344 208.352C209.349 208.264 209.349 208.175 209.344 208.086C206.606 205.863 204.784 202.713 204.225 199.235Z" fill="#5C2D15"/>
<path d="M320.177 136.324L319.966 136.18L320.077 136.102C323.216 133.956 325.379 130.659 326.094 126.93C327.027 121.951 327.027 116.843 326.094 111.864C325.381 108.159 323.261 104.873 320.177 102.692C319.714 102.364 319.232 102.065 318.734 101.794C318.89 102.293 319.02 102.799 319.122 103.312C320.055 108.291 320.055 113.399 319.122 118.378C318.772 120.226 318.061 121.988 317.029 123.562C315.996 125.136 314.663 126.491 313.105 127.55L312.994 127.628L313.205 127.783C316.287 129.962 318.407 133.244 319.122 136.944C319.595 139.48 319.829 142.054 319.822 144.632V192.156C319.824 194.68 319.59 197.198 319.122 199.678C318.772 201.527 318.061 203.288 317.029 204.862C315.996 206.436 314.663 207.791 313.105 208.851C310.074 210.978 305.855 211.963 299.782 211.963C293.709 211.963 289.579 210.856 286.537 208.762C284.645 207.433 283.087 205.685 281.985 203.655C280.877 205.685 279.311 207.429 277.411 208.751C274.325 210.966 270.072 211.963 264.022 211.963C259.004 211.963 255.14 211.166 252.176 209.549C253.131 212.631 255.083 215.311 257.727 217.17C260.78 219.386 265.143 220.493 271.05 220.493C276.956 220.493 281.352 219.485 284.439 217.292C286.339 215.97 287.905 214.226 289.013 212.196C290.113 214.228 291.676 215.973 293.576 217.292C296.607 219.508 300.937 220.493 306.81 220.493C312.683 220.493 317.057 219.507 320.132 217.392C323.272 215.245 325.434 211.949 326.15 208.219C326.618 205.735 326.852 203.213 326.849 200.686V153.162C326.856 150.587 326.622 148.017 326.15 145.485C325.42 141.776 323.28 138.493 320.177 136.324Z" fill="#5C2D15"/>
<path d="M244.826 199.235C244.419 196.797 244.214 194.329 244.215 191.857V168.029C244.261 166.879 244.133 165.729 243.838 164.617C243.673 165.795 243.598 166.983 243.616 168.173V192.012C243.619 194.536 243.384 197.054 242.916 199.534C242.189 203.282 240.017 206.596 236.866 208.762C233.768 210.978 229.516 211.963 223.476 211.963C218.447 211.963 214.595 211.166 211.619 209.548C212.583 212.627 214.533 215.305 217.17 217.17C220.235 219.386 224.587 220.493 230.493 220.493C236.4 220.493 240.796 219.485 243.882 217.292C247.033 215.13 249.206 211.82 249.933 208.075C249.933 208.075 249.933 207.987 249.933 207.942C247.227 205.756 245.411 202.66 244.826 199.235Z" fill="#5C2D15"/>
<path d="M9.14826 74.0775C6.12846 74.0775 3.98567 73.6344 2.70892 72.7261C2.10738 72.3254 1.59294 71.808 1.19619 71.2047C0.799433 70.6014 0.528546 69.9245 0.399705 69.2144C0.133126 67.7747 -0.000643527 66.3137 4.17099e-05 64.8497V13.0497C-0.00271403 11.6039 0.131088 10.1611 0.399705 8.74044C0.53349 8.03805 0.806653 7.36943 1.20323 6.77396C1.59982 6.17849 2.11176 5.6682 2.70892 5.27307C3.98567 4.36468 6.16172 3.92157 9.24814 3.92157H29.2321C32.0501 3.96692 34.8398 4.49139 37.4811 5.47246C40.5347 6.56964 43.3773 8.18076 45.8855 10.2359C48.5803 12.4367 50.788 15.1715 52.3691 18.2674C54.1246 21.8222 54.9895 25.7491 54.8894 29.7108C54.9834 33.64 54.1185 37.5331 52.3691 41.0545C50.7958 44.1428 48.5864 46.8647 45.8855 49.0416C43.3675 51.0716 40.5269 52.6666 37.4811 53.7608C34.8055 54.743 31.9829 55.2673 29.1323 55.3117H18.4186V64.9494C18.4213 66.3952 18.2875 67.838 18.0189 69.2587C17.8809 69.9609 17.6047 70.6289 17.2064 71.224C16.8082 71.8192 16.2957 72.3297 15.6986 72.7261C14.4107 73.6344 12.2347 74.0775 9.14826 74.0775ZM18.4075 36.9446H29.2655C30.3031 36.9087 31.3259 36.6873 32.2852 36.291C33.4714 35.8336 34.5138 35.0688 35.305 34.0755C36.2482 32.797 36.7118 31.2289 36.6151 29.6443C36.6331 28.3199 36.2834 27.0163 35.6048 25.8779C34.9569 24.795 34.0389 23.8981 32.9402 23.2746C31.7883 22.6302 30.4861 22.3015 29.1656 22.3219H18.4186L18.4075 36.9446Z" fill="#5C2D15"/>
<path d="M68.3786 74.1883C65.3588 74.1883 63.2124 73.7341 61.9393 72.8258C61.3466 72.4247 60.8435 71.9058 60.4614 71.3014C60.0793 70.6971 59.8265 70.0205 59.7189 69.3141C59.4871 67.8708 59.3721 66.4112 59.3748 64.9494V32.2698C59.3679 30.8055 59.5018 29.3439 59.7744 27.9051C59.9166 27.225 60.1943 26.5804 60.591 26.0095C60.9877 25.4386 61.4952 24.9531 62.0836 24.5818C63.3604 23.7177 65.5032 23.2746 68.523 23.2746C71.5428 23.2746 73.5745 23.6845 74.8069 24.4821C75.8454 25.0706 76.6344 26.0154 77.0273 27.1407C77.2525 27.8602 77.3904 28.6041 77.4381 29.3563L75.8282 28.7581C76.7829 27.6541 77.8426 26.6449 78.9924 25.7449C80.1326 24.881 81.3834 24.1731 82.7116 23.6401C84.2622 23.0128 85.9237 22.7038 87.5967 22.7318C88.339 22.7455 89.0801 22.7973 89.8171 22.8869C90.7983 22.9992 91.7703 23.1806 92.7259 23.4297C93.7503 23.696 94.7329 24.1024 95.6458 24.6371C96.5359 25.1622 97.295 25.8819 97.8662 26.742C98.4583 27.707 98.7553 28.8235 98.721 29.9545C98.7974 32.9529 98.028 35.9123 96.5005 38.4955C95.9611 39.5401 95.1473 40.4187 94.146 41.0372C93.1448 41.6558 91.9937 41.9911 90.8162 42.0072C89.9022 42.0443 88.9873 41.9586 88.0962 41.7524C87.7045 41.6391 87.3307 41.4713 86.986 41.2539C86.7268 41.0705 86.4561 40.904 86.1755 40.7554C85.6504 40.5473 85.0849 40.4602 84.5213 40.5006C83.5879 40.4925 82.6579 40.6117 81.7569 40.8551C80.9553 41.0864 80.2028 41.4618 79.5364 41.9629C78.932 42.3954 78.4345 42.96 78.082 43.6135C77.7508 44.2499 77.5794 44.9569 77.5824 45.674V65.2485C77.5844 66.6979 77.4506 68.1444 77.1828 69.5689C77.0449 70.2638 76.7685 70.9239 76.3699 71.51C75.9713 72.0962 75.4585 72.5964 74.8623 72.9809C73.6633 73.7452 71.4873 74.1883 68.3786 74.1883Z" fill="#5C2D15"/>
<path d="M127.953 75.0856C124.747 75.0624 121.575 74.4308 118.605 73.2246C115.414 71.9741 112.468 70.1743 109.901 67.9072C107.241 65.5903 105.084 62.7555 103.562 59.5767C101.951 56.1744 101.142 52.4495 101.197 48.6872C101.17 45.1328 101.888 41.6122 103.306 38.3515C104.686 35.1873 106.648 32.3091 109.091 29.8659C111.527 27.4398 114.391 25.4832 117.539 24.0943C120.758 22.6831 124.238 21.9659 127.753 21.9895C132.487 21.928 137.147 23.1576 141.231 25.5455C145.213 27.8756 148.537 31.1766 150.89 35.1389C153.321 39.2013 154.573 43.8568 154.51 48.5875C154.584 52.4704 153.759 56.3181 152.101 59.8315C150.57 63.0053 148.414 65.8386 145.761 68.162C143.23 70.3879 140.314 72.137 137.157 73.3243C134.222 74.4649 131.103 75.0618 127.953 75.0856ZM127.753 56.7186C128.948 56.6768 130.124 56.4217 131.228 55.9653C132.578 55.4349 133.76 54.5508 134.648 53.4063C135.683 51.9816 136.197 50.2452 136.102 48.4878C136.13 46.974 135.746 45.4811 134.992 44.1674C134.295 42.9653 133.266 41.9886 132.028 41.3536C130.651 40.6647 129.126 40.3224 127.587 40.3566C126.177 40.3402 124.788 40.7038 123.568 41.409C122.356 42.1086 121.349 43.1132 120.648 44.3225C119.891 45.6151 119.507 47.0909 119.538 48.5875C119.449 50.3065 119.946 52.005 120.948 53.4063C121.801 54.5484 122.954 55.4338 124.278 55.9653C125.379 56.4308 126.558 56.6863 127.753 56.7186Z" fill="#5C2D15"/>
<path d="M180.666 73.9779C177.649 73.9752 174.673 73.2737 171.973 71.9285C169.158 70.5364 166.631 68.6272 164.524 66.3009C162.328 63.9004 160.573 61.133 159.339 58.1255C158.074 55.0692 157.425 51.7943 157.429 48.4878C157.433 45.2787 158.082 42.1029 159.339 39.1491C160.593 36.1687 162.367 33.4343 164.579 31.0734C166.716 28.7499 169.255 26.8287 172.073 25.4015C174.728 24.0237 177.674 23.2984 180.666 23.2857C183.588 23.2106 186.476 23.9223 189.026 25.3461C191.372 26.7186 193.367 28.6145 194.855 30.885C196.45 33.3524 197.624 36.0662 198.33 38.9165C199.104 41.9715 199.525 45.1047 199.585 48.2551C199.662 51.4464 199.323 54.6341 198.574 57.7377C197.896 60.6504 196.741 63.4315 195.155 65.9686C193.681 68.3468 191.665 70.3435 189.271 71.7955C186.66 73.3039 183.682 74.0595 180.666 73.9779ZM183.087 55.9099C184.331 55.9178 185.552 55.572 186.606 54.9129C187.675 54.2418 188.572 53.3315 189.226 52.2542C189.884 51.1803 190.229 49.9455 190.225 48.6872C190.244 47.419 189.913 46.17 189.271 45.0758C188.642 44.0089 187.761 43.1115 186.706 42.4614C185.586 41.7839 184.296 41.4381 182.987 41.4644C181.698 41.4468 180.429 41.7759 179.312 42.4171C178.219 43.0329 177.314 43.9325 176.692 45.0204C176.054 46.1369 175.725 47.4022 175.737 48.6872C175.737 49.9465 176.087 51.1812 176.747 52.2542C177.419 53.3518 178.354 54.2654 179.467 54.9129C180.561 55.5666 181.812 55.9112 183.087 55.9099ZM199.585 74.0776C197.502 74.2076 195.42 73.7953 193.545 72.8812C192.861 72.4566 192.269 71.8998 191.804 71.2434C191.338 70.5871 191.009 69.8444 190.836 69.0593V9.33862C190.833 7.89497 190.914 6.45237 191.08 5.01827C191.159 4.32889 191.384 3.66411 191.74 3.06815C192.096 2.4722 192.575 1.95874 193.145 1.56199C194.352 0.653606 196.465 0.199402 199.485 0.199402C202.571 0.199402 204.725 0.642541 205.968 1.50661C207.119 2.27843 207.918 3.47311 208.189 4.82997C208.462 6.26878 208.595 7.73035 208.589 9.19464V64.9494C208.591 66.3952 208.458 67.838 208.189 69.2587C207.935 70.6609 207.137 71.9067 205.968 72.7261C204.725 73.6344 202.605 74.0776 199.585 74.0776Z" fill="#5C2D15"/>
<path d="M237.51 73.9779C234.405 74.0039 231.333 73.3536 228.506 72.0725C225.724 70.8113 223.239 68.9808 221.212 66.6997C219.102 64.3389 217.463 61.598 216.382 58.624C215.217 55.407 214.638 52.0079 214.673 48.5875V32.2698C214.666 30.8055 214.8 29.3439 215.072 27.9051C215.214 27.2115 215.491 26.5528 215.89 25.9671C216.288 25.3814 216.799 24.8805 217.393 24.4931C218.658 23.5848 220.812 23.1306 223.832 23.1306C226.852 23.1306 229.072 23.5848 230.316 24.4931C231.483 25.3082 232.281 26.5504 232.536 27.9494C232.808 29.4108 232.942 30.8943 232.936 32.3806V48.6428C232.895 49.9965 233.189 51.3394 233.791 52.5533C234.349 53.6184 235.231 54.4794 236.311 55.0126C237.513 55.6077 238.844 55.9005 240.185 55.8656C241.515 55.8973 242.829 55.5884 244.005 54.9683C245.058 54.3784 245.927 53.5077 246.514 52.4536C247.148 51.2853 247.462 49.9709 247.424 48.6428V32.1258C247.417 30.6615 247.551 29.1999 247.824 27.7611C247.968 27.0806 248.248 26.4359 248.647 25.8651C249.045 25.2943 249.554 24.8089 250.144 24.4377C251.41 23.5737 253.564 23.1306 256.583 23.1306C259.603 23.1306 261.824 23.5848 263.067 24.4931C264.235 25.3082 265.033 26.5504 265.288 27.9494C265.555 29.374 265.689 30.8204 265.687 32.2698V65.2928C265.693 66.7094 265.559 68.123 265.288 69.5135C265.144 70.1931 264.866 70.8373 264.47 71.408C264.073 71.9788 263.566 72.4646 262.978 72.8368C261.702 73.7009 259.548 74.133 256.539 74.133C254.779 74.2083 253.02 73.9528 251.354 73.3796C250.298 73.02 249.371 72.3572 248.69 71.4743C248.186 70.7963 247.859 70.0048 247.735 69.1701C247.642 68.5204 247.59 67.8655 247.58 67.2093L249.289 67.7189C248.334 68.8663 247.275 69.9231 246.125 70.8761C244.986 71.7772 243.732 72.5223 242.395 73.0916C240.846 73.7223 239.182 74.0241 237.51 73.9779Z" fill="#5C2D15"/>
<path d="M315.37 57.6159C317.857 59.8314 319.182 61.9251 319.344 63.897C319.507 65.8689 318.397 68.1251 316.014 70.6656C314.697 72.1708 313.107 73.4147 311.328 74.3323C310.723 74.6114 310.064 74.7559 309.397 74.7559C308.73 74.7559 308.071 74.6114 307.465 74.3323C305.808 73.5074 304.282 72.4436 302.935 71.1751L290.556 59.6321V65.171C290.558 66.6204 290.424 68.0668 290.157 69.4913C290.031 70.1782 289.77 70.8334 289.389 71.4191C289.007 72.0047 288.514 72.5092 287.936 72.9033C286.693 73.7674 284.528 74.2105 281.453 74.2105C278.377 74.2105 276.279 73.7563 275.013 72.8479C274.426 72.4535 273.926 71.9434 273.545 71.3489C273.163 70.7545 272.907 70.0884 272.793 69.3916C272.556 67.9636 272.437 66.5186 272.438 65.0712V9.13922C272.431 7.67493 272.565 6.21336 272.837 4.77455C272.98 4.07982 273.258 3.4199 273.656 2.83254C274.054 2.24519 274.564 1.74191 275.157 1.3515C276.423 0.454193 278.577 0 281.597 0C284.617 0 286.737 0.454193 287.981 1.3515C289.146 2.1734 289.943 3.41799 290.201 4.81887C290.473 6.2802 290.607 7.76374 290.601 9.25001V36.9446L299.149 28.6141C300.45 27.2881 301.986 26.2139 303.679 25.4458C305.007 24.8831 306.5 24.8475 307.853 25.3461C309.547 26.0797 311.045 27.1989 312.228 28.6141C314.848 31.4168 316.103 33.6988 316.003 35.438C315.903 37.1772 314.648 39.2488 312.228 41.6638L304.079 48.7868L315.37 57.6159Z" fill="#5C2D15"/>
<path d="M15.6764 205.317C11.2355 205.317 8.14904 204.652 6.29497 203.345C5.42738 202.755 4.68618 201.998 4.11437 201.12C3.54256 200.241 3.15156 199.258 2.9643 198.227C2.57387 196.126 2.37701 193.994 2.37599 191.857V116.262C2.37442 114.151 2.57132 112.044 2.9643 109.97C3.15997 108.952 3.5549 107.983 4.12643 107.118C4.69796 106.254 5.43486 105.51 6.29497 104.929C8.15274 103.607 11.3281 102.95 15.8208 102.957C20.3135 102.965 23.4628 103.622 25.2688 104.929C27.0015 106.106 28.1985 107.917 28.5994 109.97C28.9964 112.092 29.1933 114.247 29.1877 116.406V136.59L54.7228 107.488C56.4999 105.423 58.6316 103.69 61.0179 102.37C62.8717 101.404 65.029 101.194 67.0353 101.783C69.6014 102.707 71.9109 104.226 73.7743 106.214C77.7859 109.826 79.8362 112.994 79.925 115.719C80.0138 118.444 78.404 121.565 75.0955 125.08L46.363 154.325L75.2288 183.128C78.8407 186.739 80.5244 189.981 80.2802 192.854C80.0359 195.727 77.9117 198.821 73.9075 202.137C71.7247 204.079 69.188 205.583 66.4357 206.569C65.4901 206.866 64.4923 206.962 63.5072 206.849C62.5221 206.737 61.5717 206.418 60.7181 205.915C58.4825 204.47 56.5018 202.665 54.8561 200.575L29.21 171.474V192.012C29.211 194.12 29.0139 196.223 28.6215 198.293C28.4284 199.313 28.0346 200.285 27.4629 201.152C26.8912 202.019 26.153 202.764 25.2908 203.345C23.3369 204.652 20.1617 205.317 15.6764 205.317Z" fill="#5C2D15"/>
<path d="M147.859 205.018C143.463 205.018 140.214 204.279 138.112 202.802C136.013 201.34 135.003 199.689 135.103 197.839H137.212C136.376 198.854 135.418 199.762 134.359 200.542C132.632 201.83 130.729 202.863 128.708 203.611C125.94 204.604 123.011 205.073 120.071 204.996C115.669 204.995 111.328 203.971 107.392 202.004C103.283 199.962 99.602 197.157 96.5449 193.74C93.3643 190.227 90.8107 186.195 88.9953 181.821C87.1452 177.4 86.2014 172.654 86.2197 167.863C86.2058 163.14 87.1499 158.464 88.9953 154.115C90.8223 149.772 93.4044 145.785 96.6225 142.339C99.7116 138.978 103.387 136.204 107.469 134.153C111.375 132.178 115.692 131.149 120.071 131.151C122.949 131.071 125.814 131.568 128.497 132.613C130.493 133.417 132.362 134.502 134.048 135.837C135.146 136.661 136.112 137.647 136.913 138.761H135.303C135.222 137.626 135.46 136.491 135.989 135.484C136.519 134.476 137.319 133.635 138.3 133.056C140.395 131.69 143.644 131.007 148.048 131.007C152.489 131.007 155.542 131.671 157.352 132.978C159.087 134.157 160.284 135.973 160.682 138.03C161.075 140.101 161.272 142.204 161.271 144.311V191.835C161.272 193.946 161.075 196.053 160.682 198.127C160.492 199.137 160.098 200.099 159.526 200.953C158.953 201.808 158.214 202.539 157.352 203.101C155.516 204.379 152.352 205.018 147.859 205.018ZM123.679 178.553C125.47 178.571 127.227 178.063 128.73 177.09C130.247 176.112 131.504 174.782 132.394 173.213C133.317 171.641 133.8 169.851 133.793 168.029C133.821 166.18 133.337 164.359 132.394 162.767C131.474 161.214 130.19 159.906 128.653 158.956C127.069 157.979 125.24 157.472 123.379 157.494C121.498 157.48 119.649 157.986 118.039 158.956C116.444 159.91 115.11 161.242 114.153 162.833C113.176 164.442 112.668 166.291 112.688 168.173C112.679 169.993 113.212 171.774 114.22 173.291C115.251 174.85 116.631 176.151 118.25 177.09C119.893 178.06 121.77 178.565 123.679 178.553Z" fill="#5C2D15"/>
<path d="M182.876 205.317C178.435 205.317 175.36 204.652 173.506 203.345C172.63 202.779 171.883 202.037 171.309 201.168C170.736 200.298 170.35 199.32 170.175 198.293C169.827 196.218 169.652 194.117 169.653 192.012V144.156C169.645 142.023 169.842 139.893 170.242 137.797C170.438 136.8 170.835 135.852 171.407 135.011C171.979 134.169 172.716 133.452 173.572 132.901C175.43 131.631 178.605 130.995 183.098 130.995C187.591 130.995 190.788 131.848 192.69 133.554C194.696 135.26 195.699 138.015 195.699 141.819L193.212 141.087C194.491 139.253 195.937 137.54 197.531 135.969C199.072 134.517 200.828 133.31 202.738 132.391C204.926 131.331 207.334 130.804 209.765 130.851C212.595 130.821 215.414 131.217 218.125 132.026C220.641 132.795 222.998 134.007 225.087 135.604C227.255 137.257 229.131 139.26 230.638 141.531C232.007 139.947 233.492 138.466 235.079 137.099C237.082 135.321 239.324 133.829 241.74 132.668C244.466 131.402 247.449 130.784 250.455 130.863C255.712 130.72 260.876 132.274 265.177 135.294C269.452 138.524 272.668 142.951 274.414 148.011C276.665 154.497 277.733 161.333 277.567 168.195V192.012C277.568 194.12 277.371 196.223 276.978 198.293C276.784 199.313 276.39 200.284 275.818 201.151C275.246 202.018 274.509 202.763 273.648 203.345C271.794 204.652 268.618 205.317 264.122 205.317C259.626 205.317 256.606 204.63 254.741 203.267C253.87 202.68 253.127 201.924 252.555 201.045C251.983 200.166 251.594 199.181 251.41 198.149C251.065 196.07 250.894 193.965 250.899 191.857V168.029C250.955 166.07 250.685 164.116 250.1 162.246C249.667 160.897 248.849 159.703 247.746 158.812C246.62 158.005 245.257 157.595 243.871 157.649C242.457 157.585 241.055 157.939 239.841 158.668C238.719 159.468 237.929 160.65 237.621 161.991C237.116 164.023 236.892 166.114 236.955 168.206V192.012C236.961 194.12 236.764 196.223 236.366 198.293C236.173 199.313 235.779 200.285 235.208 201.152C234.636 202.019 233.898 202.764 233.036 203.345C231.182 204.652 228.006 205.317 223.51 205.317C219.014 205.317 215.983 204.63 214.129 203.267C213.258 202.68 212.515 201.924 211.943 201.045C211.371 200.166 210.982 199.181 210.798 198.149C210.453 196.07 210.282 193.965 210.287 191.857V168.029C210.335 166.054 210.088 164.082 209.555 162.18C209.199 160.814 208.398 159.606 207.279 158.746C206.086 157.961 204.675 157.573 203.248 157.638C202.448 157.571 201.642 157.666 200.879 157.917C200.116 158.168 199.411 158.571 198.808 159.1C197.793 160.148 197.106 161.468 196.831 162.9C196.477 164.582 196.305 166.298 196.321 168.018V192.145C196.322 194.253 196.125 196.356 195.732 198.426C195.544 199.437 195.151 200.4 194.579 201.255C194.006 202.11 193.265 202.84 192.402 203.4C190.503 204.674 187.372 205.317 182.876 205.317Z" fill="#5C2D15"/>
<path d="M299.827 124.016C295.43 124.016 292.303 123.355 290.445 122.034C289.573 121.467 288.826 120.727 288.253 119.86C287.68 118.992 287.293 118.017 287.115 116.993C286.77 114.914 286.599 112.809 286.604 110.701C286.591 108.567 286.788 106.437 287.192 104.342C287.389 103.344 287.785 102.396 288.357 101.555C288.93 100.714 289.666 99.9963 290.523 99.4458C292.377 98.183 295.508 97.5404 299.904 97.5404C304.301 97.5404 307.398 98.2051 309.208 99.5233C310.068 100.104 310.805 100.848 311.377 101.713C311.948 102.577 312.343 103.546 312.539 104.564C313.323 108.718 313.323 112.983 312.539 117.137C312.348 118.147 311.954 119.109 311.382 119.963C310.81 120.818 310.07 121.549 309.208 122.111C307.465 123.374 304.323 124.016 299.827 124.016ZM299.827 205.317C295.386 205.317 292.299 204.652 290.445 203.345C289.573 202.775 288.828 202.033 288.255 201.164C287.682 200.295 287.294 199.318 287.115 198.293C286.77 196.217 286.599 194.117 286.604 192.012V144.378C286.595 142.292 286.792 140.21 287.192 138.163C287.391 137.157 287.788 136.2 288.359 135.349C288.931 134.497 289.666 133.766 290.523 133.2C292.373 131.878 295.5 131.217 299.904 131.217C304.308 131.217 307.409 131.878 309.208 133.2C310.068 133.78 310.805 134.524 311.377 135.389C311.948 136.254 312.343 137.223 312.539 138.24C312.936 140.363 313.133 142.518 313.127 144.677V192.201C313.155 194.291 312.988 196.379 312.627 198.437C312.437 199.448 312.043 200.409 311.471 201.264C310.899 202.118 310.159 202.849 309.297 203.411C307.465 204.674 304.323 205.317 299.827 205.317Z" fill="#5C2D15"/>
</g>
<defs>
<clipPath id="clip0_63_9">
<rect width="333" height="222" fill="white"/>
</clipPath>
</defs>
</svg>
