<svg width="148" height="148" viewBox="0 0 148 148" fill="none" xmlns="http://www.w3.org/2000/svg">
<g clip-path="url(#clip0_5_30)">
<path d="M28 60.3534C28.4126 59.1688 28.336 57.8658 28.4952 56.622C29.5215 48.3277 31.7602 40.2309 35.139 32.5932C35.7992 31.1066 37.0608 30.6505 38.676 31.2665C44.7763 33.6186 50.5749 36.6946 55.9487 40.4291C62.7988 45.1673 68.8295 50.7288 73.4218 57.7592C77.2272 63.5996 79.6474 70.2398 80.4959 77.1682C81.8636 87.7522 80.2778 98.0224 77.1829 108.121C76.3597 110.822 75.3874 113.476 74.2707 116.069L71.4882 109.317C63.9543 91.0552 56.4262 72.7932 48.904 54.5313C48.7777 54.1239 48.5639 53.7493 48.2776 53.4341C47.9914 53.1189 47.6397 52.8707 47.2475 52.707C46.7961 52.5221 46.2993 52.4797 45.8232 52.5855C45.3472 52.6913 44.9146 52.9403 44.5829 53.2993C44.2014 53.6481 43.9391 54.1089 43.8333 54.6161C43.7274 55.1233 43.7835 55.6511 43.9934 56.1245C44.6714 57.8066 45.3788 59.4768 46.0744 61.1529L69.1773 117.194C69.2657 117.42 69.3483 117.651 69.4839 118.006C67.6767 117.32 65.9058 116.541 64.1783 115.672C56.1255 111.692 48.7331 106.788 42.3958 100.332C35.1861 92.9998 30.3639 84.3999 28.7015 74.1416C28.4539 72.6313 28.3242 71.0973 28.112 69.5752C28.112 69.3975 28.2063 69.1606 27.9352 69.0658L28 60.3534Z" fill="#5C2D15"/>
<path d="M80.266 114.95C82.0719 110.157 83.4894 105.225 84.5046 100.202C85.2821 96.4726 85.7729 92.6886 85.9725 88.8835C86.0122 87.9749 86.2118 87.0806 86.562 86.2419C91.5414 74.1989 96.511 62.1559 101.471 50.1129C102.225 48.2827 101.435 46.6243 99.7022 46.2927C98.4819 46.0617 97.3972 46.7073 96.8431 48.034C95.1531 52.1128 93.4652 56.1976 91.7792 60.2882L85.8487 74.6688L85.548 75.3914C85.1767 73.6797 84.8642 72.0687 84.481 70.4814C82.81 63.6483 79.7225 57.2464 75.4203 51.6942C74.9781 51.102 75.0076 50.8354 75.4969 50.3261C81.8931 43.5741 89.4093 38.3916 97.6743 34.2457C99.8385 33.1353 102.062 32.1467 104.336 31.2843C106.104 30.6328 107.283 31.1244 108.05 32.8479C111.047 39.7195 113.128 46.9584 114.24 54.3773C114.967 59.1018 115.198 63.89 114.929 68.6631C114.414 78.9699 110.532 88.8185 103.882 96.6838C97.3972 104.443 89.3327 110.194 80.266 114.95Z" fill="#5C2D15"/>
</g>
<g filter="url(#filter0_d_5_30)">
<circle cx="74" cy="70" r="68.5" stroke="#5C2D15" stroke-width="3" shape-rendering="crispEdges"/>
</g>
<defs>
<filter id="filter0_d_5_30" x="0" y="0" width="148" height="148" filterUnits="userSpaceOnUse" color-interpolation-filters="sRGB">
<feFlood flood-opacity="0" result="BackgroundImageFix"/>
<feColorMatrix in="SourceAlpha" type="matrix" values="0 0 0 0 0 0 0 0 0 0 0 0 0 0 0 0 0 0 127 0" result="hardAlpha"/>
<feOffset dy="4"/>
<feGaussianBlur stdDeviation="2"/>
<feComposite in2="hardAlpha" operator="out"/>
<feColorMatrix type="matrix" values="0 0 0 0 0 0 0 0 0 0 0 0 0 0 0 0 0 0 0.25 0"/>
<feBlend mode="normal" in2="BackgroundImageFix" result="effect1_dropShadow_5_30"/>
<feBlend mode="normal" in="SourceGraphic" in2="effect1_dropShadow_5_30" result="shape"/>
</filter>
<clipPath id="clip0_5_30">
<rect width="87" height="87" fill="white" transform="translate(28 31)"/>
</clipPath>
</defs>
</svg>
