<svg width="452" height="157" viewBox="0 0 452 157" fill="none" xmlns="http://www.w3.org/2000/svg">
<g clip-path="url(#clip0_1_70)">
<path d="M139.617 27.0453L139.291 26.7559C139.372 26.9096 139.436 27.0634 139.517 27.2171C139.547 27.1579 139.58 27.1005 139.617 27.0453Z" fill="#5C2D15"/>
<path d="M163.549 37.905C163.404 37.8284 163.24 37.7969 163.078 37.8145C162.876 37.8097 162.677 37.8664 162.507 37.9773C162.264 38.1284 162.064 38.3404 161.928 38.5922C161.825 38.7666 161.78 38.9694 161.801 39.1709C161.796 39.2765 161.832 39.3799 161.901 39.4602C162.092 39.7336 162.347 39.9569 162.643 40.1113C162.85 40.2284 163.085 40.2848 163.322 40.274C163.422 40.278 163.521 40.2494 163.603 40.1927C163.825 40.037 164.006 39.8289 164.128 39.5868C164.227 39.4105 164.274 39.2099 164.264 39.0081C164.279 38.8104 164.228 38.6135 164.119 38.4475C163.978 38.2211 163.782 38.0343 163.549 37.905Z" fill="#5C2D15"/>
<path d="M68.3551 40.8347C68.2113 40.7564 68.0468 40.7248 67.8842 40.7442C67.6819 40.7394 67.4829 40.7961 67.3138 40.907C67.0678 41.0589 66.8675 41.2745 66.7343 41.5309C66.6301 41.7016 66.5855 41.9019 66.6075 42.1006C66.603 42.2088 66.6385 42.315 66.7071 42.399C66.8993 42.6695 67.154 42.8897 67.4496 43.041C67.6545 43.162 67.8911 43.2187 68.1287 43.2037C68.1786 43.2104 68.2293 43.2066 68.2776 43.1926C68.326 43.1786 68.3708 43.1546 68.4094 43.1223C68.6314 42.9701 68.8119 42.765 68.9346 42.5256C69.0325 42.3489 69.0795 42.1486 69.0704 41.9469C69.085 41.7492 69.034 41.5522 68.9255 41.3862C68.7876 41.1552 68.5908 40.9648 68.3551 40.8347Z" fill="#5C2D15"/>
<path d="M211.766 36.5396C211.56 36.4321 211.327 36.3851 211.096 36.404C210.896 36.4004 210.701 36.4571 210.534 36.5667C210.316 36.6996 210.135 36.8865 210.009 37.1093C209.918 37.2845 209.88 37.4825 209.9 37.6789C209.907 37.8469 209.96 38.0097 210.054 38.1491C210.213 38.4076 210.434 38.6221 210.697 38.773C210.814 38.8521 210.955 38.8874 211.096 38.8725C211.295 38.8761 211.491 38.8193 211.657 38.7097C211.903 38.5554 212.106 38.3406 212.246 38.0858C212.337 37.9398 212.381 37.7694 212.372 37.5975C212.376 37.3648 212.313 37.1359 212.191 36.9375C212.092 36.7658 211.944 36.6273 211.766 36.5396Z" fill="#5C2D15"/>
<path d="M303.727 33.6913C303.522 33.5793 303.289 33.532 303.057 33.5557C302.857 33.5521 302.662 33.6088 302.495 33.7184C302.278 33.8485 302.097 34.0322 301.97 34.2519C301.881 34.4277 301.843 34.6252 301.862 34.8216C301.868 34.9895 301.921 35.1524 302.015 35.2918C302.177 35.5501 302.397 35.767 302.658 35.9247C302.777 35.9999 302.917 36.0347 303.057 36.0242C303.256 36.0278 303.452 35.971 303.618 35.8614C303.865 35.7039 304.068 35.486 304.207 35.2285C304.299 35.0863 304.343 34.9184 304.334 34.7492C304.338 34.5163 304.276 34.287 304.152 34.0892C304.058 33.9133 303.909 33.7734 303.727 33.6913Z" fill="#5C2D15"/>
<path d="M257.746 35.12C257.546 35.005 257.315 34.9545 257.085 34.9753C256.883 34.9704 256.684 35.0272 256.515 35.1381C256.298 35.2734 256.118 35.4596 255.99 35.6806C255.9 35.8563 255.862 36.0539 255.881 36.2502C255.888 36.4182 255.941 36.581 256.035 36.7204C256.197 36.9812 256.421 37.1984 256.687 37.3534C256.803 37.4266 256.94 37.4585 257.076 37.4438C257.274 37.4454 257.468 37.3922 257.638 37.2901C257.882 37.1297 258.084 36.9125 258.226 36.6571C258.318 36.5149 258.363 36.3471 258.353 36.1779C258.359 35.9448 258.296 35.715 258.172 35.5178C258.078 35.342 257.928 35.2021 257.746 35.12Z" fill="#5C2D15"/>
<path d="M113.439 2.73076C113.779 4.24899 113.973 5.79622 114.019 7.35133L114.245 14.6574C115.429 14.3535 116.645 14.1867 117.867 14.1601H118.772V13.3915C118.73 11.8397 118.539 10.2956 118.202 8.78C117.656 6.41161 116.22 4.34311 114.191 3.00202C113.973 2.85735 113.711 2.74884 113.475 2.62225L113.439 2.73076Z" fill="#5C2D15"/>
<path d="M277.413 52.7252C277.196 52.9783 277.006 53.2406 276.78 53.4847C274.628 55.8554 272.052 57.8029 269.183 59.2265C266.284 60.6731 263.104 61.4722 259.865 61.5684C258.798 61.6072 257.73 61.5679 256.669 61.4509L256.877 68.0517C257.058 69.6733 256.997 71.3128 256.696 72.9164C256.241 75.3161 254.871 77.4457 252.875 78.8572C250.955 80.2587 248.347 80.955 244.725 81.0725C242.109 81.2801 239.484 80.7902 237.119 79.6529C237.382 80.8396 237.881 81.9612 238.587 82.9509C239.294 83.9405 240.193 84.7778 241.23 85.4128C243.195 86.6696 245.875 87.2212 249.38 87.1127C252.884 87.0042 255.609 86.2989 257.529 84.9064C259.523 83.493 260.892 81.3643 261.35 78.9657C261.648 77.3585 261.706 75.7161 261.522 74.0919L261.323 67.5001C262.381 67.6129 263.446 67.6521 264.51 67.6177C267.753 67.5174 270.935 66.7152 273.837 65.2667C275.217 64.6001 276.533 63.807 277.767 62.8977L277.413 52.7252Z" fill="#5C2D15"/>
<path d="M19.8844 8.83425C20.2213 10.362 20.4123 11.9182 20.4549 13.4819L21.4962 46.9381L26.0236 46.8025L25.1363 19.5221C25.0868 17.9614 24.8928 16.4086 24.5568 14.8835C24.023 12.4955 22.5858 10.4059 20.5455 9.05127C20.3108 8.90934 20.069 8.77956 19.8211 8.66245C19.8367 8.7216 19.8579 8.77913 19.8844 8.83425Z" fill="#5C2D15"/>
<path d="M331.951 30.1106C330.569 27.1097 328.675 24.3714 326.355 22.0178L326.065 21.7556C326.5 22.5061 326.898 23.2746 327.26 24.0704C328.679 27.1509 329.464 30.4847 329.569 33.8739C329.673 37.2632 329.094 40.6388 327.867 43.8005C326.689 46.846 324.958 49.648 322.76 52.0651C320.607 54.4311 318.03 56.3753 315.163 57.7978C312.261 59.2446 309.079 60.0437 305.837 60.1398C304.77 60.177 303.702 60.1407 302.64 60.0313L302.849 66.623C303.03 68.2446 302.969 69.8841 302.667 71.4877C302.215 73.8884 300.844 76.019 298.846 77.4285C296.927 78.83 294.319 79.5263 290.697 79.6438C288.08 79.8515 285.456 79.3616 283.091 78.2242C283.353 79.4109 283.853 80.5326 284.559 81.5222C285.265 82.5119 286.164 83.3491 287.202 83.9841C289.167 85.241 291.847 85.7925 295.351 85.684C298.855 85.5755 301.581 84.8702 303.5 83.4777C305.499 82.0673 306.872 79.9377 307.331 77.537C307.629 75.9298 307.687 74.2874 307.503 72.6632L307.294 66.0715C308.356 66.1885 309.424 66.2278 310.491 66.189C313.733 66.0918 316.915 65.2927 319.817 63.8471C322.682 62.4211 325.256 60.4738 327.405 58.1053C329.605 55.6876 331.339 52.886 332.521 49.8407C333.744 46.6781 334.321 43.303 334.217 39.9144C334.112 36.5257 333.33 33.1923 331.915 30.1106H331.951Z" fill="#5C2D15"/>
<path d="M231.433 54.1448C231.216 54.398 231.025 54.6692 230.799 54.9134C228.646 57.2822 226.07 59.2294 223.202 60.6552C220.303 62.1007 217.124 62.8997 213.885 62.9971C212.818 63.0359 211.749 62.9966 210.688 62.8796L210.896 69.4713C211.078 71.0959 211.017 72.7384 210.715 74.3451C210.26 76.7447 208.89 78.8744 206.894 80.2858C204.975 81.6783 202.367 82.3836 198.745 82.4921C196.129 82.7026 193.504 82.2158 191.139 81.0815C191.402 82.2666 191.902 83.3865 192.608 84.3745C193.315 85.3625 194.213 86.1985 195.25 86.8324C197.215 88.0892 199.895 88.6408 203.399 88.5414C206.903 88.4419 209.629 87.7276 211.548 86.326C213.549 84.9169 214.922 82.7867 215.379 80.3853C215.677 78.7811 215.735 77.1417 215.551 75.5206L215.342 68.9288C216.404 69.0369 217.472 69.0761 218.539 69.0464C221.781 68.9415 224.962 68.1396 227.865 66.6954C229.219 66.0215 230.51 65.2287 231.723 64.3263L231.433 54.1448Z" fill="#5C2D15"/>
<path d="M185.914 70.5383L185.688 63.1056C183.877 64.2449 181.45 64.8508 178.127 64.9593C175.393 65.1703 172.652 64.6392 170.195 63.4221C169.742 63.6512 169.262 63.8772 168.755 64.1003C166.601 64.9681 164.305 65.4281 161.982 65.4566C158.678 65.5559 155.397 64.8905 152.393 63.5125C149.415 62.1434 146.723 60.2227 144.461 57.8521C143.99 57.3638 143.556 56.8484 143.121 56.333C143.067 56.975 143.003 57.6079 142.904 58.2319C142.516 60.6268 141.219 62.7804 139.282 64.2449C137.371 65.7279 134.754 66.4693 130.987 66.5869C128.329 66.8032 125.661 66.3003 123.264 65.1311C123.543 66.3369 124.063 67.4744 124.79 68.4762C125.518 69.478 126.44 70.3237 127.501 70.9633C129.484 72.193 132.165 72.7718 135.651 72.6361C139.399 72.5186 141.989 71.7771 143.945 70.2942C145.876 68.824 147.171 66.6731 147.567 64.2811C147.667 63.6572 147.73 63.0152 147.775 62.3732C148.21 62.8976 148.681 63.404 149.115 63.8923C151.38 66.264 154.074 68.1848 157.056 69.5527C160.054 70.9389 163.335 71.6047 166.636 71.4968C168.96 71.4771 171.258 71.0168 173.409 70.1405C173.926 69.9234 174.405 69.6974 174.858 69.4623C177.313 70.6845 180.056 71.2159 182.79 70.9995C183.835 70.9669 184.876 70.8612 185.905 70.683C185.923 70.674 185.923 70.5835 185.914 70.5383Z" fill="#5C2D15"/>
<path d="M118.519 59.0005C118.182 57.4513 117.991 55.8741 117.948 54.2895L117.514 40.4549C117.519 40.1457 117.464 39.8386 117.351 39.5506C117.215 39.424 117.07 39.3608 116.672 39.3698C116.179 39.3862 115.708 39.575 115.341 39.9033C115.233 39.988 115.13 40.0786 115.033 40.1746L115.486 54.5788C115.532 56.0916 115.435 57.6054 115.196 59.0999C115.011 60.3104 114.588 61.4724 113.951 62.5185C113.314 63.5646 112.475 64.4741 111.483 65.1944C109.591 66.614 106.956 67.3193 103.252 67.4369C99.549 67.5544 96.9141 66.9667 94.922 65.6284C94.1845 65.1183 93.5203 64.5099 92.948 63.82C92.4263 64.4994 91.8174 65.1074 91.1371 65.6284C89.2446 67.048 86.6096 67.7533 82.9062 67.8709C80.1715 68.0864 77.4296 67.5551 74.9741 66.3337C74.5214 66.5688 74.0415 66.7949 73.5344 67.0119C71.3934 67.8962 69.1052 68.3716 66.7886 68.4134C63.4838 68.5138 60.2009 67.8452 57.1995 66.4603C54.219 65.0945 51.5269 63.1733 49.2674 60.7998C49.1678 60.7094 49.0863 60.6009 48.9958 60.5015C48.8533 62.1605 48.3129 63.7608 47.4202 65.1672C46.1617 67.078 44.2172 68.4341 41.9873 68.9559C40.655 69.2582 39.2964 69.4308 37.9308 69.4714L9.46232 70.3756C6.81252 70.5874 4.15437 70.0846 1.76569 68.9198C2.33511 71.2707 3.78316 73.3152 5.81322 74.6344C7.79623 75.9456 10.5308 76.5333 14.1527 76.4429L42.6212 75.5387C43.9875 75.499 45.3464 75.3233 46.6778 75.0142C48.8877 74.4854 50.8118 73.1333 52.0563 71.2346C52.9519 69.8256 53.4954 68.2223 53.6409 66.5598L53.9035 66.8672C56.1679 69.2389 58.8627 71.1597 61.8446 72.5276C64.8448 73.9055 68.1238 74.5709 71.4246 74.4717C73.7475 74.4476 76.0451 73.9875 78.1977 73.1154C78.7138 72.8983 79.1937 72.6723 79.6465 72.4372C82.1029 73.6555 84.844 74.1867 87.5785 73.9744C91.3 73.8568 93.9169 73.1425 95.8003 71.7229C96.4832 71.2048 97.0925 70.5964 97.6113 69.9144C98.1864 70.6049 98.8536 71.2133 99.5943 71.7229C101.577 73.043 104.303 73.6217 107.925 73.5313C111.547 73.4409 114.263 72.6994 116.147 71.2798C117.137 70.5596 117.976 69.6514 118.614 68.6072C119.253 67.563 119.679 66.4032 119.868 65.1944C120.003 64.3138 120.088 63.4262 120.122 62.536C119.337 61.4872 118.791 60.2809 118.519 59.0005Z" fill="#5C2D15"/>
<path d="M9.35366 65.4747C6.80019 65.5561 4.98017 65.2306 3.92075 64.4981C3.39959 64.1823 2.94636 63.7662 2.58732 63.2742C2.22828 62.7822 1.97056 62.2239 1.82908 61.6318C1.56423 60.4217 1.41266 59.1897 1.37634 57.9516L0.00905503 14.0697C-0.0275342 12.8597 0.0482469 11.6489 0.235426 10.4528C0.31931 9.84023 0.528123 9.25134 0.848956 8.72255C1.16979 8.19376 1.59583 7.73631 2.10073 7.37846C3.15109 6.58274 4.98017 6.14268 7.58797 6.05829C10.1958 5.97389 12.0369 6.29942 13.1114 7.03485C14.1304 7.69403 14.8491 8.72675 15.1125 9.91028C15.3823 11.1317 15.5339 12.3762 15.5653 13.6266L16.7605 51.9927L37.5052 51.3508C38.5433 51.3128 39.5826 51.3673 40.611 51.5135C41.1166 51.5881 41.6012 51.7664 42.0345 52.0372C42.4677 52.308 42.8401 52.6653 43.1283 53.0868C43.8104 53.9971 44.1847 55.5584 44.2511 57.7707C44.3144 59.9228 44.0247 61.469 43.3456 62.4275C42.795 63.3267 41.9145 63.9757 40.8917 64.2359C39.8777 64.4674 38.8437 64.6006 37.804 64.6338L9.35366 65.4747Z" fill="#5C2D15"/>
<path d="M82.7794 63.0333C80.235 63.1056 78.3335 62.7439 77.093 61.9301C76.5675 61.6604 76.123 61.2564 75.8049 60.7592C75.4867 60.262 75.3063 59.6895 75.282 59.0999H76.4773C76.0134 59.7077 75.4715 60.2519 74.8655 60.7185C73.8921 61.5016 72.8091 62.1383 71.651 62.6083C70.0622 63.235 68.3701 63.5601 66.6618 63.5668C64.1088 63.646 61.5725 63.129 59.2549 62.0567C56.834 60.9478 54.6485 59.3854 52.8169 57.4543C50.9097 55.4724 49.357 53.1786 48.2261 50.6726C47.0675 48.1399 46.4331 45.3995 46.3608 42.616C46.2658 39.8753 46.7279 37.1439 47.7191 34.5865C48.7042 32.035 50.1292 29.6755 51.9296 27.6149C53.6655 25.6152 55.7444 23.9404 58.0688 22.6689C60.2966 21.4584 62.7776 20.7864 65.3126 20.7067C66.9788 20.6069 68.6479 20.8438 70.2204 21.4029C71.3942 21.8321 72.5009 22.4258 73.5073 23.1662C74.1535 23.6303 74.7298 24.1845 75.2186 24.8119H74.3131C74.2451 24.1543 74.3625 23.4909 74.6521 22.8965C74.9417 22.3021 75.392 21.8004 75.9521 21.4481C77.1473 20.6163 79.0217 20.1551 81.5661 20.0828C84.1105 20.0104 85.9305 20.3269 86.999 21.0593C88.0202 21.7121 88.74 22.7431 89.0001 23.9257C89.2674 25.1142 89.422 26.3252 89.4619 27.5426L90.3131 55.1214C90.3567 56.3465 90.2809 57.573 90.0867 58.7835C89.9962 59.3703 89.7894 59.9333 89.4785 60.4394C89.1675 60.9456 88.7586 61.3847 88.2757 61.7312C87.2314 62.5209 85.3993 62.9549 82.7794 63.0333ZM68.2917 48.1046C69.3277 48.0901 70.3373 47.776 71.1983 47.2004C72.0576 46.6025 72.7622 45.8091 73.2537 44.8856C73.7554 43.9532 74.0021 42.9053 73.9691 41.8474C73.9476 40.7744 73.6347 39.7274 73.0636 38.8182C72.5042 37.9324 71.7364 37.1967 70.827 36.6752C69.8901 36.1371 68.8191 35.8768 67.7393 35.9247C66.6498 35.9402 65.5851 36.2529 64.6607 36.829C63.757 37.4174 63.0085 38.2145 62.4785 39.1528C61.9426 40.1028 61.6824 41.183 61.7269 42.2724C61.7551 43.3311 62.0987 44.3574 62.7139 45.2201C63.3383 46.1101 64.1633 46.841 65.1225 47.3541C66.092 47.8726 67.184 48.1195 68.2826 48.0684L68.2917 48.1046Z" fill="#5C2D15"/>
<path d="M103.099 62.536C100.554 62.6083 98.725 62.2828 97.6656 61.5594C97.1512 61.2432 96.7073 60.8248 96.3615 60.3301C96.0157 59.8355 95.7754 59.2752 95.6554 58.684C95.419 57.4918 95.2827 56.2819 95.248 55.0671L93.7811 7.87577C93.735 6.63558 93.8109 5.39387 94.0075 4.16845C94.1068 3.5842 94.3232 3.02598 94.6437 2.52723C94.9642 2.02849 95.3823 1.59949 95.8728 1.26591C96.9231 0.500335 98.7341 0.0783562 101.306 -9.62894e-06C103.877 -0.0783755 105.688 0.247146 106.739 0.976551C107.747 1.62153 108.465 2.63337 108.74 3.79772C109.01 5.00676 109.162 6.23937 109.192 7.47791L109.672 22.9311C110.692 21.9604 111.822 21.1135 113.041 20.4083C114.562 19.5137 116.292 19.0336 118.057 19.0158C121.524 18.862 124.958 19.7468 127.918 21.5566C130.897 23.3932 133.351 25.9656 135.044 29.0255C136.888 32.3498 137.883 36.0765 137.942 39.8762L138.367 53.7921C138.412 55.0023 138.336 56.2138 138.141 57.409C137.947 58.5904 137.296 59.6486 136.33 60.3568C135.31 61.1525 133.499 61.5925 130.897 61.6769C128.407 61.7493 126.596 61.4418 125.464 60.7727C124.939 60.473 124.481 60.0674 124.121 59.5817C123.761 59.0961 123.506 58.5409 123.372 57.9515C123.101 56.6995 122.947 55.4252 122.911 54.1448L122.485 40.3102C122.483 39.2082 122.216 38.1227 121.706 37.1454C121.237 36.2967 120.537 35.5977 119.687 35.129C118.739 34.6256 117.671 34.394 116.599 34.4599C115.063 34.5063 113.586 35.0596 112.398 36.0332C111.253 36.8312 110.466 38.0451 110.207 39.415L110.677 54.6873C110.721 55.9125 110.645 57.1389 110.451 58.3494C110.361 58.9363 110.154 59.4993 109.843 60.0054C109.532 60.5116 109.123 60.9507 108.64 61.2972C107.56 62.0688 105.712 62.4817 103.099 62.536Z" fill="#5C2D15"/>
<path d="M177.973 60.0765C175.429 60.1579 173.527 59.7871 172.287 58.9824C171.76 58.7112 171.316 58.3055 170.998 57.8068C170.679 57.308 170.499 56.734 170.476 56.1431H171.671C171.205 56.7521 170.664 57.2991 170.059 57.7707C169.085 58.5507 168.002 59.1843 166.845 59.6515C165.257 60.2815 163.564 60.6067 161.855 60.61C159.302 60.6892 156.766 60.1721 154.449 59.0999C152.025 57.9947 149.839 56.4318 148.011 54.4974C146.101 52.5171 144.548 50.223 143.42 47.7158C142.26 45.1865 141.626 42.449 141.554 39.6682C141.458 36.9275 141.92 34.1957 142.913 31.6387C143.892 29.0844 145.318 26.724 147.123 24.6672C148.854 22.6623 150.934 20.9867 153.262 19.7211C155.49 18.5078 157.971 17.8327 160.506 17.7499C162.172 17.6545 163.841 17.8912 165.414 18.4461C166.592 18.8856 167.699 19.4949 168.701 20.2545C169.349 20.7167 169.925 21.2711 170.412 21.9002H169.507C169.441 21.243 169.559 20.5803 169.849 19.9863C170.138 19.3923 170.587 18.8904 171.146 18.5365C172.353 17.7046 174.224 17.2495 176.76 17.1712C179.295 17.0928 181.106 17.4183 182.193 18.1477C183.214 18.804 183.934 19.838 184.194 21.0231C184.459 22.2118 184.61 23.4228 184.647 24.64L185.507 52.2278C185.548 53.4379 185.472 54.6492 185.28 55.8447C185.191 56.4319 184.984 56.9952 184.673 57.5015C184.362 58.0078 183.953 58.4467 183.469 58.7925C182.419 59.5701 180.587 59.9981 177.973 60.0765ZM163.485 45.1478C164.523 45.1417 165.535 44.8269 166.392 44.2435C167.253 43.6481 167.958 42.8541 168.447 41.9287C168.95 40.9972 169.194 39.9481 169.154 38.8906C169.137 37.8169 168.823 36.7686 168.248 35.8614C167.684 34.9797 166.917 34.2451 166.012 33.7184C165.075 33.1803 164.004 32.92 162.924 32.9679C161.829 32.9932 160.763 33.3219 159.845 33.9174C158.94 34.4999 158.191 35.2945 157.663 36.2322C157.126 37.1849 156.866 38.2684 156.911 39.3608C156.94 40.4167 157.284 41.44 157.898 42.2995C158.523 43.1894 159.348 43.9204 160.307 44.4335C161.279 44.9536 162.375 45.2004 163.476 45.1478H163.485Z" fill="#5C2D15"/>
<path d="M198.6 77.6184C196.11 77.6907 194.308 77.3833 193.212 76.7142C192.71 76.4242 192.272 76.0336 191.928 75.5668C191.583 75.0999 191.339 74.567 191.211 74.0015C190.971 72.8312 190.835 71.6421 190.804 70.4479L189.373 24.3326C189.327 23.139 189.387 21.9437 189.554 20.7609C189.647 20.181 189.855 19.6254 190.166 19.1269C190.477 18.6285 190.885 18.1972 191.365 17.8584C192.388 17.0627 194.145 16.6196 196.644 16.5473C198.322 16.4416 200.004 16.6627 201.597 17.1983C202.824 17.6184 203.85 18.4789 204.477 19.6126L206.043 69.8602C206.192 71.064 206.159 72.2833 205.943 73.4771C205.711 74.6566 205.025 75.6984 204.033 76.3796C202.955 77.112 201.144 77.537 198.6 77.6184ZM213.731 58.1143C211.23 58.2543 208.736 57.7499 206.487 56.6495C204.43 55.5956 202.659 54.0599 201.326 52.1736C199.918 50.1788 198.87 47.9542 198.229 45.5999C197.511 43.0388 197.142 40.3927 197.133 37.7332C197.101 35.0675 197.374 32.4068 197.948 29.8031C198.466 27.3751 199.384 25.0498 200.665 22.922C201.861 20.9532 203.501 19.2905 205.455 18.0664C207.568 16.794 209.986 16.116 212.454 16.1042C214.984 16.0383 217.495 16.5713 219.779 17.6595C222.195 18.7954 224.388 20.3541 226.254 22.2619C228.181 24.2022 229.751 26.4675 230.89 28.9532C232.032 31.4386 232.664 34.1275 232.748 36.8609C232.832 39.5943 232.366 42.3168 231.379 44.8675C230.423 47.3583 229.011 49.6491 227.213 51.622C225.473 53.5474 223.384 55.1273 221.056 56.2788C218.779 57.4218 216.278 58.0486 213.731 58.1143ZM211.241 43.7553C212.335 43.7314 213.402 43.4026 214.319 42.8059C215.223 42.2208 215.971 41.4267 216.501 40.4911C217.03 39.5677 217.29 38.5157 217.253 37.4529C217.233 36.3654 216.921 35.3034 216.348 34.3785C215.791 33.4743 215.004 32.7345 214.066 32.2355C213.106 31.7269 212.027 31.4834 210.942 31.5302C209.852 31.5429 208.786 31.8558 207.863 32.4344C206.971 33.0039 206.237 33.7873 205.726 34.7131C205.206 35.6549 204.959 36.7224 205.011 37.7965C205.03 38.8556 205.344 39.8886 205.916 40.7804C206.493 41.677 207.275 42.424 208.198 42.9596C209.113 43.5146 210.171 43.7911 211.241 43.7553Z" fill="#5C2D15"/>
<path d="M244.581 76.1897C242.09 76.2711 240.289 75.9546 239.148 75.2855C238.644 74.9969 238.206 74.6066 237.861 74.1396C237.517 73.6725 237.273 73.139 237.147 72.5728C236.905 71.4027 236.769 70.2135 236.739 69.0193L235.308 22.904C235.262 21.7104 235.323 20.5151 235.489 19.3323C235.582 18.7523 235.79 18.1968 236.101 17.6983C236.412 17.1998 236.82 16.7685 237.3 16.4297C238.321 15.634 240.08 15.197 242.579 15.1186C244.257 15.0129 245.939 15.2341 247.532 15.7696C248.761 16.1911 249.788 17.0553 250.412 18.1929L251.978 68.4405C252.132 69.6441 252.099 70.8642 251.879 72.0574C251.65 73.2385 250.963 74.2816 249.968 74.96C248.936 75.6924 247.134 76.0993 244.581 76.1897ZM259.711 56.6947C257.21 56.8274 254.717 56.3201 252.467 55.2208C250.401 54.16 248.629 52.6072 247.306 50.6997C245.897 48.7058 244.849 46.481 244.209 44.126C243.491 41.5649 243.123 38.9188 243.114 36.2593C243.081 33.5965 243.355 30.9389 243.929 28.3383C244.439 25.9081 245.358 23.5817 246.645 21.4572C247.835 19.4842 249.473 17.8179 251.426 16.5925C253.541 15.3238 255.958 14.6461 258.425 14.6303C260.956 14.5645 263.466 15.0974 265.751 16.1856C268.165 17.3247 270.357 18.883 272.225 20.7881C274.153 22.7317 275.723 24.9999 276.861 27.4883C277.991 29.9517 278.608 32.6191 278.672 35.328C278.775 38.0838 278.313 40.8315 277.314 43.4026C276.35 45.8913 274.935 48.1811 273.14 50.1572C271.399 52.077 269.314 53.6535 266.991 54.8049C264.73 55.9537 262.246 56.5985 259.711 56.6947ZM257.221 42.3266C258.311 42.3163 259.377 42.0032 260.3 41.4224C261.207 40.8424 261.957 40.0472 262.482 39.1076C263.01 38.1837 263.273 37.1327 263.243 36.0694C263.217 34.9829 262.905 33.9222 262.337 32.995C261.778 32.0927 260.991 31.3535 260.055 30.852C259.095 30.3434 258.017 30.0999 256.931 30.1468C255.837 30.1706 254.77 30.4995 253.853 31.0962C252.96 31.6607 252.225 32.4414 251.716 33.3658C251.197 34.3079 250.949 35.3751 251 36.4492C251.019 37.5086 251.332 38.5419 251.906 39.4331C252.483 40.3298 253.265 41.0766 254.188 41.6123C255.107 42.1411 256.162 42.3894 257.221 42.3266Z" fill="#5C2D15"/>
<path d="M290.561 74.761C288.071 74.8424 286.269 74.5259 285.173 73.8568C284.671 73.566 284.235 73.1751 283.89 72.7084C283.546 72.2417 283.302 71.7093 283.172 71.1441C282.932 69.9709 282.795 68.7787 282.765 67.5815L281.334 21.4662C281.288 20.2726 281.349 19.0774 281.515 17.8946C281.608 17.3146 281.816 16.759 282.127 16.2606C282.438 15.7621 282.846 15.3308 283.326 14.992C284.346 14.1963 286.106 13.7592 288.605 13.6809C290.283 13.5777 291.966 13.8019 293.558 14.341C294.785 14.761 295.811 15.6215 296.438 16.7552L298.004 67.0028C298.154 68.2066 298.121 69.426 297.905 70.6197C297.674 71.8026 296.988 72.848 295.994 73.5313C294.916 74.2909 293.105 74.6887 290.561 74.761ZM305.692 55.3022C303.191 55.4349 300.697 54.9276 298.448 53.8283C296.389 52.7806 294.618 51.2474 293.287 49.3615C291.881 47.3656 290.833 45.1414 290.19 42.7878C289.473 40.2265 289.104 37.5805 289.094 34.921C289.061 32.2553 289.335 29.5946 289.909 26.991C290.425 24.5625 291.343 22.2369 292.626 20.1099C293.819 18.1365 295.46 16.4703 297.416 15.2452C299.53 13.9755 301.948 13.3006 304.415 13.2921C306.946 13.2175 309.458 13.7509 311.74 14.8473C314.154 15.9832 316.346 17.5385 318.215 19.4408C320.143 21.3844 321.712 23.6526 322.851 26.1411C323.993 28.6263 324.626 31.3153 324.71 34.0487C324.793 36.7822 324.328 39.5048 323.34 42.0554C322.382 44.5452 320.97 46.8356 319.174 48.8099C317.431 50.73 315.343 52.3064 313.017 53.4576C310.74 54.5993 308.239 55.2289 305.692 55.3022ZM303.202 40.9341C304.292 40.9242 305.358 40.6111 306.28 40.0299C307.184 39.4415 307.932 38.6444 308.463 37.7061C308.992 36.7831 309.252 35.7307 309.214 34.6679C309.192 33.5808 308.88 32.5193 308.309 31.5935C307.752 30.6918 306.964 29.955 306.027 29.4596C305.069 28.944 303.99 28.6972 302.903 28.7452C301.808 28.7676 300.741 29.0966 299.824 29.6946C298.934 30.2616 298.199 31.0417 297.687 31.9642C297.168 32.9064 296.921 33.9736 296.972 35.0476C296.99 36.107 297.304 37.1404 297.877 38.0316C298.454 38.9308 299.236 39.6808 300.159 40.2198C301.087 40.7343 302.143 40.9698 303.202 40.898V40.9341Z" fill="#5C2D15"/>
<path d="M49.2765 87.7728C48.6196 86.8677 47.7689 86.1202 46.7864 85.5846C47.0203 86.6689 47.1327 87.7759 47.1214 88.885C47.2535 91.0479 46.7127 93.1987 45.5731 95.0427C45.0399 95.8415 44.3502 96.524 43.5456 97.0493C42.741 97.5746 41.8383 97.9317 40.8917 98.099C39.8118 98.2821 38.7182 98.3728 37.6229 98.3703H31.9455V126.6C31.9452 127.866 31.8239 129.128 31.5833 130.371C31.1932 132.368 30.0279 134.129 28.3417 135.272C26.739 136.402 24.5477 136.926 21.46 136.926C19.2903 137.027 17.133 136.546 15.2122 135.534C15.5973 137.499 16.7424 139.234 18.3995 140.362C20.0112 141.502 22.2297 142.062 25.1906 142.062C28.1515 142.062 30.4696 141.538 32.0813 140.408C33.762 139.262 34.9233 137.501 35.3139 135.507C35.5545 134.264 35.6758 133.002 35.6761 131.736V103.506H41.3535C42.4489 103.509 43.5424 103.418 44.6223 103.235C45.5705 103.069 46.475 102.712 47.2812 102.187C48.0874 101.662 48.7785 100.978 49.3127 100.179C50.4448 98.3318 50.9821 96.1825 50.852 94.021C50.852 91.2631 50.354 89.2738 49.2765 87.7728Z" fill="#5C2D15"/>
<path d="M11.1194 98.3703H5.36952C4.25978 98.3712 3.15268 98.2622 2.06451 98.0447C1.34406 97.8858 0.651317 97.6207 0.00905514 97.2581C0.215565 98.3125 0.637887 99.3129 1.24957 100.197C2.32072 101.733 3.94108 102.801 5.777 103.181C6.86517 103.398 7.97227 103.507 9.08201 103.506H11.1012L11.1194 98.3703Z" fill="#5C2D15"/>
<path d="M180.952 113.959C180.833 113.895 180.698 113.866 180.563 113.878C180.397 113.868 180.233 113.909 180.092 113.995C179.884 114.113 179.711 114.285 179.594 114.493C179.5 114.634 179.456 114.802 179.467 114.972C179.466 115.06 179.495 115.146 179.549 115.216C179.697 115.448 179.903 115.638 180.146 115.767C180.314 115.873 180.509 115.926 180.708 115.921C180.749 115.927 180.791 115.924 180.832 115.913C180.872 115.902 180.91 115.883 180.943 115.858C181.13 115.74 181.283 115.574 181.387 115.379C181.479 115.236 181.527 115.069 181.523 114.899C181.538 114.735 181.5 114.57 181.414 114.429C181.306 114.233 181.147 114.07 180.952 113.959Z" fill="#5C2D15"/>
<path d="M63.4926 113.959C63.3765 113.895 63.2443 113.867 63.1123 113.878C62.9441 113.867 62.7766 113.908 62.6324 113.995C62.4241 114.113 62.2519 114.285 62.1344 114.493C62.0449 114.636 62.0007 114.803 62.0076 114.972C62.0069 115.06 62.0356 115.146 62.0891 115.216C62.2423 115.444 62.447 115.633 62.6867 115.768C62.8546 115.873 63.0499 115.926 63.2481 115.921C63.2896 115.927 63.3318 115.924 63.3722 115.913C63.4126 115.902 63.4504 115.883 63.4836 115.858C63.6729 115.742 63.8264 115.576 63.9272 115.379C64.0199 115.236 64.0673 115.069 64.0631 114.899C64.073 114.737 64.0385 114.574 63.9635 114.429C63.8499 114.234 63.6877 114.072 63.4926 113.959Z" fill="#5C2D15"/>
<path d="M143.492 114.077C143.325 113.979 143.133 113.932 142.94 113.941C142.774 113.934 142.609 113.978 142.469 114.068C142.281 114.165 142.126 114.316 142.025 114.502C141.939 114.643 141.901 114.807 141.917 114.972C141.916 115.11 141.957 115.246 142.034 115.361C142.16 115.581 142.337 115.767 142.551 115.903C142.646 115.969 142.761 116.001 142.876 115.994C143.042 116.003 143.206 115.962 143.347 115.876C143.555 115.75 143.728 115.577 143.854 115.37C143.93 115.251 143.971 115.113 143.972 114.972C143.981 114.779 143.934 114.587 143.836 114.42C143.761 114.272 143.64 114.152 143.492 114.077Z" fill="#5C2D15"/>
<path d="M104.819 130.172C104.582 128.926 104.464 127.66 104.466 126.392V114.899C104.484 114.61 104.441 114.321 104.339 114.049C104.088 113.901 103.795 113.84 103.506 113.878C103.245 113.862 102.985 113.909 102.745 114.013C102.653 114.049 102.576 114.116 102.528 114.203C102.44 114.424 102.403 114.662 102.419 114.899V126.455C102.421 127.727 102.303 128.995 102.066 130.244C101.877 131.243 101.493 132.195 100.935 133.045C100.377 133.895 99.657 134.627 98.8156 135.199C97.2129 136.329 95.0216 136.854 91.9339 136.854C88.8462 136.854 86.673 136.302 85.0613 135.154C84.4472 134.708 83.8986 134.178 83.4314 133.581C82.9644 134.17 82.4191 134.693 81.8106 135.136C80.1988 136.257 78.0166 136.782 74.9198 136.782C72.6471 136.891 70.3873 136.382 68.3822 135.308C68.0019 135.489 67.5945 135.66 67.1689 135.832C65.3587 136.5 63.4389 136.822 61.5096 136.782C58.7656 136.781 56.0594 136.144 53.6047 134.919C51.3533 133.794 49.3181 132.282 47.5923 130.452C48.5072 132.142 49.6163 133.72 50.8973 135.154C52.7149 137.182 54.903 138.845 57.3444 140.055C59.7958 141.279 62.4991 141.917 65.2402 141.918C67.1695 141.958 69.0893 141.636 70.8995 140.968C71.325 140.796 71.7325 140.625 72.1128 140.444C74.1209 141.518 76.3838 142.028 78.6595 141.918C81.7472 141.918 83.9294 141.393 85.5412 140.272C86.1497 139.829 86.695 139.306 87.162 138.717C87.6327 139.314 88.1843 139.844 88.8009 140.29C90.4127 141.438 92.6583 141.99 95.6645 141.99C98.6707 141.99 100.943 141.465 102.546 140.335C103.388 139.763 104.108 139.031 104.666 138.181C105.223 137.331 105.608 136.379 105.797 135.38C105.932 134.635 106.026 133.884 106.078 133.129C105.454 132.242 105.025 131.235 104.819 130.172Z" fill="#5C2D15"/>
<path d="M206.233 104.826C205.851 102.828 204.709 101.055 203.046 99.8803C202.865 99.7447 202.648 99.6543 202.457 99.5367C202.457 99.591 202.457 99.6362 202.503 99.6904C202.739 100.94 202.857 102.208 202.856 103.479V126.392C202.857 127.66 202.739 128.926 202.503 130.172C202.314 131.172 201.93 132.125 201.372 132.977C200.814 133.828 200.094 134.562 199.252 135.136C197.649 136.257 195.458 136.782 192.37 136.782C190.098 136.891 187.838 136.382 185.833 135.308C185.452 135.489 185.045 135.66 184.619 135.832C182.809 136.5 180.889 136.822 178.96 136.782C176.216 136.781 173.51 136.144 171.055 134.919C168.617 133.709 166.431 132.046 164.617 130.018C163.52 128.794 162.553 127.461 161.729 126.039C159.523 129.696 156.263 132.602 152.375 134.376C149.933 135.498 147.276 136.078 144.588 136.076C143.701 136.08 142.814 136.022 141.935 135.905V141.375C142.046 142.728 141.954 144.091 141.663 145.417C141.222 147.4 140.023 149.132 138.322 150.245C136.692 151.358 134.528 151.873 131.504 151.873C129.33 151.978 127.167 151.504 125.238 150.499C125.423 151.49 125.807 152.434 126.367 153.273C126.927 154.112 127.652 154.83 128.497 155.381C130.1 156.476 132.3 157.009 135.243 157.009C138.186 157.009 140.423 156.494 142.052 155.381C143.747 154.265 144.939 152.533 145.376 150.553C145.667 149.227 145.758 147.864 145.647 146.511V141.041C146.521 141.154 147.401 141.209 148.282 141.203C150.973 141.205 153.633 140.625 156.078 139.503C159.984 137.739 163.264 134.836 165.486 131.175C166.31 132.597 167.278 133.93 168.375 135.154C170.189 137.182 172.374 138.845 174.813 140.055C177.268 141.279 179.974 141.916 182.718 141.918C184.647 141.958 186.567 141.636 188.377 140.968C188.803 140.796 189.21 140.625 189.59 140.444C191.596 141.518 193.855 142.027 196.128 141.918C199.225 141.918 201.407 141.393 203.019 140.272C204.711 139.111 205.876 137.331 206.26 135.317C206.496 134.068 206.615 132.799 206.614 131.528V108.651C206.608 107.367 206.48 106.087 206.233 104.826Z" fill="#5C2D15"/>
<path d="M121.172 141.61V135.597C119.25 136.53 117.122 136.962 114.988 136.854C112.759 136.977 110.539 136.489 108.568 135.443C108.97 137.414 110.122 139.152 111.782 140.29C113.421 141.447 115.621 141.99 118.718 141.99C119.542 141.99 120.365 141.936 121.181 141.827C121.181 141.755 121.172 141.692 121.172 141.61Z" fill="#5C2D15"/>
<path d="M389.621 103.551C389.712 103.398 389.829 103.253 389.929 103.099C389.618 102.75 389.289 102.418 388.942 102.105C389.141 102.575 389.422 103.045 389.621 103.551Z" fill="#5C2D15"/>
<path d="M313.588 113.959C313.468 113.895 313.333 113.866 313.198 113.878C313.033 113.868 312.869 113.909 312.727 113.995C312.519 114.113 312.347 114.285 312.229 114.493C312.136 114.634 312.091 114.802 312.103 114.972C312.102 115.06 312.131 115.146 312.184 115.216C312.332 115.448 312.538 115.638 312.782 115.767C312.95 115.873 313.145 115.926 313.343 115.921C313.385 115.927 313.427 115.924 313.467 115.913C313.508 115.902 313.545 115.883 313.579 115.858C313.766 115.74 313.919 115.574 314.022 115.379C314.115 115.236 314.162 115.069 314.158 114.899C314.173 114.735 314.135 114.57 314.049 114.429C313.939 114.235 313.78 114.073 313.588 113.959Z" fill="#5C2D15"/>
<path d="M408.745 113.959C408.626 113.896 408.49 113.867 408.356 113.878C408.187 113.867 408.02 113.908 407.876 113.995C407.667 114.113 407.495 114.285 407.378 114.493C407.292 114.637 407.251 114.804 407.26 114.972C407.255 115.059 407.281 115.145 407.332 115.216C407.486 115.444 407.69 115.633 407.93 115.767C408.099 115.871 408.293 115.925 408.491 115.921C408.533 115.927 408.575 115.924 408.616 115.913C408.656 115.902 408.694 115.883 408.727 115.858C408.917 115.74 409.073 115.575 409.18 115.379C409.266 115.234 409.31 115.068 409.306 114.899C409.316 114.737 409.282 114.574 409.207 114.429C409.094 114.237 408.936 114.075 408.745 113.959Z" fill="#5C2D15"/>
<path d="M264.03 95.8837L264.338 95.5762C263.931 95.0608 263.505 94.5544 263.062 94.0662C263.397 94.6629 263.732 95.2688 264.03 95.8837Z" fill="#5C2D15"/>
<path d="M291.213 114.827C291.213 114.429 291.213 114.031 291.276 113.634C290.24 114.074 289.125 114.298 287.999 114.294C286.945 114.333 285.891 114.211 284.875 113.932C284.321 113.77 283.789 113.543 283.29 113.254C283.104 113.258 282.919 113.283 282.738 113.326V126.528C282.739 127.799 282.621 129.067 282.385 130.316C282.193 131.327 281.8 132.288 281.229 133.144C280.658 134 279.921 134.733 279.061 135.299C277.441 136.411 275.258 136.926 272.189 136.926C269.99 137.039 267.802 136.561 265.85 135.543C266.242 137.498 267.378 139.226 269.02 140.362C270.631 141.502 272.877 142.062 275.883 142.062C278.889 142.062 281.144 141.547 282.765 140.435C283.623 139.868 284.359 139.135 284.928 138.28C285.498 137.424 285.889 136.462 286.079 135.452C286.316 134.203 286.434 132.935 286.432 131.664V118.462C286.613 118.42 286.798 118.396 286.984 118.39C287.486 118.68 288.021 118.908 288.578 119.068C289.588 119.348 290.636 119.47 291.684 119.43C291.363 117.917 291.205 116.374 291.213 114.827Z" fill="#5C2D15"/>
<path d="M240.162 115.569V105.622H241.755C243.101 105.603 244.426 105.953 245.586 106.635C245.436 105.832 245.148 105.061 244.734 104.356C244.045 103.181 243.066 102.2 241.891 101.508C240.72 100.82 239.383 100.467 238.025 100.486H236.431V115.858H238.097C238.795 115.856 239.49 115.758 240.162 115.569Z" fill="#5C2D15"/>
<path d="M449.809 123.526C449.536 123.197 449.233 122.894 448.903 122.622C450.132 121.61 450.983 120.215 451.321 118.661C451.569 117.487 451.694 116.29 451.692 115.089V94.2922C451.69 93.0777 451.569 91.8663 451.33 90.6754C450.911 88.7025 449.725 86.976 448.034 85.8739C447.907 85.7926 447.744 85.7293 447.608 85.6479C447.839 86.8002 447.957 87.9721 447.962 89.1472V109.944C447.964 111.145 447.837 112.343 447.581 113.516C447.247 115.071 446.395 116.467 445.164 117.476C445.495 117.747 445.798 118.05 446.069 118.381C447.545 120.189 448.26 122.757 448.26 126.238C448.258 127.521 448.143 128.801 447.916 130.063C447.524 132.139 446.339 133.98 444.611 135.199C442.936 136.402 440.591 137.008 437.422 137.008C433.401 137.008 430.603 136.013 428.892 133.979C428.792 133.861 428.729 133.716 428.638 133.599C428.169 134.183 427.624 134.703 427.018 135.145C425.406 136.266 423.224 136.791 420.136 136.791C417.86 136.901 415.597 136.392 413.589 135.317C413.209 135.498 412.802 135.669 412.376 135.841C410.566 136.509 408.646 136.831 406.717 136.791C403.976 136.79 401.272 136.152 398.821 134.928C396.381 133.72 394.195 132.057 392.383 130.027C392.021 129.638 391.686 129.213 391.36 128.797C391.305 129.286 391.242 129.774 391.151 130.253C390.764 132.278 389.593 134.068 387.892 135.235C386.253 136.393 384.052 136.935 380.956 136.935C377.859 136.935 375.65 136.357 374.029 135.127C372.762 134.222 371.792 132.964 371.24 131.51C370.669 133.004 369.659 134.29 368.342 135.199C366.703 136.357 364.503 136.899 361.406 136.899C358.309 136.899 356.1 136.32 354.479 135.091C353.223 134.197 352.256 132.955 351.699 131.519C351.123 133.04 350.085 134.343 348.729 135.244C347.109 136.357 344.917 136.872 341.848 136.872C338.778 136.872 336.596 136.311 334.984 135.172C334.387 134.739 333.851 134.228 333.391 133.653C332.946 134.194 332.431 134.675 331.86 135.082C330.258 136.203 328.066 136.727 324.979 136.727C322.706 136.837 320.446 136.328 318.441 135.253C318.061 135.434 317.653 135.606 317.228 135.778C315.417 136.446 313.498 136.768 311.568 136.727C308.824 136.727 306.118 136.089 303.663 134.865C301.412 133.74 299.377 132.228 297.651 130.398C298.563 132.09 299.672 133.668 300.956 135.1C302.77 137.127 304.955 138.791 307.394 140.001C309.849 141.224 312.555 141.862 315.299 141.863C317.228 141.904 319.148 141.582 320.958 140.914C321.384 140.742 321.791 140.57 322.172 140.389C324.177 141.463 326.436 141.973 328.709 141.863C331.806 141.863 333.988 141.339 335.6 140.218C336.166 139.809 336.677 139.328 337.121 138.789C337.584 139.362 338.12 139.873 338.715 140.308C340.327 141.447 342.572 142.008 345.578 142.008C348.585 142.008 350.839 141.493 352.46 140.38C353.818 139.482 354.857 138.178 355.43 136.655C355.979 138.108 356.946 139.366 358.21 140.272C359.831 141.475 362.103 142.08 365.137 142.08C368.17 142.08 370.434 141.538 372.073 140.38C373.389 139.471 374.399 138.185 374.97 136.691C375.523 138.145 376.493 139.403 377.759 140.308C379.389 141.511 381.653 142.117 384.686 142.117C387.72 142.117 389.992 141.574 391.622 140.417C393.325 139.249 394.499 137.459 394.891 135.434C394.982 134.955 395.036 134.467 395.09 133.979C395.425 134.394 395.751 134.819 396.113 135.208C397.926 137.238 400.111 138.902 402.551 140.109C405.006 141.334 407.712 141.971 410.456 141.972C412.383 142.011 414.299 141.689 416.107 141.022C416.532 140.851 416.94 140.679 417.32 140.498C419.328 141.573 421.591 142.082 423.867 141.972C426.954 141.972 429.146 141.447 430.748 140.326C431.359 139.889 431.904 139.369 432.369 138.78C432.46 138.898 432.523 139.042 432.623 139.16C434.343 141.194 437.15 142.189 441.161 142.189C444.322 142.189 446.667 141.601 448.342 140.38C450.069 139.162 451.254 137.32 451.647 135.244C451.874 133.982 451.989 132.702 451.991 131.42C452 127.902 451.285 125.334 449.809 123.526Z" fill="#5C2D15"/>
<path d="M262.075 130.108C261.875 128.88 261.775 127.637 261.776 126.392V124.159C260.75 125.671 259.583 127.082 258.29 128.372C255.656 131.003 252.547 133.111 249.126 134.584C245.588 136.1 241.775 136.872 237.925 136.854H225.882C223.678 136.97 221.485 136.476 219.544 135.425V135.561C220.008 137.531 221.206 139.251 222.894 140.371C224.497 141.465 226.67 141.99 229.559 141.99H241.556C245.424 142.013 249.256 141.241 252.811 139.72C256.229 138.247 259.336 136.139 261.966 133.508C262.292 133.192 262.573 132.848 262.871 132.514C262.476 131.761 262.207 130.948 262.075 130.108Z" fill="#5C2D15"/>
<path d="M37.6953 83.4597C38.5478 83.4578 39.3989 83.5274 40.2398 83.6676C40.6468 83.7467 41.0341 83.9058 41.3792 84.1355C41.7243 84.3652 42.0202 84.6611 42.2499 85.0059C42.7873 86.2224 43.0648 87.5373 43.0648 88.8669C43.0648 90.1965 42.7873 91.5115 42.2499 92.728C42.023 93.0863 41.7238 93.3935 41.3715 93.6301C41.0192 93.8667 40.6214 94.0276 40.2035 94.1024C39.3513 94.2494 38.4878 94.322 37.6229 94.3194H27.8527V126.6C27.857 127.605 27.763 128.607 27.572 129.593C27.4876 130.069 27.3087 130.522 27.0459 130.928C26.7831 131.333 26.4417 131.682 26.0417 131.953C25.1725 132.556 23.6633 132.857 21.5143 132.857C19.4408 132.857 17.9648 132.541 17.0684 131.908C16.6543 131.635 16.2996 131.281 16.0258 130.868C15.7519 130.454 15.5645 129.99 15.4747 129.503C15.3091 128.514 15.2273 127.512 15.2303 126.51V94.3194H5.36952C4.52718 94.3171 3.68709 94.2323 2.86133 94.0662C2.02451 93.8952 1.28909 93.4013 0.814934 92.6918C0.167672 91.5067 -0.115763 90.1576 -5.58794e-07 88.8127C-0.109423 87.4913 0.174059 86.1671 0.814934 85.0059C1.05239 84.6529 1.35963 84.352 1.71777 84.1219C2.07592 83.8917 2.4774 83.7372 2.89755 83.6676C3.73579 83.5311 4.58359 83.4616 5.43291 83.4597H37.6953Z" fill="#5C2D15"/>
<path d="M74.9379 132.731C73.3041 132.849 71.6717 132.481 70.2475 131.673C69.8145 131.438 69.452 131.092 69.1973 130.671C68.9427 130.25 68.8051 129.769 68.7987 129.277H69.7857C69.3885 129.771 68.9254 130.209 68.4094 130.579C67.5824 131.205 66.667 131.704 65.6929 132.062C64.3581 132.541 62.9457 132.768 61.5277 132.731C59.4082 132.731 57.3181 132.235 55.4247 131.284C53.4441 130.304 51.6704 128.953 50.2001 127.305C48.6755 125.61 47.4507 123.669 46.5781 121.564C45.689 119.429 45.2335 117.139 45.238 114.827C45.2355 112.55 45.6913 110.296 46.5781 108.199C47.4577 106.107 48.7025 104.187 50.2544 102.53C51.7408 100.906 53.5113 99.5671 55.4791 98.5782C57.3598 97.6278 59.438 97.1322 61.5458 97.1315C62.9317 97.0924 64.3113 97.3323 65.6024 97.8368C66.5783 98.2215 67.4933 98.7454 68.3188 99.392C68.8456 99.791 69.3095 100.266 69.6952 100.803H68.9165C68.8857 100.261 69.0045 99.7219 69.26 99.2435C69.5156 98.765 69.8979 98.366 70.3652 98.09C71.8058 97.3303 73.4307 96.9889 75.0557 97.1044C77.1745 97.1044 78.6685 97.4208 79.5378 98.0538C80.3676 98.6231 80.9374 99.4979 81.1224 100.486C81.3151 101.484 81.4121 102.499 81.4121 103.515V126.428C81.4121 127.445 81.3151 128.459 81.1224 129.457C81.0326 129.942 80.846 130.405 80.5738 130.816C80.3016 131.228 79.9493 131.581 79.5378 131.854C78.6082 132.438 77.0749 132.731 74.9379 132.731ZM63.2934 119.972C64.157 119.981 65.0041 119.736 65.7292 119.267C66.4583 118.796 67.0638 118.157 67.4948 117.404C67.936 116.643 68.1672 115.779 68.1649 114.899C68.1769 114.007 67.9452 113.129 67.4948 112.359C67.0441 111.62 66.4232 111 65.6839 110.55C64.9235 110.078 64.0437 109.833 63.1485 109.845C62.2392 109.835 61.3453 110.079 60.5679 110.55C59.799 111.007 59.1552 111.647 58.6935 112.413C58.2228 113.19 57.9782 114.082 57.9873 114.99C57.9897 115.867 58.2476 116.725 58.7298 117.458C59.2298 118.203 59.8962 118.823 60.6765 119.267C61.4547 119.728 62.343 119.972 63.2481 119.972H63.2934Z" fill="#5C2D15"/>
<path d="M91.9067 132.803C89.7879 132.803 88.2788 132.502 87.3793 131.899C86.961 131.622 86.6049 131.261 86.3337 130.839C86.0624 130.417 85.882 129.944 85.8038 129.448C85.6321 128.448 85.5473 127.434 85.5502 126.419V103.226C85.548 102.23 85.6451 101.237 85.84 100.26C85.9372 99.7877 86.1314 99.3404 86.4104 98.9467C86.6894 98.5529 87.047 98.2212 87.4608 97.9724C88.3663 97.3847 89.8603 97.0682 91.9882 97.0682C93.4271 96.9748 94.8676 97.2259 96.1897 97.8006C96.9496 98.1746 97.541 98.8201 97.8467 99.6091C98.0661 100.233 98.1733 100.892 98.1636 101.553C98.1056 101.918 98.143 102.292 98.2723 102.638L97.7018 103.063C97.6851 102.278 97.9778 101.519 98.5168 100.947C99.1821 100.18 99.9681 99.5268 100.844 99.0123C101.819 98.4208 102.862 97.9473 103.95 97.6017C104.964 97.2657 106.024 97.0888 107.092 97.0773C109.239 97.03 111.367 97.4885 113.303 98.4155C115.08 99.2926 116.618 100.586 117.786 102.186C119.032 103.893 119.953 105.815 120.502 107.856C121.13 110.153 121.434 112.527 121.407 114.909V126.464C121.407 127.484 121.31 128.501 121.118 129.503C121.028 129.988 120.841 130.45 120.569 130.861C120.297 131.273 119.945 131.626 119.533 131.899C118.664 132.502 117.155 132.803 115.006 132.803C112.857 132.803 111.329 132.502 110.424 131.899C110.005 131.621 109.645 131.263 109.365 130.846C109.085 130.428 108.891 129.959 108.794 129.466C108.604 128.468 108.51 127.454 108.513 126.437V114.899C108.537 113.96 108.332 113.029 107.916 112.187C107.535 111.456 106.946 110.855 106.222 110.46C105.381 110.038 104.447 109.832 103.506 109.863C102.561 109.841 101.627 110.059 100.79 110.496C100.027 110.895 99.3977 111.508 98.9786 112.259C98.5281 113.091 98.3063 114.027 98.3357 114.972V126.528C98.3387 127.547 98.2447 128.564 98.055 129.566C97.9632 130.05 97.7758 130.512 97.5038 130.923C97.2317 131.334 96.8805 131.688 96.4704 131.962C95.5951 132.523 94.0739 132.803 91.9067 132.803Z" fill="#5C2D15"/>
<path d="M131.504 147.813C129.439 147.813 127.954 147.515 127.058 146.909C126.648 146.651 126.295 146.312 126.023 145.912C125.75 145.512 125.563 145.06 125.473 144.585C125.307 143.605 125.225 142.613 125.229 141.619V103.334C125.225 102.344 125.307 101.354 125.473 100.378C125.56 99.9007 125.741 99.4461 126.007 99.0407C126.273 98.6352 126.618 98.2873 127.021 98.0176C127.927 97.3847 129.367 97.0682 131.44 97.0682C132.835 97.0222 134.226 97.2495 135.533 97.7373C136.54 98.118 137.37 98.8593 137.86 99.817V141.547C137.954 142.547 137.896 143.557 137.688 144.54C137.465 145.512 136.87 146.359 136.031 146.9C135.135 147.533 133.622 147.813 131.504 147.813ZM144.57 132.025C142.48 132.078 140.413 131.592 138.566 130.615C136.887 129.689 135.458 128.37 134.401 126.772C133.29 125.081 132.478 123.213 132.002 121.247C131.477 119.1 131.24 116.892 131.295 114.682C131.342 112.47 131.646 110.27 132.201 108.127C132.69 106.126 133.513 104.221 134.637 102.494C135.676 100.887 137.078 99.5462 138.729 98.5782C140.517 97.5804 142.54 97.0808 144.588 97.1315C146.687 97.1416 148.754 97.6499 150.618 98.6144C152.598 99.6167 154.38 100.968 155.879 102.602C157.412 104.263 158.639 106.183 159.501 108.271C160.391 110.362 160.85 112.61 160.85 114.881C160.85 117.153 160.391 119.401 159.501 121.491C158.647 123.533 157.418 125.397 155.879 126.989C154.385 128.537 152.613 129.792 150.655 130.687C148.747 131.569 146.671 132.025 144.57 132.025ZM142.849 120.044C143.755 120.052 144.646 119.808 145.421 119.339C146.191 118.879 146.835 118.236 147.295 117.467C147.759 116.718 148.004 115.853 148.002 114.972C148.01 114.069 147.779 113.18 147.331 112.395C146.896 111.644 146.272 111.021 145.52 110.586C144.734 110.14 143.844 109.909 142.94 109.917C142.034 109.908 141.143 110.153 140.368 110.622C139.624 111.067 139.002 111.688 138.557 112.431C138.107 113.201 137.875 114.08 137.887 114.972C137.885 115.853 138.129 116.718 138.594 117.467C139.042 118.225 139.662 118.866 140.404 119.339C141.135 119.803 141.984 120.048 142.849 120.044Z" fill="#5C2D15"/>
<path d="M192.352 132.731C190.718 132.85 189.086 132.482 187.662 131.673C187.229 131.438 186.866 131.092 186.612 130.671C186.357 130.25 186.219 129.769 186.213 129.277H187.218C186.818 129.769 186.356 130.207 185.842 130.579C185.015 131.205 184.099 131.704 183.125 132.062C181.79 132.541 180.378 132.768 178.96 132.731C176.841 132.731 174.751 132.235 172.857 131.284C170.876 130.304 169.103 128.953 167.632 127.305C166.108 125.61 164.883 123.669 164.011 121.564C163.117 119.43 162.661 117.139 162.67 114.827C162.663 112.55 163.119 110.295 164.011 108.199C164.89 106.107 166.135 104.187 167.687 102.53C169.173 100.906 170.944 99.5671 172.911 98.5782C174.792 97.6278 176.87 97.1322 178.978 97.1315C180.364 97.0924 181.744 97.3323 183.035 97.8368C184.012 98.219 184.927 98.7431 185.751 99.392C186.28 99.7884 186.744 100.264 187.128 100.803H186.313C186.28 100.261 186.398 99.7208 186.653 99.242C186.909 98.7632 187.293 98.3645 187.761 98.09C189.202 97.3303 190.827 96.9889 192.452 97.1044C194.571 97.1044 196.065 97.4208 196.934 98.0538C197.764 98.6231 198.334 99.4979 198.519 100.486C198.711 101.484 198.808 102.499 198.808 103.515V126.428C198.808 127.445 198.711 128.459 198.519 129.457C198.429 129.942 198.242 130.405 197.97 130.816C197.698 131.228 197.345 131.581 196.934 131.854C196.047 132.438 194.519 132.731 192.352 132.731ZM180.708 119.972C181.571 119.981 182.418 119.736 183.143 119.267C183.87 118.793 184.475 118.155 184.909 117.404C185.35 116.643 185.581 115.779 185.579 114.899C185.591 114.007 185.359 113.129 184.909 112.359C184.458 111.62 183.837 111 183.098 110.55C182.335 110.077 181.452 109.832 180.554 109.845C179.647 109.836 178.757 110.08 177.982 110.55C177.213 111.007 176.569 111.647 176.108 112.413C175.654 113.192 175.426 114.08 175.447 114.981C175.443 115.859 175.701 116.719 176.189 117.449C176.688 118.192 177.351 118.811 178.127 119.258C178.908 119.722 179.799 119.968 180.708 119.972Z" fill="#5C2D15"/>
<path d="M225.882 132.803C224.368 132.923 222.851 132.609 221.509 131.899C220.657 131.347 220.05 130.489 219.816 129.503C219.571 128.462 219.45 127.397 219.453 126.329V89.8706C219.453 88.854 219.55 87.8397 219.743 86.8415C219.836 86.3482 220.028 85.8787 220.306 85.4609C220.585 85.043 220.944 84.6853 221.364 84.4091C222.263 83.7762 223.794 83.4748 225.955 83.5049H238.097C241.345 83.486 244.563 84.1322 247.551 85.4038C250.478 86.6498 253.147 88.4316 255.419 90.6573C257.696 92.8814 259.52 95.5253 260.789 98.4426C262.085 101.424 262.745 104.642 262.726 107.892C262.752 111.21 262.092 114.497 260.789 117.549C258.233 123.514 253.481 128.273 247.514 130.841C244.487 132.147 241.223 132.815 237.925 132.803H225.882ZM232.375 119.9H238.097C240.158 119.915 242.184 119.368 243.956 118.317C245.711 117.288 247.178 115.832 248.221 114.086C249.286 112.308 249.837 110.271 249.814 108.199C249.834 106.117 249.283 104.069 248.221 102.277C247.184 100.518 245.717 99.0524 243.956 98.0176C242.161 96.9571 240.11 96.4068 238.025 96.4262H232.375V119.9Z" fill="#5C2D15"/>
<path d="M272.189 132.875C270.07 132.875 268.561 132.559 267.661 131.926C267.24 131.646 266.882 131.281 266.611 130.854C266.339 130.427 266.161 129.948 266.086 129.448C265.915 128.436 265.831 127.41 265.832 126.383V103.407C265.829 102.378 265.926 101.351 266.122 100.341C266.217 99.8587 266.41 99.4004 266.689 98.9946C266.967 98.5888 267.326 98.244 267.743 97.9815C268.648 97.3666 270.142 97.0772 272.27 97.0772C273.789 96.9597 275.312 97.2501 276.68 97.9182C277.424 98.3223 277.989 98.9901 278.265 99.7899C278.427 100.303 278.525 100.835 278.554 101.372L277.423 100.947C278.099 100.179 278.841 99.4711 279.641 98.8314C280.457 98.2247 281.349 97.7262 282.294 97.3485C283.381 96.9104 284.545 96.6951 285.717 96.7155C286.142 96.7155 286.622 96.7155 287.301 96.815C287.992 96.8951 288.676 97.0251 289.348 97.2038C290.067 97.3871 290.757 97.6734 291.394 98.0538C292.023 98.4153 292.556 98.9204 292.952 99.5277C293.368 100.207 293.576 100.993 293.549 101.788C293.613 103.888 293.089 105.964 292.037 107.783C291.66 108.518 291.088 109.136 290.384 109.57C289.68 110.003 288.871 110.236 288.044 110.243C287.405 110.271 286.766 110.213 286.142 110.071C285.855 109.995 285.58 109.876 285.327 109.718C285.147 109.591 284.959 109.473 284.766 109.366C284.395 109.22 283.996 109.159 283.598 109.185C282.944 109.181 282.292 109.267 281.66 109.438C281.1 109.587 280.571 109.838 280.103 110.179C279.659 110.485 279.293 110.891 279.034 111.364C278.8 111.81 278.679 112.307 278.681 112.811V126.555C278.685 127.571 278.591 128.586 278.4 129.584C278.306 130.072 278.114 130.536 277.836 130.948C277.557 131.36 277.198 131.711 276.78 131.98C275.886 132.577 274.356 132.875 272.189 132.875Z" fill="#5C2D15"/>
<path d="M324.988 132.731C323.354 132.85 321.721 132.482 320.297 131.673C319.864 131.438 319.502 131.092 319.247 130.671C318.992 130.25 318.855 129.769 318.848 129.277H319.835C319.436 129.769 318.973 130.207 318.459 130.579C317.632 131.205 316.717 131.704 315.743 132.062C314.408 132.541 312.995 132.768 311.577 132.731C309.458 132.731 307.368 132.235 305.474 131.284C303.494 130.304 301.72 128.953 300.25 127.305C298.725 125.61 297.5 123.669 296.628 121.564C295.734 119.43 295.279 117.139 295.288 114.827C295.281 112.55 295.737 110.295 296.628 108.199C297.507 106.107 298.752 104.187 300.304 102.53C301.791 100.906 303.561 99.5671 305.529 98.5782C307.41 97.6278 309.488 97.1322 311.595 97.1315C312.981 97.0924 314.361 97.3323 315.652 97.8368C316.629 98.219 317.545 98.7431 318.369 99.392C318.898 99.7884 319.362 100.264 319.745 100.803H318.975C318.942 100.261 319.06 99.7208 319.316 99.242C319.572 98.7632 319.955 98.3645 320.424 98.09C321.865 97.3303 323.489 96.9889 325.114 97.1044C327.233 97.1044 328.727 97.4208 329.597 98.0538C330.426 98.6231 330.996 99.4979 331.181 100.486C331.374 101.484 331.471 102.499 331.471 103.515V126.428C331.471 127.445 331.374 128.459 331.181 129.457C331.091 129.942 330.905 130.405 330.633 130.816C330.36 131.228 330.008 131.581 329.597 131.854C328.691 132.438 327.155 132.731 324.988 132.731ZM313.343 119.972C314.207 119.981 315.054 119.736 315.779 119.267C316.506 118.793 317.11 118.155 317.545 117.404C317.986 116.643 318.217 115.779 318.215 114.899C318.227 114.007 317.995 113.129 317.545 112.359C317.094 111.62 316.473 111 315.734 110.55C314.97 110.077 314.087 109.832 313.189 109.845C312.283 109.836 311.392 110.08 310.618 110.55C309.849 111.007 309.205 111.647 308.743 112.413C308.272 113.19 308.028 114.082 308.037 114.99C308.033 115.868 308.291 116.728 308.779 117.458C309.278 118.201 309.941 118.82 310.717 119.267C311.512 119.735 312.42 119.979 313.343 119.972Z" fill="#5C2D15"/>
<path d="M341.857 132.875C339.738 132.875 338.229 132.559 337.329 131.926C336.914 131.649 336.559 131.29 336.287 130.872C336.014 130.454 335.83 129.985 335.745 129.494C335.581 128.489 335.499 127.473 335.5 126.455V103.407C335.494 102.378 335.588 101.352 335.781 100.341C335.876 99.8587 336.069 99.4004 336.348 98.9946C336.626 98.5888 336.985 98.244 337.402 97.9815C338.307 97.3666 339.829 97.0772 341.993 97.0772C344.157 97.0772 345.615 97.4841 346.611 98.307C347.131 98.8221 347.531 99.4461 347.782 100.134C348.032 100.822 348.127 101.557 348.059 102.286L346.864 101.933C347.479 101.049 348.176 100.226 348.947 99.4734C349.684 98.7711 350.528 98.1883 351.446 97.7463C352.504 97.2357 353.667 96.9816 354.841 97.0049C356.202 96.9926 357.557 97.1815 358.862 97.5655C360.073 97.9371 361.207 98.522 362.212 99.2926C363.247 100.094 364.143 101.059 364.865 102.15C365.52 101.395 366.228 100.688 366.984 100.034C367.951 99.1857 369.029 98.4738 370.189 97.9182C371.502 97.2995 372.94 96.9902 374.391 97.0139C376.921 96.9398 379.407 97.6818 381.481 99.1298C383.544 100.685 385.095 102.82 385.936 105.26C387.017 108.384 387.533 111.676 387.457 114.981V126.464C387.46 127.484 387.366 128.501 387.176 129.503C387.08 129.995 386.887 130.463 386.609 130.88C386.331 131.298 385.973 131.656 385.556 131.935C384.656 132.538 383.126 132.854 380.965 132.884C378.846 132.884 377.343 132.55 376.437 131.899C376.021 131.614 375.666 131.249 375.394 130.825C375.122 130.401 374.938 129.927 374.853 129.43C374.684 128.429 374.602 127.416 374.608 126.401V114.899C374.632 113.956 374.501 113.015 374.219 112.114C374.012 111.464 373.618 110.889 373.087 110.46C372.544 110.065 371.884 109.865 371.213 109.89C370.532 109.863 369.858 110.036 369.275 110.387C368.742 110.77 368.366 111.332 368.215 111.97C367.977 112.952 367.87 113.961 367.899 114.972V126.455C367.897 127.475 367.803 128.491 367.618 129.494C367.52 129.986 367.325 130.455 367.046 130.872C366.766 131.289 366.407 131.648 365.988 131.926C365.101 132.529 363.573 132.845 361.406 132.875C359.287 132.875 357.784 132.541 356.879 131.89C356.462 131.605 356.106 131.24 355.832 130.816C355.558 130.392 355.372 129.918 355.285 129.421C355.121 128.42 355.039 127.407 355.041 126.392V114.899C355.064 113.947 354.945 112.996 354.688 112.078C354.516 111.421 354.131 110.839 353.592 110.424C353.019 110.046 352.34 109.859 351.654 109.89C351.272 109.861 350.887 109.908 350.523 110.029C350.16 110.15 349.824 110.343 349.535 110.595C349.067 111.1 348.753 111.727 348.63 112.404C348.453 113.215 348.368 114.043 348.376 114.872V126.501C348.38 127.517 348.286 128.531 348.096 129.53C348.005 130.019 347.814 130.484 347.535 130.897C347.257 131.309 346.895 131.659 346.475 131.926C345.563 132.559 344.024 132.875 341.857 132.875Z" fill="#5C2D15"/>
<path d="M420.145 132.731C418.508 132.849 416.873 132.481 415.446 131.673C415.013 131.438 414.65 131.092 414.395 130.671C414.141 130.25 414.003 129.769 413.997 129.277H414.984C414.586 129.771 414.123 130.209 413.607 130.579C412.781 131.205 411.865 131.704 410.891 132.062C409.556 132.541 408.144 132.768 406.726 132.731C404.606 132.731 402.516 132.235 400.623 131.284C398.642 130.304 396.868 128.953 395.398 127.305C393.87 125.613 392.645 123.671 391.776 121.564C390.883 119.43 390.427 117.139 390.436 114.827C390.429 112.55 390.885 110.295 391.776 108.199C392.653 106.107 393.894 104.188 395.443 102.53C396.933 100.91 398.703 99.5713 400.668 98.5782C402.549 97.6287 404.627 97.1332 406.735 97.1315C408.124 97.0934 409.506 97.3332 410.8 97.8368C411.778 98.2191 412.693 98.7431 413.517 99.392C414.044 99.791 414.508 100.266 414.893 100.803H414.115C414.084 100.261 414.203 99.7219 414.458 99.2435C414.714 98.765 415.096 98.366 415.563 98.09C417.005 97.3322 418.629 96.9908 420.254 97.1044C422.373 97.1044 423.882 97.4208 424.781 98.0538C425.614 98.6222 426.187 99.4968 426.375 100.486C426.564 101.485 426.658 102.499 426.655 103.515V126.428C426.622 127.445 426.492 128.456 426.266 129.448C426.175 129.934 425.987 130.396 425.713 130.808C425.439 131.22 425.085 131.572 424.672 131.845C423.815 132.435 422.306 132.731 420.145 132.731ZM408.491 119.972C409.355 119.982 410.203 119.736 410.927 119.267C411.675 118.803 412.296 118.164 412.738 117.404C413.183 116.645 413.415 115.779 413.408 114.899C413.424 114.007 413.192 113.127 412.738 112.359C412.29 111.618 411.668 110.998 410.927 110.55C410.167 110.077 409.287 109.832 408.392 109.845C407.483 109.836 406.589 110.08 405.811 110.55C405.043 111.005 404.402 111.646 403.946 112.413C403.475 113.19 403.231 114.082 403.24 114.99C403.239 115.866 403.494 116.724 403.973 117.458C404.473 118.203 405.14 118.823 405.92 119.267C406.698 119.728 407.586 119.972 408.491 119.972Z" fill="#5C2D15"/>
<path d="M437.431 132.948C434.708 132.948 432.897 132.417 431.998 131.356C431.092 130.298 430.658 128.553 430.658 126.103C430.661 125.061 430.767 124.022 430.975 123.001C431.198 121.955 431.818 121.035 432.704 120.433C433.646 119.758 435.246 119.418 437.503 119.412C440.286 119.412 442.097 119.927 442.936 120.958C443.775 121.989 444.198 123.752 444.204 126.247C444.2 127.287 444.106 128.325 443.923 129.349C443.719 130.396 443.111 131.322 442.23 131.926C441.294 132.607 439.694 132.948 437.431 132.948ZM437.431 115.605C435.873 115.729 434.31 115.435 432.903 114.755C432.499 114.529 432.145 114.222 431.864 113.853C431.584 113.484 431.383 113.062 431.273 112.612C431.083 111.72 430.989 110.811 430.993 109.899V89.102C430.992 88.1905 431.086 87.2814 431.273 86.3893C431.381 85.9279 431.58 85.4929 431.86 85.1106C432.141 84.7283 432.495 84.4066 432.903 84.165C433.791 83.5621 435.318 83.2607 437.485 83.2607C439.649 83.2607 441.17 83.5501 442.013 84.165C442.415 84.4142 442.763 84.7422 443.035 85.1291C443.307 85.516 443.499 85.9539 443.597 86.4165C443.788 87.3356 443.886 88.2718 443.887 89.2105V110.008C443.888 110.92 443.791 111.829 443.597 112.72C443.496 113.169 443.298 113.59 443.018 113.955C442.739 114.32 442.383 114.621 441.976 114.836C440.548 115.465 438.986 115.729 437.431 115.605Z" fill="#5C2D15"/>
</g>
<defs>
<clipPath id="clip0_1_70">
<rect width="452" height="157" fill="white"/>
</clipPath>
</defs>
</svg>
