<svg width="148" height="148" viewBox="0 0 148 148" fill="none" xmlns="http://www.w3.org/2000/svg">
<g clip-path="url(#clip0_5_31)">
<path d="M58.3724 32.9897C51.9643 35.7457 46.4336 40.19 42.3765 45.8436C39.8026 49.366 37.9016 53.3296 36.7685 57.5364C36.4611 58.6976 35.9405 58.9036 34.8866 58.6789C32.6095 58.1474 30.215 58.4837 28.1746 59.6215C26.4246 60.619 25.0531 62.1621 24.272 64.0125C23.4908 65.8629 23.3435 67.9177 23.8526 69.8598C24.3848 71.8537 25.5868 73.6063 27.2586 74.8261C28.9305 76.0459 30.9716 76.6594 33.0424 76.5646C33.8516 76.5317 34.6571 76.4356 35.4512 76.2774C36.1977 76.1213 36.436 76.3835 36.6305 77.0765C38.6023 84.2853 42.6649 90.756 48.3106 95.6801C54.3903 101.061 62.0022 104.426 70.0901 105.307C76.8894 106.132 83.7865 105.112 90.0505 102.354C90.191 102.262 90.3486 102.2 90.5138 102.17C90.679 102.14 90.8485 102.144 91.0123 102.181C91.1761 102.217 91.3308 102.286 91.4673 102.384C91.6038 102.481 91.7193 102.604 91.8069 102.747C92.8169 103.896 93.9648 104.919 95.1127 106.049C90.0115 108.674 84.4513 110.3 78.7342 110.838C68.3621 111.851 57.9624 109.199 49.3582 103.346C42.1482 98.6381 36.5286 91.8796 33.2306 83.9498C32.7601 82.8324 32.4277 82.077 30.8281 81.8834C24.5113 81.1655 19.8881 76.833 18.3513 70.6776C18.2697 70.3592 18.414 69.9222 18 69.7162V65.3462C18.4956 64.4972 18.5081 63.4734 18.8782 62.5931C21.2368 56.8497 25.4773 53.6222 31.7063 53.0666C31.9549 53.068 32.1964 52.9845 32.3905 52.8299C32.5846 52.6754 32.7195 52.4592 32.7727 52.2176C35.452 45.2472 39.9205 39.0976 45.7325 34.3818C51.7769 29.3818 59.0337 26.0474 66.7781 24.7117C86.7761 21.1533 107.1 31.7723 115.362 50.2323C116.208 52.1052 117.055 53.0229 119.27 53.3537C128.315 54.7709 133.584 65.1152 129.714 73.3682C128.812 75.4167 127.445 77.2294 125.721 78.6645C123.997 80.0996 121.963 81.118 119.778 81.64C119.495 81.7149 119.232 81.8585 118.931 81.7024C117.755 81.0976 116.481 80.7064 115.167 80.5475C113.86 80.379 112.533 80.4531 111.253 80.766C111.717 79.3052 112.156 77.9942 112.545 76.6707C112.721 76.0464 113.116 76.2399 113.499 76.2961C115.468 76.602 117.413 76.7643 119.376 76.1088C121.167 75.4733 122.717 74.3016 123.812 72.7546C124.907 71.2076 125.494 69.3611 125.492 67.4688C125.474 65.5933 124.875 63.7689 123.779 62.2434C122.683 60.7178 121.141 59.5649 119.364 58.9411C117.605 58.3884 115.731 58.3087 113.931 58.7101C113.059 58.8786 112.614 58.7101 112.319 57.7425C108.618 45.3067 100.545 36.8477 88.5199 32.0407C82.316 29.5436 75.9741 29.0692 69.557 31.0606C67.2624 31.6783 65.2703 33.1021 63.949 35.0685C62.6944 36.9788 63.0708 38.6269 64.8397 40.094C66.625 41.5195 68.7561 42.4519 71.0185 42.7971C73.8037 43.2966 76.57 43.3215 79.2235 42.0917C79.3176 42.0418 79.4368 42.0293 79.5309 41.9731C80.3087 41.4861 81.2371 41.0367 81.2245 39.9816C81.212 38.9266 80.2522 38.5208 79.4242 38.1088C78.5055 37.6856 77.5107 37.4504 76.4988 37.4172C75.487 37.3839 74.4788 37.5533 73.534 37.9152C71.5705 38.5707 70.5543 38.1525 69.9898 36.5543C69.8481 36.1765 69.7869 35.7735 69.81 35.3709C69.8331 34.9683 69.9401 34.5749 70.1241 34.2157C70.3081 33.8564 70.5652 33.5392 70.879 33.284C71.1928 33.0289 71.5565 32.8415 71.9469 32.7337C75.9365 31.3603 79.7692 31.5788 83.2758 34.0697C88.2941 37.6031 88.0244 43.2279 82.7802 46.3805C80.0908 47.9249 77.0028 48.6438 73.9041 48.4469C70.1403 48.3345 66.5397 47.5667 63.3154 45.5565C59.4576 43.1467 56.7602 37.8965 58.5355 33.1145C58.5355 33.0334 58.5355 32.946 58.5355 32.8586L58.3724 32.9897Z" fill="#5C2D15"/>
<path d="M120.399 94.0507C120.292 97.1097 118.737 99.9065 116.51 102.391C113.655 105.575 110.124 107.854 106.373 109.839C106.254 109.921 106.116 109.969 105.973 109.979C105.829 109.989 105.685 109.96 105.557 109.895C100.796 107.348 96.3046 104.439 93.3752 99.7442C91.3804 96.5416 90.6778 93.1081 92.359 89.5247C93.4495 87.258 95.3944 85.5107 97.7714 84.6622C100.148 83.8137 102.766 83.9323 105.055 84.9924C105.32 85.1355 105.617 85.2105 105.918 85.2105C106.219 85.2105 106.516 85.1355 106.78 84.9924C113.041 82.1581 120.436 86.8902 120.399 94.0507ZM114.904 94.0819C114.904 90.5672 111.529 88.6007 108.719 90.1302C107.868 90.6329 107.102 91.2648 106.448 92.0031C106.065 92.4026 105.821 92.4526 105.4 92.0031C104.906 91.4617 104.364 90.9645 103.782 90.5173C103.086 89.9445 102.227 89.6043 101.326 89.5449C100.426 89.4855 99.529 89.7099 98.7636 90.1864C97.2644 91.1166 96.6371 92.7834 97.0323 94.7187C97.1394 95.2198 97.3123 95.7046 97.5467 96.1608C99.347 99.6068 102.433 101.717 105.614 103.721C105.921 103.914 106.147 103.721 106.404 103.59C108.739 102.254 110.855 100.57 112.677 98.5955C113.869 97.2034 114.828 95.6801 114.904 94.0819Z" fill="#5C2D15"/>
<path d="M74.5251 91.0729C71.7454 91.0583 69.0775 89.982 67.0721 88.0664C65.0667 86.1507 63.8768 83.5419 63.7483 80.7785C63.7112 80.403 63.7492 80.024 63.8603 79.6633C63.9714 79.3026 64.1532 78.9674 64.3953 78.6771C64.6374 78.3868 64.935 78.1472 65.2708 77.9721C65.6065 77.797 65.9739 77.6899 66.3515 77.6571C67.0917 77.6469 67.8063 77.9265 68.3413 78.4356C68.8763 78.9447 69.189 79.6426 69.212 80.3789C69.4817 83.5003 71.6019 85.6104 74.4749 85.6291C77.3479 85.6479 79.4932 83.5191 79.7881 80.4289C79.9386 78.7371 81.2183 77.526 82.7112 77.6633C83.4629 77.7556 84.1477 78.1389 84.6173 78.7302C85.087 79.3214 85.3036 80.0731 85.2204 80.8222C85.0833 83.5645 83.9006 86.1516 81.9133 88.0563C79.9261 89.9609 77.2839 91.0397 74.5251 91.0729Z" fill="#5C2D15"/>
<path d="M89.5424 68.8048C89.572 69.2698 89.5044 69.7358 89.3438 70.1735C89.1833 70.6112 88.9334 71.011 88.6098 71.3477C88.2862 71.6844 87.8959 71.9507 87.4637 72.1298C87.0315 72.3089 86.5667 72.3968 86.0986 72.3881C85.6197 72.4069 85.1421 72.3263 84.6962 72.1515C84.2502 71.9766 83.8457 71.7114 83.5083 71.3727C83.1708 71.034 82.9079 70.6291 82.7361 70.1838C82.5644 69.7385 82.4875 69.2625 82.5105 68.786C82.4915 68.3091 82.5709 67.8334 82.7437 67.3882C82.9165 66.943 83.1791 66.5377 83.5152 66.1973C83.8514 65.8569 84.254 65.5886 84.6983 65.409C85.1426 65.2293 85.6191 65.1421 86.0986 65.1527C86.5705 65.1517 87.0376 65.2472 87.4708 65.4333C87.9041 65.6195 88.2943 65.8922 88.6172 66.2347C88.9401 66.5771 89.1889 66.982 89.3481 67.4241C89.5072 67.8662 89.5734 68.3361 89.5424 68.8048Z" fill="#5C2D15"/>
<path d="M59.4576 69.2668C59.4256 68.7904 59.4945 68.3128 59.6599 67.8646C59.8253 67.4165 60.0834 67.008 60.4175 66.6654C60.7516 66.3229 61.1543 66.0541 61.5995 65.8763C62.0447 65.6985 62.5224 65.6158 63.0018 65.6334C63.4719 65.633 63.9372 65.7273 64.3698 65.9108C64.8023 66.0942 65.193 66.3629 65.5183 66.7006C65.8436 67.0384 66.0969 67.4383 66.2627 67.8761C66.4285 68.3139 66.5035 68.7806 66.4832 69.248C66.506 69.7239 66.4295 70.1994 66.2586 70.6444C66.0877 71.0895 65.8261 71.4945 65.4902 71.834C65.1544 72.1736 64.7516 72.4402 64.3071 72.6173C63.8626 72.7943 63.3861 72.8778 62.9077 72.8626C62.4382 72.8714 61.972 72.7831 61.5386 72.6033C61.1051 72.4236 60.7139 72.1562 60.3896 71.8183C60.0654 71.4803 59.8151 71.079 59.6547 70.6398C59.4942 70.2006 59.4271 69.7331 59.4576 69.2668Z" fill="#5C2D15"/>
<path d="M58.3724 32.9897L58.5857 32.8773C58.5857 32.9647 58.5857 33.0521 58.5857 33.1333L58.3724 32.9897Z" fill="#5C2D15"/>
</g>
<g filter="url(#filter0_d_5_31)">
<circle cx="74" cy="70" r="68.5" stroke="#5C2D15" stroke-width="3" shape-rendering="crispEdges"/>
</g>
<defs>
<filter id="filter0_d_5_31" x="0" y="0" width="148" height="148" filterUnits="userSpaceOnUse" color-interpolation-filters="sRGB">
<feFlood flood-opacity="0" result="BackgroundImageFix"/>
<feColorMatrix in="SourceAlpha" type="matrix" values="0 0 0 0 0 0 0 0 0 0 0 0 0 0 0 0 0 0 127 0" result="hardAlpha"/>
<feOffset dy="4"/>
<feGaussianBlur stdDeviation="2"/>
<feComposite in2="hardAlpha" operator="out"/>
<feColorMatrix type="matrix" values="0 0 0 0 0 0 0 0 0 0 0 0 0 0 0 0 0 0 0.25 0"/>
<feBlend mode="normal" in2="BackgroundImageFix" result="effect1_dropShadow_5_31"/>
<feBlend mode="normal" in="SourceGraphic" in2="effect1_dropShadow_5_31" result="shape"/>
</filter>
<clipPath id="clip0_5_31">
<rect width="113" height="87" fill="white" transform="translate(18 24)"/>
</clipPath>
</defs>
</svg>
