<svg width="148" height="148" viewBox="0 0 148 148" fill="none" xmlns="http://www.w3.org/2000/svg">
<g clip-path="url(#clip0_5_29)">
<path d="M27 66.5967C27.4333 65.5955 27.3683 64.5118 27.5156 63.4672C30.2537 44.1612 45.2357 28.1407 64.377 24.0749C89.6791 18.7045 114.201 33.9533 120.583 59.0156C125.544 78.5427 117.2 99.5869 100.22 110.423C93.6661 114.67 86.1561 117.213 78.3711 117.822C78.2238 117.822 78.0592 117.796 78.0029 118H70.5812C70.5032 117.753 70.2909 117.827 70.1219 117.809C68.5247 117.639 66.9361 117.406 65.3561 117.111C45.734 113.353 30.3231 97.2289 27.4982 77.5111C27.3596 76.5315 27.4506 75.4999 26.987 74.5766L27 66.5967ZM29.7858 70.4978C29.7858 95.1266 49.8066 115.187 74.3635 115.191C80.2445 115.208 86.0709 114.063 91.5087 111.822C96.9465 109.581 101.889 106.288 106.052 102.132C110.215 97.9766 113.517 93.0395 115.769 87.6043C118.021 82.169 119.179 76.3425 119.175 70.4588C119.176 64.566 118.013 58.7312 115.751 53.2904C113.489 47.8495 110.173 42.91 105.995 38.7563C101.817 34.6026 96.8592 31.3167 91.4067 29.0879C85.9542 26.8592 80.1148 25.7315 74.2249 25.7698C49.7633 25.8131 29.7728 45.9167 29.7858 70.5195V70.4978Z" fill="#5C2D15"/>
<path d="M87.2746 86.4966C87.3822 86.8226 87.5938 87.1043 87.8768 87.2985C91.3428 90.7661 94.8161 94.2439 98.2966 97.7318C100.056 99.5002 99.8953 101.429 97.8633 102.881C90.381 108.342 81.211 110.982 71.972 110.337C53.8185 109.231 38.8712 96.0326 35.3142 78.0616C35.0523 76.7912 34.87 75.5057 34.7683 74.2126C34.6903 73.0986 35.1106 72.4484 35.9597 72.3574C36.8089 72.2663 37.4415 72.8818 37.5411 74.0131C37.8186 77.6197 38.6683 81.1592 40.0583 84.4984C45.0928 96.336 53.9962 103.713 66.422 106.635C77.0844 109.14 86.9929 107.042 96.009 100.779C96.7022 100.293 96.7325 100.038 96.1216 99.4352C92.3133 95.6815 88.557 91.8758 84.7573 88.1134C83.8908 87.2465 83.3926 86.3362 83.8908 85.1399C84.3891 83.9436 85.4202 83.6662 86.6247 83.6835C88.8473 83.7139 91.0742 83.7182 93.3011 83.6835C93.8399 83.6587 94.3775 83.7517 94.8766 83.9561C95.3757 84.1604 95.8242 84.4713 96.191 84.8668C98.5912 87.3158 101.052 89.7128 103.448 92.1705C104.003 92.7383 104.263 92.7383 104.748 92.0708C109.912 84.6761 112.33 76.4968 111.424 67.5027C110.124 54.4991 103.825 44.5297 92.4693 37.9455C88.0827 35.4505 83.2019 33.9501 78.1718 33.5503C77.5783 33.4983 76.9847 33.4332 76.6165 32.8784C76.4684 32.6786 76.3807 32.4405 76.3638 32.1924C76.3469 31.9442 76.4015 31.6964 76.5211 31.4784C76.6548 31.2142 76.8695 30.9997 77.1338 30.8663C77.398 30.7329 77.698 30.6877 77.9899 30.7372C80.3636 30.8887 82.7132 31.303 84.9956 31.9725C99.5444 36.3851 109.158 45.843 113.088 60.5501C116.307 72.6088 113.924 83.8569 106.728 94.056C105.428 95.8852 103.422 96.0196 101.815 94.4202C99.3364 91.9581 96.8683 89.486 94.4103 87.0038C94.2479 86.8225 94.0466 86.6804 93.8215 86.5881C93.5964 86.4957 93.3533 86.4556 93.1105 86.4706C91.1912 86.4966 89.2762 86.4966 87.2746 86.4966Z" fill="#5C2D15"/>
<path d="M61.8598 54.5078C61.4958 54.1263 61.2965 53.9052 61.0842 53.6929C57.6182 50.2252 54.1651 46.7692 50.7251 43.3247C48.9097 41.5085 49.0571 39.6056 51.1367 38.1232C56.9058 33.919 63.7131 31.3711 70.8238 30.7545C71.9113 30.6548 72.5568 31.1403 72.6262 32.0072C72.6955 32.8741 72.1063 33.3812 71.0924 33.5199C71.0015 33.5199 70.9105 33.5199 70.8152 33.5459C64.3954 34.1641 58.2497 36.4552 52.991 40.1908C52.2502 40.7066 52.2718 40.9797 52.8957 41.5908C56.7257 45.3662 60.5123 49.1893 64.325 52.9907C64.6085 53.2292 64.8389 53.5244 65.0016 53.8573C65.1643 54.1903 65.2555 54.5535 65.2695 54.9238C65.2752 55.2419 65.2156 55.5578 65.0943 55.8519C64.973 56.146 64.7926 56.412 64.5643 56.6335C64.336 56.855 64.0647 57.0272 63.7671 57.1395C63.4696 57.2517 63.1522 57.3017 62.8346 57.2862C60.3 57.3122 57.7655 57.2862 55.2309 57.2862C54.7821 57.278 54.3399 57.1763 53.9326 56.9875C53.5252 56.7986 53.1618 56.5269 52.8654 56.1896C50.4088 53.7102 47.9176 51.2568 45.4697 48.7645C44.9931 48.279 44.7462 48.1967 44.3086 48.8208C40.5314 54.089 38.205 60.258 37.5628 66.7094C37.5451 66.9555 37.5118 67.2002 37.4631 67.442C37.4104 67.798 37.2213 68.1197 36.936 68.3389C36.6506 68.5581 36.2912 68.6577 35.9337 68.6167C35.576 68.5743 35.2496 68.3917 35.0263 68.1089C34.8029 67.8261 34.7008 67.4663 34.7423 67.1082C34.8531 65.2257 35.1345 63.3571 35.5828 61.5254C36.7833 56.2758 39.0435 51.3271 42.2246 46.983C43.5937 45.1105 45.5434 44.9371 47.1897 46.5756C49.6506 49.0116 52.0971 51.4678 54.5291 53.9443C54.6981 54.1371 54.9079 54.29 55.1431 54.3919C55.3784 54.4938 55.6333 54.5423 55.8895 54.5338C57.8002 54.4817 59.7281 54.5078 61.8598 54.5078Z" fill="#5C2D15"/>
<path d="M64.2123 66.419C63.314 69.459 62.4186 72.4932 61.5261 75.5216C61.1579 76.7656 60.7723 78.0009 60.4343 79.2493C60.2134 80.0728 59.9491 80.84 58.9396 80.8574C57.9301 80.8747 57.6398 80.1075 57.4102 79.2883C56.2375 75.2427 55.049 71.1899 53.8445 67.1299C53.7709 66.8915 53.7969 66.5837 53.4503 66.3323C52.9087 68.5646 52.3844 70.7319 51.8602 72.9035C51.245 75.4522 50.6254 77.9966 50.0189 80.5496C49.9708 80.8755 49.8066 81.1729 49.5566 81.3872C49.3066 81.6015 48.9876 81.7181 48.6584 81.7156C48.3445 81.7278 48.036 81.6303 47.7861 81.4396C47.5363 81.249 47.3606 80.9772 47.2894 80.671C47.2244 80.3998 47.2379 80.1156 47.3283 79.8518C48.8765 73.4309 50.4189 67.0129 51.9555 60.5978C52.1418 59.8175 52.5231 59.2627 53.3593 59.2454C54.1954 59.2281 54.5984 59.7829 54.8193 60.5458C56.1047 64.9554 57.4044 69.3622 58.7186 73.7661C58.762 73.9048 58.8096 74.0478 58.9396 74.4466C59.2255 73.5103 59.4465 72.8125 59.6501 72.1103C60.7723 68.2959 61.8987 64.4815 63.0035 60.6628C63.2245 59.8869 63.5754 59.2497 64.4679 59.2497C65.3605 59.2497 65.7677 59.9389 65.9497 60.7495C67.4545 67.0519 68.9608 73.3528 70.4685 79.6524C70.7372 80.775 70.3949 81.4859 69.498 81.6809C68.6012 81.876 68.0596 81.4035 67.791 80.3025C66.6645 75.679 65.541 71.044 64.4203 66.3974L64.2123 66.419Z" fill="#5C2D15"/>
<path d="M87.6992 70.5195C87.7771 68.7597 87.5952 67.0259 87.8118 65.3181C88.2451 62.0021 90.9183 59.5315 94.3973 59.2497C95.9507 59.1782 97.4835 59.627 98.7532 60.5251C100.023 61.4233 100.957 62.7194 101.407 64.2084C101.672 65.1447 101.316 65.8729 100.476 66.1069C99.6354 66.341 99.1198 65.9422 98.7429 64.9886C97.8157 62.5613 95.4154 61.3996 93.1582 62.3359C92.3626 62.6255 91.6781 63.158 91.2016 63.858C90.725 64.5581 90.4804 65.3903 90.5023 66.237C90.4503 69.0804 90.4373 71.9239 90.5023 74.763C90.5019 75.3364 90.6187 75.9038 90.8458 76.4303C91.0728 76.9568 91.4052 77.4313 91.8225 77.8243C92.2398 78.2174 92.7331 78.5208 93.272 78.716C93.8109 78.9111 94.3841 78.9937 94.9562 78.9588C95.559 78.9105 96.1454 78.7383 96.6787 78.453C97.2119 78.1677 97.6807 77.7755 98.0556 77.3007C98.4305 76.826 98.7035 76.279 98.8575 75.694C99.0115 75.1089 99.0433 74.4983 98.9508 73.9004C98.9075 73.5753 98.8122 73.467 98.5176 73.467C97.9933 73.467 97.4647 73.467 96.9405 73.467C96.7549 73.4716 96.5703 73.4392 96.3973 73.3717C96.2244 73.3043 96.0666 73.203 95.9331 73.0739C95.7997 72.9448 95.6932 72.7905 95.6199 72.6198C95.5467 72.4492 95.5081 72.2656 95.5064 72.0799C95.5075 71.7188 95.6502 71.3726 95.9038 71.1156C96.1574 70.8587 96.5016 70.7116 96.8625 70.7059C98.0323 70.6625 99.2108 70.6669 100.381 70.7059C100.545 70.6989 100.709 70.7245 100.863 70.7811C101.017 70.8378 101.159 70.9243 101.28 71.0359C101.401 71.1475 101.498 71.2818 101.567 71.4312C101.636 71.5807 101.674 71.7422 101.68 71.9066C101.745 73.532 101.888 75.1791 101.394 76.7785C100.437 79.8864 97.3998 81.98 94.289 81.7243C90.7969 81.4078 88.1887 78.9545 87.7901 75.5865C87.5995 73.8874 87.7771 72.1926 87.6992 70.5195Z" fill="#5C2D15"/>
<path d="M78.6527 81.6289C77.3079 81.6433 75.9774 81.3519 74.7615 80.7767C73.5457 80.2015 72.4763 79.3576 71.634 78.3087C70.9538 77.4764 70.9494 76.6356 71.582 76.0894C72.2839 75.4826 73.0291 75.656 73.7916 76.5532C74.6372 77.5673 75.7757 78.2949 77.0508 78.6363C78.326 78.9777 79.6754 78.9163 80.9143 78.4604C82.3744 77.9186 83.2842 76.7829 83.3102 75.4739C83.3406 73.9525 82.669 72.9989 81.053 72.3357C79.6839 71.7765 78.2151 71.5165 76.8721 70.8793C75.6802 70.3538 74.5916 69.6198 73.6573 68.712C71.8376 66.8482 71.6427 64.4598 73.1157 62.3056C73.979 61.1303 75.1782 60.2447 76.5552 59.7657C77.9321 59.2866 79.4218 59.2367 80.8277 59.6225C82.4481 60.0523 83.9367 60.8773 85.1602 62.0238C85.8708 62.6827 85.9531 63.4456 85.4332 64.0741C84.9133 64.7026 84.0771 64.7503 83.3146 64.0741C82.3115 63.1502 81.0809 62.5099 79.7489 62.2189C78.9429 62.0572 78.1075 62.1282 77.3403 62.4237C76.5731 62.7192 75.9058 63.227 75.4163 63.8877C74.6798 65.0017 74.7664 65.9596 75.7326 66.8742C76.885 67.9621 78.3321 68.5256 79.7965 68.9894C80.8701 69.2658 81.9147 69.6447 82.916 70.1207C83.8442 70.5899 84.6307 71.2981 85.1943 72.1726C85.7579 73.047 86.0783 74.0559 86.1224 75.0955C86.1666 76.135 85.9329 77.1674 85.4454 78.0865C84.958 79.0056 84.2344 79.778 83.3492 80.3242C81.9402 81.1984 80.3106 81.6511 78.6527 81.6289Z" fill="#5C2D15"/>
</g>
<g filter="url(#filter0_d_5_29)">
<circle cx="74" cy="70" r="68.5" stroke="#5C2D15" stroke-width="3" shape-rendering="crispEdges"/>
</g>
<defs>
<filter id="filter0_d_5_29" x="0" y="0" width="148" height="148" filterUnits="userSpaceOnUse" color-interpolation-filters="sRGB">
<feFlood flood-opacity="0" result="BackgroundImageFix"/>
<feColorMatrix in="SourceAlpha" type="matrix" values="0 0 0 0 0 0 0 0 0 0 0 0 0 0 0 0 0 0 127 0" result="hardAlpha"/>
<feOffset dy="4"/>
<feGaussianBlur stdDeviation="2"/>
<feComposite in2="hardAlpha" operator="out"/>
<feColorMatrix type="matrix" values="0 0 0 0 0 0 0 0 0 0 0 0 0 0 0 0 0 0 0.25 0"/>
<feBlend mode="normal" in2="BackgroundImageFix" result="effect1_dropShadow_5_29"/>
<feBlend mode="normal" in="SourceGraphic" in2="effect1_dropShadow_5_29" result="shape"/>
</filter>
<clipPath id="clip0_5_29">
<rect width="95" height="95" fill="white" transform="translate(27 23)"/>
</clipPath>
</defs>
</svg>
